M48
METRIC,LZ,000.000
;FILE_FORMAT=3:3
;TYPE=PLATED
;Layer: PTH_Through
;EasyEDA v6.5.22, 2022-12-23 11:11:42
;6bc2ae37271549389f3215a5b1e34c8e,48bb6e63cd8b433992a3f5e94ad137e8,10
;Gerber Generator version 0.2
;Holesize 1 = 0.915 mm
T01C0.915
;Holesize 2 = 1.301 mm
T02C1.301
%
G05
G90
T01
X027940Y-050800
X030480Y-050800
X033020Y-050800
X035560Y-050800
X038100Y-050800
X040640Y-050800
X043180Y-050800
X045720Y-050800
X050800Y-050800
X053340Y-050800
X055880Y-050800
X058420Y-050800
X060960Y-050800
X063500Y-050800
X066040Y-050800
X068580Y-050800
X073660Y-050800
X076200Y-050800
X078740Y-050800
X081280Y-050800
X083820Y-050800
X086360Y-050800
X088900Y-050800
X091440Y-050800
X093980Y-045720
X093980Y-043180
X093980Y-040640
X093980Y-038100
X093980Y-035560
X093980Y-033020
X093980Y-030480
X093980Y-027940
X093980Y-025400
X093980Y-022860
X093980Y-020320
X093980Y-017780
X093980Y-015240
X093980Y-012700
X093980Y-010160
X093980Y-007620
X093980Y-005080
X093980Y-002540
X096520Y-045720
X096520Y-043180
X096520Y-040640
X096520Y-038100
X096520Y-035560
X096520Y-033020
X096520Y-030480
X096520Y-027940
X096520Y-025400
X096520Y-022860
X096520Y-020320
X096520Y-017780
X096520Y-015240
X096520Y-012700
X096520Y-010160
X096520Y-007620
X096520Y-005080
X096520Y-002540
X018796Y-002540
X021336Y-002540
X023876Y-002540
X026416Y-002540
X028956Y-002540
X031496Y-002540
X034036Y-002540
X036576Y-002540
X039116Y-002540
X041656Y-002540
X045720Y-002540
X048260Y-002540
X050800Y-002540
X053340Y-002540
X055880Y-002540
X058420Y-002540
X060960Y-002540
X063500Y-002540
X068580Y-002540
X071120Y-002540
X073660Y-002540
X076200Y-002540
X078740Y-002540
X081407Y-002540
X083820Y-002540
X086360Y-002540
X058674Y-018034
X058674Y-015494
X058674Y-012954
X058674Y-010414
X054737Y-018034
X054737Y-015494
X054737Y-012954
X054737Y-010414
X050800Y-018034
X050800Y-015494
X050800Y-012954
X050800Y-010414
X054483Y-041148
X051943Y-041148
X049403Y-041148
X046863Y-041148
X084709Y-018542
X082169Y-018542
X079629Y-018542
X077089Y-018542
X067723Y-042958
X065183Y-042958
X062643Y-042958
X060103Y-042958
X084026Y-024924
X081486Y-024924
X078946Y-024924
X076406Y-024924
X034163Y-011430
X034163Y-013970
X034163Y-016510
X034163Y-019050
X038989Y-011430
X043180Y-011430
X043180Y-013970
X038989Y-013970
X038989Y-016510
X043180Y-016510
X043180Y-019050
X038989Y-019050
X060166Y-045307
X062706Y-045307
X065246Y-045307
X067786Y-045307
X022352Y-041402
X035052Y-041402
X035052Y-023622
X022352Y-023622
X035052Y-038862
X035052Y-036322
X035052Y-033782
X035052Y-031242
X035052Y-028702
X035052Y-026162
X022352Y-038862
X022352Y-036322
X022352Y-033782
X022352Y-031242
X022352Y-028702
X022352Y-026162
X070358Y-012700
X070358Y-015240
X070358Y-017780
X070358Y-020320
X070358Y-022860
X070358Y-025400
T02
X005078Y-029210G85X005082Y-029210
X005078Y-034290G85X005082Y-034290
X005078Y-039370G85X005082Y-039370
X005047Y-024130G85X005113Y-024130
M30
