G04 Layer: BottomSilkscreenLayer*
G04 EasyEDA v6.5.22, 2022-12-23 11:11:42*
G04 6bc2ae37271549389f3215a5b1e34c8e,48bb6e63cd8b433992a3f5e94ad137e8,10*
G04 Gerber Generator version 0.2*
G04 Scale: 100 percent, Rotated: No, Reflected: No *
G04 Dimensions in millimeters *
G04 leading zeros omitted , absolute positions ,4 integer and 5 decimal *
%FSLAX45Y45*%
%MOMM*%

%ADD10C,0.2032*%
%ADD11C,0.3000*%

%LPD*%
G36*
X4782464Y-1889963D02*
G01*
X4755134Y-1890471D01*
X4729226Y-1891588D01*
X4705096Y-1893366D01*
X4683353Y-1895754D01*
X4673447Y-1897227D01*
X4664354Y-1898853D01*
X4656023Y-1900631D01*
X4645253Y-1903475D01*
X4631639Y-1907743D01*
X4618482Y-1912620D01*
X4605731Y-1918106D01*
X4593488Y-1924151D01*
X4581753Y-1930755D01*
X4570526Y-1937918D01*
X4559858Y-1945538D01*
X4549749Y-1953717D01*
X4540250Y-1962353D01*
X4531360Y-1971497D01*
X4523130Y-1981047D01*
X4515612Y-1991004D01*
X4508703Y-2001418D01*
X4503724Y-2010105D01*
X4500270Y-2017014D01*
X4497070Y-2024075D01*
X4494225Y-2031441D01*
X4491634Y-2038959D01*
X4489348Y-2046732D01*
X4485690Y-2062937D01*
X4484319Y-2071370D01*
X4483201Y-2079955D01*
X4482388Y-2088743D01*
X4481880Y-2097786D01*
X4481626Y-2106930D01*
X4481982Y-2125878D01*
X4482592Y-2135581D01*
X4484674Y-2155545D01*
X4486097Y-2165756D01*
X4489805Y-2186686D01*
X4494580Y-2208174D01*
X4500473Y-2230221D01*
X4505553Y-2247087D01*
X4511243Y-2264257D01*
X4519777Y-2287524D01*
X4524400Y-2299309D01*
X4531817Y-2317191D01*
X4542637Y-2341372D01*
X4557572Y-2372055D01*
X4570628Y-2396947D01*
X4581042Y-2415794D01*
X4599635Y-2447442D01*
X4615586Y-2473045D01*
X4636820Y-2505202D01*
X4659528Y-2537510D01*
X4678730Y-2563418D01*
X4698796Y-2589377D01*
X4716678Y-2611678D01*
X4739640Y-2639364D01*
X4759909Y-2663139D01*
X4780788Y-2686964D01*
X4798618Y-2706827D01*
X4831689Y-2742692D01*
X4862169Y-2774594D01*
X4881676Y-2794558D01*
X4913630Y-2826512D01*
X4950714Y-2862427D01*
X4984648Y-2894330D01*
X5028234Y-2934157D01*
X5068620Y-2969920D01*
X5114696Y-3009595D01*
X5152491Y-3041142D01*
X5200751Y-3080512D01*
X5255260Y-3123488D01*
X5300827Y-3158490D01*
X5352491Y-3197047D01*
X5399836Y-3231540D01*
X5442661Y-3261918D01*
X5480608Y-3288334D01*
X5541162Y-3329482D01*
X5591556Y-3362756D01*
X5625490Y-3384753D01*
X5688533Y-3424580D01*
X5746648Y-3460292D01*
X5817362Y-3502406D01*
X5865063Y-3530041D01*
X5919216Y-3560622D01*
X5955639Y-3580790D01*
X6010605Y-3610508D01*
X6066028Y-3639718D01*
X6111951Y-3663289D01*
X6154318Y-3684473D01*
X6189675Y-3701643D01*
X6239103Y-3724960D01*
X6281420Y-3744264D01*
X6309563Y-3756812D01*
X6358636Y-3778046D01*
X6386576Y-3789781D01*
X6428282Y-3806850D01*
X6469684Y-3823258D01*
X6503974Y-3836365D01*
X6558280Y-3856329D01*
X6585153Y-3865829D01*
X6618478Y-3877259D01*
X6651447Y-3888181D01*
X6677558Y-3896563D01*
X6728968Y-3912260D01*
X6754317Y-3919575D01*
X6804050Y-3933190D01*
X6834530Y-3940962D01*
X6864451Y-3948176D01*
X6911187Y-3958539D01*
X6945274Y-3965295D01*
X6967474Y-3969359D01*
X6989267Y-3973017D01*
X7015886Y-3977030D01*
X7046975Y-3981043D01*
X7067092Y-3983228D01*
X7096353Y-3985717D01*
X7115251Y-3986885D01*
X7138162Y-3987749D01*
X7160209Y-3988003D01*
X7177278Y-3987698D01*
X7193737Y-3986936D01*
X7205725Y-3986123D01*
X7224979Y-3984193D01*
X7239660Y-3982161D01*
X7255713Y-3979468D01*
X7271105Y-3976420D01*
X7285837Y-3973118D01*
X7299909Y-3969461D01*
X7313371Y-3965498D01*
X7326223Y-3961231D01*
X7338466Y-3956608D01*
X7350048Y-3951681D01*
X7361072Y-3946398D01*
X7371537Y-3940759D01*
X7381341Y-3934815D01*
X7390638Y-3928465D01*
X7399375Y-3921810D01*
X7407503Y-3914749D01*
X7415123Y-3907332D01*
X7422184Y-3899560D01*
X7428738Y-3891381D01*
X7434732Y-3882847D01*
X7440218Y-3873957D01*
X7445248Y-3864610D01*
X7451090Y-3852214D01*
X7456119Y-3839819D01*
X7460335Y-3827475D01*
X7463840Y-3815130D01*
X7466533Y-3802684D01*
X7468412Y-3790086D01*
X7469124Y-3783736D01*
X7469886Y-3770884D01*
X7469886Y-3757777D01*
X7469174Y-3744417D01*
X7467701Y-3730701D01*
X7465466Y-3716578D01*
X7463231Y-3705301D01*
X7461148Y-3696766D01*
X7458608Y-3687622D01*
X7452207Y-3667810D01*
X7444282Y-3646170D01*
X7434884Y-3623056D01*
X7424267Y-3598824D01*
X7418578Y-3586378D01*
X7409535Y-3567429D01*
X7399985Y-3548278D01*
X7390028Y-3529025D01*
X7379766Y-3509873D01*
X7362037Y-3478479D01*
X7354824Y-3466185D01*
X7336586Y-3436721D01*
X7322007Y-3414674D01*
X7307580Y-3394354D01*
X7295286Y-3378149D01*
X7282586Y-3361994D01*
X7261352Y-3336036D01*
X7245908Y-3317748D01*
X7225436Y-3293973D01*
X7181138Y-3244291D01*
X7138619Y-3198317D01*
X7119213Y-3177844D01*
X7080148Y-3137408D01*
X7060692Y-3117697D01*
X7036612Y-3093720D01*
X6999224Y-3057448D01*
X6981240Y-3040532D01*
X6963918Y-3024581D01*
X6947306Y-3009696D01*
X6903669Y-2972054D01*
X6846316Y-2923641D01*
X6781444Y-2870098D01*
X6732320Y-2830322D01*
X6670040Y-2781198D01*
X6650024Y-2766060D01*
X6637324Y-2756763D01*
X6624472Y-2748178D01*
X6622034Y-2746908D01*
X6620560Y-2746451D01*
X6620205Y-2746705D01*
X6620408Y-2747467D01*
X6622389Y-2750362D01*
X6626352Y-2754934D01*
X6632143Y-2761132D01*
X6648602Y-2777540D01*
X6670446Y-2798318D01*
X6722922Y-2846476D01*
X6755028Y-2876753D01*
X6779920Y-2900883D01*
X6815937Y-2936900D01*
X6844639Y-2966770D01*
X6866737Y-2990443D01*
X6888073Y-3014014D01*
X6913625Y-3043224D01*
X6933184Y-3066338D01*
X6951929Y-3089249D01*
X6969810Y-3111906D01*
X6986930Y-3134258D01*
X7003135Y-3156407D01*
X7018477Y-3178200D01*
X7033006Y-3199688D01*
X7046569Y-3220872D01*
X7059320Y-3241649D01*
X7071106Y-3262071D01*
X7081977Y-3282086D01*
X7094220Y-3306521D01*
X7100874Y-3320846D01*
X7108901Y-3339541D01*
X7115911Y-3357778D01*
X7122007Y-3375507D01*
X7127036Y-3392728D01*
X7129221Y-3401161D01*
X7132777Y-3417570D01*
X7135266Y-3433419D01*
X7136739Y-3448710D01*
X7137095Y-3456127D01*
X7136993Y-3470452D01*
X7136536Y-3477412D01*
X7134809Y-3490823D01*
X7133539Y-3497275D01*
X7131964Y-3503574D01*
X7129373Y-3512261D01*
X7125614Y-3523030D01*
X7121448Y-3533241D01*
X7116876Y-3542893D01*
X7111898Y-3552037D01*
X7106462Y-3560673D01*
X7100519Y-3568801D01*
X7094067Y-3576421D01*
X7087108Y-3583533D01*
X7079640Y-3590188D01*
X7071614Y-3596386D01*
X7062978Y-3602126D01*
X7053783Y-3607460D01*
X7043928Y-3612337D01*
X7033463Y-3616807D01*
X7022338Y-3620820D01*
X7010552Y-3624478D01*
X6998055Y-3627780D01*
X6984847Y-3630676D01*
X6970877Y-3633266D01*
X6956196Y-3635451D01*
X6940702Y-3637330D01*
X6924395Y-3638854D01*
X6907275Y-3640124D01*
X6886295Y-3641140D01*
X6869836Y-3641496D01*
X6844385Y-3641293D01*
X6818223Y-3640226D01*
X6804812Y-3639413D01*
X6772808Y-3636619D01*
X6744563Y-3633317D01*
X6720484Y-3629914D01*
X6695846Y-3625951D01*
X6665671Y-3620414D01*
X6639966Y-3615182D01*
X6597903Y-3605631D01*
X6570980Y-3598875D01*
X6532524Y-3588562D01*
X6504533Y-3580536D01*
X6481826Y-3573678D01*
X6453073Y-3564636D01*
X6423914Y-3555034D01*
X6394297Y-3544874D01*
X6358229Y-3532022D01*
X6327749Y-3520694D01*
X6303111Y-3511245D01*
X6265672Y-3496411D01*
X6240424Y-3486150D01*
X6202121Y-3470046D01*
X6169863Y-3456076D01*
X6117437Y-3432606D01*
X6084265Y-3417315D01*
X6023762Y-3388461D01*
X5962294Y-3357930D01*
X5906871Y-3329432D01*
X5864809Y-3307232D01*
X5829503Y-3288182D01*
X5793943Y-3268675D01*
X5750915Y-3244596D01*
X5693664Y-3211779D01*
X5636818Y-3178505D01*
X5584240Y-3146958D01*
X5556605Y-3130042D01*
X5499100Y-3093770D01*
X5454751Y-3064662D01*
X5412130Y-3035452D01*
X5370474Y-3005785D01*
X5329224Y-2975051D01*
X5296916Y-2950159D01*
X5254599Y-2916478D01*
X5230469Y-2896768D01*
X5205780Y-2876245D01*
X5170017Y-2846019D01*
X5121503Y-2804210D01*
X5073954Y-2762453D01*
X5050078Y-2741015D01*
X5021021Y-2714396D01*
X4992878Y-2688031D01*
X4970983Y-2667101D01*
X4944465Y-2641193D01*
X4918862Y-2615539D01*
X4894122Y-2590190D01*
X4870348Y-2565146D01*
X4843119Y-2535478D01*
X4821428Y-2511094D01*
X4796637Y-2482240D01*
X4780940Y-2463342D01*
X4765852Y-2444597D01*
X4747869Y-2421534D01*
X4730902Y-2398826D01*
X4714900Y-2376525D01*
X4697069Y-2350211D01*
X4683353Y-2328773D01*
X4670704Y-2307742D01*
X4661306Y-2291232D01*
X4648454Y-2267000D01*
X4639259Y-2248001D01*
X4633163Y-2234641D01*
X4627778Y-2222195D01*
X4623155Y-2210460D01*
X4619142Y-2199284D01*
X4615688Y-2188362D01*
X4612843Y-2177542D01*
X4610455Y-2166620D01*
X4608474Y-2155342D01*
X4606899Y-2143607D01*
X4605629Y-2131110D01*
X4604613Y-2117648D01*
X4603597Y-2099106D01*
X4602886Y-2079447D01*
X4602886Y-2063496D01*
X4603800Y-2050389D01*
X4604613Y-2044649D01*
X4605731Y-2039366D01*
X4607153Y-2034336D01*
X4608830Y-2029510D01*
X4610862Y-2024837D01*
X4613249Y-2020163D01*
X4619091Y-2010410D01*
X4626660Y-1999335D01*
X4634839Y-1988566D01*
X4643170Y-1978812D01*
X4651806Y-1969922D01*
X4660798Y-1961896D01*
X4665472Y-1958136D01*
X4675276Y-1951228D01*
X4685741Y-1945030D01*
X4696968Y-1939391D01*
X4709058Y-1934260D01*
X4722114Y-1929638D01*
X4736287Y-1925421D01*
X4751628Y-1921459D01*
X4762703Y-1918970D01*
X4785207Y-1914804D01*
X4796637Y-1913128D01*
X4819954Y-1910588D01*
X4831842Y-1909724D01*
X4850079Y-1908911D01*
X4875123Y-1908810D01*
X4901184Y-1909775D01*
X4928412Y-1911756D01*
X4956911Y-1914855D01*
X4987493Y-1919020D01*
X5015128Y-1922525D01*
X5034280Y-1924151D01*
X5040579Y-1924304D01*
X5044795Y-1924100D01*
X5046878Y-1923440D01*
X5047132Y-1922983D01*
X5046827Y-1922475D01*
X5044643Y-1921103D01*
X5040274Y-1919427D01*
X5025237Y-1915109D01*
X5001666Y-1909724D01*
X4972812Y-1903933D01*
X4948986Y-1900123D01*
X4923282Y-1896872D01*
X4896104Y-1894281D01*
X4868011Y-1892249D01*
X4832197Y-1890623D01*
X4803597Y-1890014D01*
G37*
G36*
X5743346Y-2085390D02*
G01*
X5723839Y-2085797D01*
X5704230Y-2086762D01*
X5684723Y-2088235D01*
X5671769Y-2089505D01*
X5652668Y-2091842D01*
X5640171Y-2093671D01*
X5615889Y-2098040D01*
X5604256Y-2100529D01*
X5592927Y-2103272D01*
X5582056Y-2106168D01*
X5571642Y-2109317D01*
X5560872Y-2112924D01*
X5538266Y-2121357D01*
X5516168Y-2130653D01*
X5505348Y-2135632D01*
X5489346Y-2143506D01*
X5468518Y-2154631D01*
X5453329Y-2163521D01*
X5433517Y-2176068D01*
X5414314Y-2189327D01*
X5400344Y-2199792D01*
X5391200Y-2206955D01*
X5377840Y-2218029D01*
X5369102Y-2225598D01*
X5352186Y-2241296D01*
X5343956Y-2249322D01*
X5331968Y-2261717D01*
X5316575Y-2278786D01*
X5301894Y-2296363D01*
X5287975Y-2314498D01*
X5274767Y-2333193D01*
X5265369Y-2347468D01*
X5259324Y-2357170D01*
X5247894Y-2376932D01*
X5237226Y-2397048D01*
X5227320Y-2417622D01*
X5218277Y-2438552D01*
X5212080Y-2454503D01*
X5208168Y-2465222D01*
X5204510Y-2476042D01*
X5199430Y-2492349D01*
X5196281Y-2503373D01*
X5190693Y-2525572D01*
X5187137Y-2542336D01*
X5185003Y-2553614D01*
X5181447Y-2576322D01*
X5178856Y-2599232D01*
X5177231Y-2622296D01*
X5176774Y-2633878D01*
X5176621Y-2657144D01*
X5176875Y-2668828D01*
X5178196Y-2692196D01*
X5179212Y-2703931D01*
X5182057Y-2727401D01*
X5184902Y-2745028D01*
X5198110Y-2815844D01*
X5312968Y-2907944D01*
X5331409Y-2922270D01*
X5364683Y-2947517D01*
X5384190Y-2961995D01*
X5419191Y-2987294D01*
X5444744Y-3005277D01*
X5491632Y-3037281D01*
X5523433Y-3058312D01*
X5550103Y-3075584D01*
X5582259Y-3095904D01*
X5603697Y-3109163D01*
X5651957Y-3138170D01*
X5683961Y-3156661D01*
X5722416Y-3178302D01*
X5737555Y-3186430D01*
X5750458Y-3192983D01*
X5761634Y-3198012D01*
X5771438Y-3201771D01*
X5780278Y-3204260D01*
X5788558Y-3205734D01*
X5792622Y-3206140D01*
X5800852Y-3206242D01*
X5809589Y-3205683D01*
X5819241Y-3204514D01*
X5829503Y-3202990D01*
X5840831Y-3200806D01*
X5853531Y-3197961D01*
X5867196Y-3194608D01*
X5881420Y-3190849D01*
X5895695Y-3186734D01*
X5909716Y-3182416D01*
X5922975Y-3177997D01*
X5935370Y-3173526D01*
X5947664Y-3168802D01*
X5959754Y-3163874D01*
X5971692Y-3158693D01*
X5994908Y-3147720D01*
X6006236Y-3141929D01*
X6017361Y-3135934D01*
X6028283Y-3129737D01*
X6039053Y-3123285D01*
X6059932Y-3109772D01*
X6070092Y-3102711D01*
X6080048Y-3095447D01*
X6089802Y-3087979D01*
X6099352Y-3080308D01*
X6108700Y-3072434D01*
X6122365Y-3060192D01*
X6139840Y-3043174D01*
X6148273Y-3034385D01*
X6156553Y-3025343D01*
X6164580Y-3016148D01*
X6176264Y-3001924D01*
X6183782Y-2992221D01*
X6194653Y-2977235D01*
X6201664Y-2967024D01*
X6208471Y-2956610D01*
X6218326Y-2940558D01*
X6224574Y-2929686D01*
X6230670Y-2918561D01*
X6242202Y-2895701D01*
X6247638Y-2884017D01*
X6252870Y-2872130D01*
X6257899Y-2860040D01*
X6262725Y-2847746D01*
X6271869Y-2822143D01*
X6279896Y-2797149D01*
X6283198Y-2785668D01*
X6286042Y-2774645D01*
X6288481Y-2763875D01*
X6290513Y-2753156D01*
X6292189Y-2742285D01*
X6293561Y-2731058D01*
X6294577Y-2719273D01*
X6295390Y-2706776D01*
X6296304Y-2678836D01*
X6296456Y-2647340D01*
X6296304Y-2633218D01*
X6295288Y-2605735D01*
X6293408Y-2579370D01*
X6290614Y-2553919D01*
X6286855Y-2529433D01*
X6284620Y-2517495D01*
X6279438Y-2494178D01*
X6276441Y-2482799D01*
X6269736Y-2460498D01*
X6261912Y-2438806D01*
X6253022Y-2417622D01*
X6248146Y-2407208D01*
X6243015Y-2396896D01*
X6237579Y-2386685D01*
X6231839Y-2376525D01*
X6219494Y-2356459D01*
X6212840Y-2346502D01*
X6198666Y-2326690D01*
X6187186Y-2311908D01*
X6170726Y-2292197D01*
X6162040Y-2282342D01*
X6148324Y-2267508D01*
X6129121Y-2247849D01*
X6114796Y-2234031D01*
X6095492Y-2216658D01*
X6080861Y-2204415D01*
X6071006Y-2196592D01*
X6061049Y-2189022D01*
X6051042Y-2181758D01*
X6030722Y-2168042D01*
X6020409Y-2161590D01*
X6009995Y-2155393D01*
X5999480Y-2149449D01*
X5983427Y-2141016D01*
X5972606Y-2135733D01*
X5961583Y-2130653D01*
X5950458Y-2125827D01*
X5939180Y-2121255D01*
X5916168Y-2112822D01*
X5892444Y-2105304D01*
X5868009Y-2098649D01*
X5845251Y-2093518D01*
X5834481Y-2091639D01*
X5823356Y-2089962D01*
X5799886Y-2087422D01*
X5775299Y-2085898D01*
G37*
G36*
X4604816Y-3081070D02*
G01*
X4602988Y-3081832D01*
X4601108Y-3083407D01*
X4599228Y-3085744D01*
X4597196Y-3088894D01*
X4595164Y-3092805D01*
X4590796Y-3103016D01*
X4586020Y-3116427D01*
X4580839Y-3132277D01*
X4578451Y-3138982D01*
X4576064Y-3144520D01*
X4573422Y-3149041D01*
X4570425Y-3152648D01*
X4566818Y-3155492D01*
X4562500Y-3157677D01*
X4557166Y-3159302D01*
X4550664Y-3160522D01*
X4542891Y-3161436D01*
X4522419Y-3162909D01*
X4472736Y-3165805D01*
X4551781Y-3223107D01*
X4535424Y-3269894D01*
X4530496Y-3285236D01*
X4527499Y-3296767D01*
X4526686Y-3301187D01*
X4526381Y-3304794D01*
X4526635Y-3307537D01*
X4527346Y-3309467D01*
X4528566Y-3310636D01*
X4530293Y-3311093D01*
X4532528Y-3310839D01*
X4535322Y-3309874D01*
X4538675Y-3308299D01*
X4546955Y-3303320D01*
X4577943Y-3283254D01*
X4583734Y-3279698D01*
X4593590Y-3274415D01*
X4597755Y-3272586D01*
X4601616Y-3271316D01*
X4605172Y-3270554D01*
X4608474Y-3270300D01*
X4611674Y-3270554D01*
X4614824Y-3271316D01*
X4618024Y-3272586D01*
X4621326Y-3274314D01*
X4628540Y-3279140D01*
X4649114Y-3294735D01*
X4661865Y-3303879D01*
X4672431Y-3310788D01*
X4676495Y-3313176D01*
X4679492Y-3314649D01*
X4681321Y-3315208D01*
X4682134Y-3314293D01*
X4682337Y-3311651D01*
X4681880Y-3307486D01*
X4680864Y-3302000D01*
X4677257Y-3287674D01*
X4671771Y-3270199D01*
X4667300Y-3256788D01*
X4663998Y-3245866D01*
X4662932Y-3241192D01*
X4662271Y-3236874D01*
X4662068Y-3232912D01*
X4662373Y-3229203D01*
X4663186Y-3225698D01*
X4664557Y-3222294D01*
X4666538Y-3218942D01*
X4669180Y-3215538D01*
X4672482Y-3212033D01*
X4676444Y-3208324D01*
X4686757Y-3200146D01*
X4726990Y-3171494D01*
X4730038Y-3168904D01*
X4731816Y-3166821D01*
X4732223Y-3165246D01*
X4731105Y-3163976D01*
X4728464Y-3163062D01*
X4724095Y-3162452D01*
X4709922Y-3161741D01*
X4634687Y-3160979D01*
X4620869Y-3109061D01*
X4617161Y-3097479D01*
X4615383Y-3092805D01*
X4613605Y-3088894D01*
X4611878Y-3085795D01*
X4610100Y-3083458D01*
X4608372Y-3081883D01*
X4606594Y-3081070D01*
G37*
G36*
X5517337Y-3716985D02*
G01*
X5515914Y-3717340D01*
X5514390Y-3718610D01*
X5512765Y-3720693D01*
X5510987Y-3723690D01*
X5507024Y-3732377D01*
X5502148Y-3744772D01*
X5490667Y-3776268D01*
X5488533Y-3781044D01*
X5486247Y-3785057D01*
X5483656Y-3788359D01*
X5480608Y-3791000D01*
X5476900Y-3793083D01*
X5472430Y-3794658D01*
X5466994Y-3795776D01*
X5460492Y-3796588D01*
X5452719Y-3797096D01*
X5432806Y-3797503D01*
X5382310Y-3797808D01*
X5411368Y-3822141D01*
X5433517Y-3839768D01*
X5450586Y-3852468D01*
X5453532Y-3854958D01*
X5455818Y-3857447D01*
X5457494Y-3860037D01*
X5458561Y-3862933D01*
X5459018Y-3866286D01*
X5458917Y-3870198D01*
X5458155Y-3874770D01*
X5456834Y-3880256D01*
X5452364Y-3894328D01*
X5446471Y-3911701D01*
X5441950Y-3927195D01*
X5440375Y-3933951D01*
X5439308Y-3939692D01*
X5438749Y-3944315D01*
X5438749Y-3947617D01*
X5439359Y-3949395D01*
X5440984Y-3949852D01*
X5443778Y-3949242D01*
X5447639Y-3947668D01*
X5452364Y-3945229D01*
X5457850Y-3942029D01*
X5463895Y-3938168D01*
X5470398Y-3933647D01*
X5483910Y-3923537D01*
X5496661Y-3914444D01*
X5507278Y-3907536D01*
X5511342Y-3905199D01*
X5514441Y-3903726D01*
X5516321Y-3903218D01*
X5518251Y-3903726D01*
X5521299Y-3905199D01*
X5525414Y-3907536D01*
X5535980Y-3914444D01*
X5548731Y-3923537D01*
X5562295Y-3933647D01*
X5568746Y-3938168D01*
X5574792Y-3942029D01*
X5580278Y-3945229D01*
X5585002Y-3947668D01*
X5588863Y-3949242D01*
X5591657Y-3949852D01*
X5593283Y-3949395D01*
X5593943Y-3947617D01*
X5593943Y-3944365D01*
X5593384Y-3939743D01*
X5592318Y-3933951D01*
X5588660Y-3919829D01*
X5578449Y-3888486D01*
X5576722Y-3882186D01*
X5575503Y-3876548D01*
X5574893Y-3871468D01*
X5574893Y-3866845D01*
X5575604Y-3862628D01*
X5576976Y-3858666D01*
X5579160Y-3854856D01*
X5582107Y-3851198D01*
X5585917Y-3847490D01*
X5590641Y-3843680D01*
X5596280Y-3839667D01*
X5610555Y-3830726D01*
X5624169Y-3822496D01*
X5628132Y-3819601D01*
X5631230Y-3816858D01*
X5633466Y-3814216D01*
X5634786Y-3811778D01*
X5635193Y-3809492D01*
X5634786Y-3807307D01*
X5633466Y-3805326D01*
X5631230Y-3803497D01*
X5628132Y-3801821D01*
X5624169Y-3800297D01*
X5619343Y-3798976D01*
X5613654Y-3797808D01*
X5607050Y-3796792D01*
X5599582Y-3795928D01*
X5583580Y-3794760D01*
X5570829Y-3793591D01*
X5565597Y-3792778D01*
X5561025Y-3791813D01*
X5557113Y-3790543D01*
X5553659Y-3788968D01*
X5550611Y-3786987D01*
X5547969Y-3784498D01*
X5545582Y-3781551D01*
X5543346Y-3777996D01*
X5541264Y-3773779D01*
X5537047Y-3763162D01*
X5528157Y-3736746D01*
X5524703Y-3727246D01*
X5521655Y-3720744D01*
X5520182Y-3718661D01*
X5518759Y-3717391D01*
G37*
G36*
X4603648Y-3718661D02*
G01*
X4601514Y-3719626D01*
X4599330Y-3721862D01*
X4597044Y-3725265D01*
X4594656Y-3729888D01*
X4592116Y-3735730D01*
X4586528Y-3751021D01*
X4580839Y-3768496D01*
X4578451Y-3775151D01*
X4576064Y-3780688D01*
X4573422Y-3785209D01*
X4570425Y-3788867D01*
X4566818Y-3791712D01*
X4562500Y-3793845D01*
X4557166Y-3795522D01*
X4550664Y-3796741D01*
X4542891Y-3797655D01*
X4522419Y-3799078D01*
X4472736Y-3801973D01*
X4551273Y-3860444D01*
X4536338Y-3911803D01*
X4532426Y-3927601D01*
X4531004Y-3934358D01*
X4530039Y-3940149D01*
X4529531Y-3944721D01*
X4529480Y-3947922D01*
X4529988Y-3949547D01*
X4531461Y-3949801D01*
X4534154Y-3948937D01*
X4537964Y-3947160D01*
X4542688Y-3944518D01*
X4554372Y-3936949D01*
X4567986Y-3927043D01*
X4602226Y-3900728D01*
X4645964Y-3931158D01*
X4659884Y-3940200D01*
X4671364Y-3947058D01*
X4675784Y-3949395D01*
X4679086Y-3950868D01*
X4681067Y-3951376D01*
X4682032Y-3950563D01*
X4682388Y-3948277D01*
X4682185Y-3944569D01*
X4681372Y-3939692D01*
X4680102Y-3933799D01*
X4678324Y-3927043D01*
X4673396Y-3911600D01*
X4667351Y-3894277D01*
X4663287Y-3881120D01*
X4662017Y-3875735D01*
X4661357Y-3871061D01*
X4661255Y-3866946D01*
X4661814Y-3863238D01*
X4663084Y-3859834D01*
X4664964Y-3856634D01*
X4667656Y-3853484D01*
X4671060Y-3850284D01*
X4680254Y-3843274D01*
X4692904Y-3834536D01*
X4705908Y-3825087D01*
X4716526Y-3816248D01*
X4720640Y-3812336D01*
X4723739Y-3809034D01*
X4725720Y-3806291D01*
X4726432Y-3804412D01*
X4725466Y-3802938D01*
X4722774Y-3801567D01*
X4718456Y-3800348D01*
X4712766Y-3799281D01*
X4705858Y-3798417D01*
X4697933Y-3797706D01*
X4689195Y-3797300D01*
X4633214Y-3797147D01*
X4618583Y-3744823D01*
X4614062Y-3731463D01*
X4611928Y-3726535D01*
X4609846Y-3722776D01*
X4607763Y-3720236D01*
X4605731Y-3718814D01*
G37*
G36*
X1304290Y-2658110D02*
G01*
X1288999Y-2658414D01*
X1275435Y-2659075D01*
X1262176Y-2660243D01*
X1249222Y-2661869D01*
X1236522Y-2663952D01*
X1224127Y-2666492D01*
X1211986Y-2669540D01*
X1200099Y-2673045D01*
X1188466Y-2677058D01*
X1177086Y-2681528D01*
X1166012Y-2686507D01*
X1155090Y-2691993D01*
X1144473Y-2697937D01*
X1134059Y-2704388D01*
X1123848Y-2711348D01*
X1113891Y-2718816D01*
X1104087Y-2726791D01*
X1094536Y-2735275D01*
X1085138Y-2744216D01*
X1077061Y-2752699D01*
X1068882Y-2762097D01*
X1061059Y-2771851D01*
X1053896Y-2781503D01*
X1047851Y-2790444D01*
X1043381Y-2798267D01*
X1030274Y-2823768D01*
X992327Y-2841548D01*
X980389Y-2848152D01*
X968908Y-2855518D01*
X958037Y-2863697D01*
X952804Y-2868015D01*
X942848Y-2877210D01*
X933551Y-2887014D01*
X924966Y-2897428D01*
X917194Y-2908350D01*
X910234Y-2919780D01*
X904087Y-2931617D01*
X890168Y-2961335D01*
X890168Y-3040278D01*
X906678Y-3075178D01*
X912469Y-3085541D01*
X919175Y-3095752D01*
X926642Y-3105708D01*
X934770Y-3115360D01*
X943457Y-3124555D01*
X952601Y-3133191D01*
X962101Y-3141167D01*
X971854Y-3148380D01*
X981760Y-3154680D01*
X992022Y-3160217D01*
X1002537Y-3165195D01*
X1013206Y-3169412D01*
X1024128Y-3173018D01*
X1035507Y-3176016D01*
X1047546Y-3178403D01*
X1060450Y-3180232D01*
X1074369Y-3181553D01*
X1089456Y-3182366D01*
X1106017Y-3182772D01*
X1169111Y-3182823D01*
X1181912Y-3170021D01*
X1187500Y-3163620D01*
X1191514Y-3157118D01*
X1193901Y-3150565D01*
X1194714Y-3144062D01*
X1194562Y-3138170D01*
X1194003Y-3132836D01*
X1193038Y-3128060D01*
X1191564Y-3123793D01*
X1189532Y-3120034D01*
X1186942Y-3116783D01*
X1183690Y-3113938D01*
X1179728Y-3111550D01*
X1175004Y-3109518D01*
X1169517Y-3107842D01*
X1163116Y-3106521D01*
X1155750Y-3105505D01*
X1147470Y-3104743D01*
X1138123Y-3104235D01*
X1099007Y-3103626D01*
X1083665Y-3102762D01*
X1069898Y-3101238D01*
X1057554Y-3099003D01*
X1051864Y-3097580D01*
X1041298Y-3094177D01*
X1036370Y-3092145D01*
X1027176Y-3087420D01*
X1022807Y-3084677D01*
X1014526Y-3078480D01*
X1006652Y-3071266D01*
X1002792Y-3067202D01*
X998677Y-3062478D01*
X994968Y-3057601D01*
X991565Y-3052470D01*
X988517Y-3047238D01*
X985824Y-3041853D01*
X983487Y-3036316D01*
X981456Y-3030728D01*
X979830Y-3024987D01*
X978509Y-3019247D01*
X977544Y-3013405D01*
X976934Y-3007512D01*
X976680Y-3001670D01*
X976731Y-2995777D01*
X977188Y-2989935D01*
X977950Y-2984093D01*
X979068Y-2978353D01*
X980541Y-2972663D01*
X982370Y-2967075D01*
X984554Y-2961589D01*
X987094Y-2956255D01*
X989990Y-2951022D01*
X993190Y-2945993D01*
X996797Y-2941167D01*
X1000760Y-2936494D01*
X1005738Y-2931160D01*
X1010615Y-2926384D01*
X1015492Y-2922117D01*
X1020419Y-2918358D01*
X1025499Y-2914954D01*
X1030782Y-2912008D01*
X1036370Y-2909366D01*
X1042365Y-2907030D01*
X1048816Y-2904947D01*
X1055827Y-2903118D01*
X1063447Y-2901442D01*
X1100124Y-2895092D01*
X1103477Y-2878886D01*
X1106170Y-2868320D01*
X1107846Y-2863088D01*
X1111910Y-2852724D01*
X1116787Y-2842514D01*
X1122527Y-2832557D01*
X1128979Y-2822854D01*
X1136142Y-2813405D01*
X1144016Y-2804363D01*
X1152448Y-2795676D01*
X1161491Y-2787396D01*
X1171092Y-2779623D01*
X1181150Y-2772308D01*
X1191666Y-2765602D01*
X1202588Y-2759456D01*
X1213815Y-2753969D01*
X1225346Y-2749143D01*
X1237183Y-2745028D01*
X1249172Y-2741676D01*
X1261160Y-2739186D01*
X1267104Y-2738170D01*
X1279042Y-2736748D01*
X1290980Y-2735986D01*
X1302918Y-2735884D01*
X1314754Y-2736443D01*
X1326540Y-2737612D01*
X1338173Y-2739440D01*
X1349654Y-2741828D01*
X1360932Y-2744825D01*
X1372006Y-2748432D01*
X1382826Y-2752547D01*
X1393393Y-2757220D01*
X1403604Y-2762453D01*
X1413459Y-2768193D01*
X1422908Y-2774492D01*
X1431950Y-2781198D01*
X1440535Y-2788462D01*
X1448612Y-2796133D01*
X1456182Y-2804312D01*
X1463192Y-2812897D01*
X1469644Y-2821940D01*
X1483512Y-2844850D01*
X1486712Y-2849372D01*
X1489506Y-2852674D01*
X1492097Y-2854807D01*
X1494536Y-2855925D01*
X1496974Y-2856179D01*
X1499565Y-2855722D01*
X1520190Y-2849626D01*
X1535785Y-2845460D01*
X1547977Y-2842971D01*
X1553311Y-2842209D01*
X1563471Y-2841650D01*
X1574444Y-2842056D01*
X1586788Y-2843225D01*
X1592834Y-2844038D01*
X1598777Y-2845104D01*
X1610258Y-2847898D01*
X1615897Y-2849575D01*
X1626717Y-2853537D01*
X1637030Y-2858262D01*
X1646783Y-2863697D01*
X1656029Y-2869793D01*
X1664614Y-2876600D01*
X1672539Y-2883966D01*
X1679803Y-2891942D01*
X1686356Y-2900426D01*
X1692148Y-2909468D01*
X1694789Y-2914142D01*
X1699361Y-2923844D01*
X1701393Y-2928874D01*
X1704746Y-2939237D01*
X1707184Y-2949905D01*
X1708708Y-2960979D01*
X1709115Y-2966618D01*
X1709216Y-2979166D01*
X1708810Y-2985871D01*
X1708150Y-2992323D01*
X1707184Y-2998673D01*
X1705965Y-3004820D01*
X1704441Y-3010763D01*
X1700479Y-3022193D01*
X1698040Y-3027680D01*
X1695297Y-3033014D01*
X1692249Y-3038144D01*
X1688947Y-3043174D01*
X1685289Y-3048050D01*
X1681327Y-3052775D01*
X1677111Y-3057347D01*
X1672539Y-3061766D01*
X1667662Y-3066084D01*
X1662430Y-3070250D01*
X1656943Y-3074263D01*
X1642821Y-3083356D01*
X1636217Y-3087014D01*
X1630933Y-3089198D01*
X1626768Y-3089910D01*
X1623466Y-3089046D01*
X1620672Y-3086709D01*
X1618183Y-3082848D01*
X1613865Y-3073654D01*
X1611426Y-3069640D01*
X1608378Y-3065424D01*
X1604822Y-3061106D01*
X1600809Y-3056686D01*
X1591665Y-3047796D01*
X1581404Y-3039160D01*
X1575968Y-3035046D01*
X1564843Y-3027527D01*
X1559255Y-3024174D01*
X1553718Y-3021177D01*
X1548282Y-3018586D01*
X1543050Y-3016402D01*
X1537208Y-3014370D01*
X1531264Y-3012592D01*
X1519123Y-3009849D01*
X1512925Y-3008884D01*
X1500428Y-3007715D01*
X1487728Y-3007563D01*
X1475028Y-3008376D01*
X1462379Y-3010255D01*
X1449882Y-3013049D01*
X1443736Y-3014827D01*
X1437640Y-3016859D01*
X1425702Y-3021634D01*
X1419860Y-3024327D01*
X1408633Y-3030474D01*
X1397914Y-3037586D01*
X1380845Y-3049930D01*
X1275689Y-2999790D01*
X1190599Y-2959760D01*
X1166012Y-2999384D01*
X1159205Y-3011728D01*
X1156665Y-3016961D01*
X1154785Y-3021482D01*
X1153566Y-3025089D01*
X1153160Y-3027629D01*
X1153515Y-3029000D01*
X1162608Y-3033928D01*
X1184300Y-3044799D01*
X1252829Y-3077870D01*
X1348232Y-3123234D01*
X1348269Y-3138119D01*
X1435963Y-3138119D01*
X1436319Y-3130296D01*
X1437487Y-3123133D01*
X1439468Y-3116681D01*
X1442313Y-3110839D01*
X1445971Y-3105607D01*
X1450492Y-3100882D01*
X1455928Y-3096666D01*
X1462328Y-3092907D01*
X1467764Y-3090418D01*
X1473301Y-3088538D01*
X1478940Y-3087217D01*
X1484630Y-3086455D01*
X1490268Y-3086201D01*
X1495856Y-3086557D01*
X1501343Y-3087370D01*
X1506728Y-3088741D01*
X1511909Y-3090570D01*
X1516837Y-3092907D01*
X1521510Y-3095701D01*
X1525879Y-3098952D01*
X1529892Y-3102660D01*
X1533550Y-3106775D01*
X1536700Y-3111347D01*
X1539392Y-3116275D01*
X1541373Y-3121050D01*
X1542846Y-3125825D01*
X1543761Y-3130550D01*
X1544167Y-3135223D01*
X1544116Y-3139795D01*
X1543608Y-3144316D01*
X1542643Y-3148736D01*
X1541272Y-3152952D01*
X1539443Y-3157067D01*
X1537258Y-3160979D01*
X1534718Y-3164687D01*
X1531823Y-3168192D01*
X1528622Y-3171444D01*
X1525066Y-3174441D01*
X1521256Y-3177133D01*
X1517142Y-3179572D01*
X1512824Y-3181604D01*
X1508252Y-3183331D01*
X1503426Y-3184702D01*
X1498447Y-3185668D01*
X1493266Y-3186226D01*
X1487982Y-3186328D01*
X1482496Y-3185972D01*
X1476908Y-3185160D01*
X1471015Y-3183737D01*
X1465427Y-3181756D01*
X1460246Y-3179216D01*
X1455470Y-3176168D01*
X1451152Y-3172663D01*
X1447292Y-3168700D01*
X1443990Y-3164382D01*
X1441145Y-3159709D01*
X1438910Y-3154680D01*
X1437284Y-3149396D01*
X1436319Y-3143859D01*
X1435963Y-3138119D01*
X1348269Y-3138119D01*
X1348486Y-3148380D01*
X1349044Y-3153664D01*
X1349959Y-3158947D01*
X1351229Y-3164332D01*
X1352804Y-3169666D01*
X1354734Y-3175050D01*
X1359458Y-3185718D01*
X1365351Y-3196234D01*
X1368704Y-3201365D01*
X1376121Y-3211322D01*
X1384452Y-3220821D01*
X1393596Y-3229660D01*
X1403451Y-3237738D01*
X1408582Y-3241446D01*
X1413916Y-3244951D01*
X1419352Y-3248202D01*
X1424940Y-3251149D01*
X1430629Y-3253841D01*
X1436370Y-3256229D01*
X1442262Y-3258210D01*
X1448409Y-3259836D01*
X1454962Y-3261106D01*
X1462125Y-3262071D01*
X1469999Y-3262782D01*
X1478788Y-3263239D01*
X1525879Y-3263798D01*
X1556105Y-3249574D01*
X1561388Y-3246577D01*
X1572006Y-3239668D01*
X1577289Y-3235807D01*
X1587500Y-3227425D01*
X1592427Y-3223056D01*
X1601470Y-3214014D01*
X1605584Y-3209442D01*
X1612646Y-3200450D01*
X1615541Y-3196132D01*
X1617980Y-3191916D01*
X1622958Y-3182112D01*
X1626920Y-3177641D01*
X1631746Y-3174441D01*
X1637436Y-3172561D01*
X1647748Y-3169920D01*
X1658670Y-3165957D01*
X1670100Y-3160877D01*
X1681784Y-3154730D01*
X1693519Y-3147771D01*
X1705152Y-3140049D01*
X1716430Y-3131718D01*
X1727200Y-3122930D01*
X1737258Y-3113786D01*
X1746453Y-3104489D01*
X1754530Y-3095091D01*
X1758086Y-3090418D01*
X1764741Y-3080410D01*
X1771091Y-3069590D01*
X1776730Y-3058566D01*
X1781657Y-3047492D01*
X1785924Y-3036316D01*
X1789480Y-3025038D01*
X1792325Y-3013760D01*
X1794510Y-3002432D01*
X1795983Y-2991053D01*
X1796796Y-2979724D01*
X1796897Y-2968447D01*
X1796338Y-2957169D01*
X1795068Y-2945993D01*
X1793138Y-2934868D01*
X1790547Y-2923895D01*
X1787245Y-2913024D01*
X1783334Y-2902254D01*
X1778711Y-2891688D01*
X1773428Y-2881325D01*
X1767433Y-2871165D01*
X1760829Y-2861208D01*
X1753565Y-2851454D01*
X1745640Y-2842006D01*
X1737004Y-2832811D01*
X1726590Y-2822905D01*
X1720138Y-2817317D01*
X1706524Y-2806547D01*
X1693316Y-2797200D01*
X1687372Y-2793492D01*
X1682140Y-2790545D01*
X1671878Y-2785770D01*
X1660652Y-2781249D01*
X1648714Y-2777134D01*
X1636268Y-2773324D01*
X1623466Y-2770022D01*
X1610563Y-2767177D01*
X1597812Y-2764891D01*
X1585315Y-2763215D01*
X1573326Y-2762148D01*
X1562100Y-2761792D01*
X1531772Y-2761792D01*
X1508506Y-2738628D01*
X1499920Y-2730804D01*
X1490929Y-2723286D01*
X1481480Y-2716072D01*
X1471726Y-2709214D01*
X1461566Y-2702712D01*
X1451051Y-2696514D01*
X1440230Y-2690723D01*
X1429156Y-2685288D01*
X1417828Y-2680309D01*
X1406245Y-2675686D01*
X1394409Y-2671521D01*
X1382471Y-2667762D01*
X1370330Y-2664510D01*
X1359662Y-2662072D01*
X1349502Y-2660446D01*
X1338021Y-2659278D01*
X1325321Y-2658465D01*
G37*
G36*
X1225956Y-3349498D02*
G01*
X1199794Y-3349802D01*
X1190345Y-3350209D01*
X1182979Y-3350869D01*
X1177340Y-3351784D01*
X1173175Y-3353003D01*
X1170228Y-3354527D01*
X1168095Y-3356457D01*
X1165707Y-3360064D01*
X1164691Y-3363468D01*
X1165148Y-3366922D01*
X1166926Y-3370681D01*
X1168552Y-3372662D01*
X1170889Y-3374288D01*
X1174038Y-3375660D01*
X1178204Y-3376777D01*
X1183589Y-3377641D01*
X1190244Y-3378352D01*
X1223670Y-3380181D01*
X1235913Y-3381654D01*
X1240637Y-3382568D01*
X1244295Y-3383584D01*
X1246835Y-3384702D01*
X1248257Y-3385870D01*
X1249578Y-3389223D01*
X1250645Y-3394456D01*
X1251407Y-3400806D01*
X1251661Y-3407613D01*
X1251762Y-3424072D01*
X1182166Y-3424072D01*
X1179322Y-3433064D01*
X1178306Y-3436924D01*
X1178001Y-3440379D01*
X1178458Y-3443427D01*
X1179626Y-3446018D01*
X1181608Y-3448253D01*
X1184452Y-3450082D01*
X1188212Y-3451606D01*
X1192885Y-3452825D01*
X1198524Y-3453688D01*
X1205179Y-3454298D01*
X1212900Y-3454654D01*
X1237691Y-3454806D01*
X1243584Y-3455111D01*
X1248257Y-3455670D01*
X1251966Y-3456686D01*
X1254810Y-3458311D01*
X1256893Y-3460597D01*
X1258468Y-3463645D01*
X1259636Y-3467709D01*
X1260551Y-3472738D01*
X1264716Y-3507384D01*
X1230630Y-3507384D01*
X1220673Y-3507587D01*
X1211935Y-3508248D01*
X1204417Y-3509264D01*
X1198067Y-3510686D01*
X1192987Y-3512515D01*
X1189177Y-3514750D01*
X1186586Y-3517341D01*
X1185265Y-3520287D01*
X1185214Y-3523589D01*
X1186484Y-3527247D01*
X1189024Y-3531260D01*
X1192834Y-3535578D01*
X1195222Y-3537458D01*
X1198473Y-3538982D01*
X1202791Y-3540150D01*
X1208532Y-3541064D01*
X1215796Y-3541725D01*
X1224991Y-3542182D01*
X1249883Y-3542487D01*
X1299972Y-3542487D01*
X1299921Y-3533597D01*
X1298651Y-3521049D01*
X1292301Y-3468878D01*
X1283868Y-3403498D01*
X1278585Y-3360369D01*
X1278077Y-3354984D01*
X1277416Y-3353562D01*
X1275384Y-3352393D01*
X1271778Y-3351479D01*
X1266545Y-3350717D01*
X1259484Y-3350158D01*
X1239316Y-3349548D01*
G37*
G36*
X888339Y-3349498D02*
G01*
X880973Y-3384753D01*
X877265Y-3399840D01*
X876096Y-3403041D01*
X876096Y-3405378D01*
X878382Y-3407918D01*
X882446Y-3410458D01*
X887831Y-3412744D01*
X893978Y-3414725D01*
X900480Y-3416096D01*
X906830Y-3416757D01*
X919022Y-3416249D01*
X925068Y-3417366D01*
X930554Y-3419754D01*
X935329Y-3423310D01*
X939241Y-3427882D01*
X942187Y-3433419D01*
X944067Y-3439718D01*
X944727Y-3446729D01*
X944219Y-3453384D01*
X942695Y-3459327D01*
X940257Y-3464458D01*
X936904Y-3468725D01*
X932738Y-3472129D01*
X927709Y-3474618D01*
X921918Y-3476193D01*
X915365Y-3476701D01*
X907542Y-3476091D01*
X901700Y-3473856D01*
X896772Y-3469284D01*
X891743Y-3461715D01*
X885342Y-3452774D01*
X878281Y-3445865D01*
X871982Y-3442106D01*
X867918Y-3442614D01*
X864006Y-3457397D01*
X855980Y-3491280D01*
X851204Y-3512870D01*
X849630Y-3520998D01*
X848715Y-3527602D01*
X848360Y-3532784D01*
X848715Y-3536696D01*
X849782Y-3539490D01*
X851560Y-3541268D01*
X854100Y-3542284D01*
X857453Y-3542588D01*
X861568Y-3542334D01*
X866546Y-3541725D01*
X871829Y-3540150D01*
X875537Y-3536543D01*
X878332Y-3529939D01*
X880770Y-3519474D01*
X884783Y-3498596D01*
X957224Y-3498596D01*
X977646Y-3540302D01*
X1000455Y-3541979D01*
X1005687Y-3541877D01*
X1009243Y-3541420D01*
X1010513Y-3540556D01*
X1006805Y-3532174D01*
X981710Y-3480663D01*
X916330Y-3349498D01*
G37*
G36*
X1114298Y-3349599D02*
G01*
X1094689Y-3350260D01*
X1077722Y-3351529D01*
X1070254Y-3352444D01*
X1063396Y-3353612D01*
X1057148Y-3355035D01*
X1051407Y-3356711D01*
X1046175Y-3358794D01*
X1041349Y-3361131D01*
X1036878Y-3363925D01*
X1032764Y-3367074D01*
X1028953Y-3370630D01*
X1025347Y-3374694D01*
X1021943Y-3379215D01*
X1018641Y-3384245D01*
X1015492Y-3389782D01*
X1000556Y-3419957D01*
X1002042Y-3438194D01*
X1030884Y-3438194D01*
X1038453Y-3418332D01*
X1042263Y-3410051D01*
X1046886Y-3402279D01*
X1051864Y-3395827D01*
X1056487Y-3391611D01*
X1061923Y-3388766D01*
X1068933Y-3385972D01*
X1076655Y-3383635D01*
X1084173Y-3382010D01*
X1101445Y-3379266D01*
X1104747Y-3397808D01*
X1108405Y-3424580D01*
X1112570Y-3458921D01*
X1116533Y-3488537D01*
X1118108Y-3497783D01*
X1121105Y-3508501D01*
X1086358Y-3505911D01*
X1079855Y-3505098D01*
X1074420Y-3503980D01*
X1069746Y-3502609D01*
X1065682Y-3500729D01*
X1061923Y-3498392D01*
X1058214Y-3495395D01*
X1054354Y-3491737D01*
X1051712Y-3488740D01*
X1049020Y-3485134D01*
X1046327Y-3481070D01*
X1043787Y-3476701D01*
X1039368Y-3467455D01*
X1037590Y-3462883D01*
X1036269Y-3458514D01*
X1030884Y-3438194D01*
X1002042Y-3438194D01*
X1003604Y-3455212D01*
X1004824Y-3462782D01*
X1006398Y-3470097D01*
X1008329Y-3477158D01*
X1010666Y-3483864D01*
X1013307Y-3490264D01*
X1016304Y-3496360D01*
X1019606Y-3502101D01*
X1023213Y-3507486D01*
X1027125Y-3512515D01*
X1031341Y-3517137D01*
X1035862Y-3521354D01*
X1040637Y-3525113D01*
X1045718Y-3528466D01*
X1051001Y-3531362D01*
X1056589Y-3533800D01*
X1060754Y-3535121D01*
X1066190Y-3536391D01*
X1079906Y-3538524D01*
X1096060Y-3540251D01*
X1112977Y-3541420D01*
X1128979Y-3541928D01*
X1142492Y-3541725D01*
X1147775Y-3541369D01*
X1151788Y-3540760D01*
X1154328Y-3539947D01*
X1155242Y-3538880D01*
X1152042Y-3510076D01*
X1136548Y-3384956D01*
X1134211Y-3364331D01*
X1133348Y-3354984D01*
X1132992Y-3353155D01*
X1131824Y-3351733D01*
X1129588Y-3350666D01*
X1126083Y-3350006D01*
X1121054Y-3349650D01*
G37*
G36*
X1789582Y-3350158D02*
G01*
X1763877Y-3350463D01*
X1710080Y-3351682D01*
X1710080Y-3377996D01*
X1788972Y-3382416D01*
X1792884Y-3401263D01*
X1794662Y-3412236D01*
X1795627Y-3423716D01*
X1723237Y-3426256D01*
X1723237Y-3452571D01*
X1798980Y-3455111D01*
X1802739Y-3474872D01*
X1803603Y-3481832D01*
X1804162Y-3488690D01*
X1804365Y-3494633D01*
X1804365Y-3507028D01*
X1732025Y-3509568D01*
X1730552Y-3519678D01*
X1730095Y-3524300D01*
X1730248Y-3528263D01*
X1731060Y-3531615D01*
X1732686Y-3534410D01*
X1735328Y-3536696D01*
X1739036Y-3538524D01*
X1744014Y-3539947D01*
X1750314Y-3541014D01*
X1758137Y-3541725D01*
X1767586Y-3542182D01*
X1791817Y-3542487D01*
X1844039Y-3542487D01*
X1841703Y-3531209D01*
X1839823Y-3518103D01*
X1833372Y-3466084D01*
X1824380Y-3390950D01*
X1820773Y-3363417D01*
X1819402Y-3354832D01*
X1818284Y-3353409D01*
X1815896Y-3352241D01*
X1812036Y-3351326D01*
X1806448Y-3350717D01*
X1799031Y-3350310D01*
G37*
G36*
X1502714Y-3393643D02*
G01*
X1500124Y-3393897D01*
X1495958Y-3395319D01*
X1490827Y-3397554D01*
X1485138Y-3400399D01*
X1474216Y-3406800D01*
X1469999Y-3409848D01*
X1467256Y-3412388D01*
X1461211Y-3419652D01*
X1475841Y-3441903D01*
X1486865Y-3433216D01*
X1495298Y-3428390D01*
X1502918Y-3427069D01*
X1508404Y-3429152D01*
X1510538Y-3434587D01*
X1508810Y-3438245D01*
X1504086Y-3444341D01*
X1497126Y-3452063D01*
X1488592Y-3460496D01*
X1466646Y-3481171D01*
X1466646Y-3498342D01*
X1467307Y-3506876D01*
X1469339Y-3514648D01*
X1472895Y-3521913D01*
X1478026Y-3528974D01*
X1489354Y-3542487D01*
X1516837Y-3542385D01*
X1522069Y-3541979D01*
X1526641Y-3541217D01*
X1530756Y-3540048D01*
X1534566Y-3538474D01*
X1538224Y-3536340D01*
X1541932Y-3533648D01*
X1545894Y-3530346D01*
X1559458Y-3518204D01*
X1540154Y-3493719D01*
X1530146Y-3503117D01*
X1525524Y-3506673D01*
X1520545Y-3509162D01*
X1515465Y-3510534D01*
X1510588Y-3510889D01*
X1506169Y-3510178D01*
X1502460Y-3508400D01*
X1499666Y-3505606D01*
X1498142Y-3501796D01*
X1499006Y-3497173D01*
X1502918Y-3490772D01*
X1509623Y-3483000D01*
X1518970Y-3473958D01*
X1541221Y-3453942D01*
X1541221Y-3435299D01*
X1540916Y-3428339D01*
X1539849Y-3422243D01*
X1538071Y-3416960D01*
X1535430Y-3412286D01*
X1531823Y-3408222D01*
X1527251Y-3404565D01*
X1521612Y-3401314D01*
X1510487Y-3396538D01*
G37*
G36*
X1640839Y-3395979D02*
G01*
X1634744Y-3396437D01*
X1628749Y-3397758D01*
X1622907Y-3399942D01*
X1617167Y-3403041D01*
X1606194Y-3410712D01*
X1600098Y-3414369D01*
X1593900Y-3417722D01*
X1588363Y-3420211D01*
X1576324Y-3424936D01*
X1576425Y-3446627D01*
X1577572Y-3463798D01*
X1606651Y-3463798D01*
X1606905Y-3458210D01*
X1607718Y-3452825D01*
X1609090Y-3447643D01*
X1611122Y-3442715D01*
X1613814Y-3438194D01*
X1617878Y-3433673D01*
X1622755Y-3430676D01*
X1628952Y-3429050D01*
X1636877Y-3428593D01*
X1643989Y-3428898D01*
X1650187Y-3429762D01*
X1655622Y-3431286D01*
X1660398Y-3433470D01*
X1664563Y-3436416D01*
X1668322Y-3440176D01*
X1671777Y-3444798D01*
X1674977Y-3450386D01*
X1677466Y-3455720D01*
X1679295Y-3461054D01*
X1680565Y-3466337D01*
X1681276Y-3471519D01*
X1681429Y-3476599D01*
X1681073Y-3481476D01*
X1680260Y-3486200D01*
X1678939Y-3490671D01*
X1677212Y-3494836D01*
X1675079Y-3498697D01*
X1672539Y-3502202D01*
X1669643Y-3505352D01*
X1666341Y-3508044D01*
X1662785Y-3510279D01*
X1658924Y-3512007D01*
X1654759Y-3513226D01*
X1650339Y-3513836D01*
X1645716Y-3513886D01*
X1640890Y-3513226D01*
X1635912Y-3511905D01*
X1631238Y-3509924D01*
X1626971Y-3507282D01*
X1623009Y-3503929D01*
X1619402Y-3500069D01*
X1616202Y-3495700D01*
X1613458Y-3490925D01*
X1611122Y-3485845D01*
X1609242Y-3480511D01*
X1607870Y-3475024D01*
X1607007Y-3469386D01*
X1606651Y-3463798D01*
X1577572Y-3463798D01*
X1580337Y-3492093D01*
X1586382Y-3541725D01*
X1593392Y-3539236D01*
X1596644Y-3537813D01*
X1600352Y-3535781D01*
X1604010Y-3533444D01*
X1607159Y-3531006D01*
X1611071Y-3528415D01*
X1615084Y-3527958D01*
X1620012Y-3529736D01*
X1631137Y-3536289D01*
X1635810Y-3538270D01*
X1640839Y-3539896D01*
X1646072Y-3541064D01*
X1651457Y-3541826D01*
X1656943Y-3542182D01*
X1662328Y-3542131D01*
X1667611Y-3541623D01*
X1672691Y-3540709D01*
X1677365Y-3539337D01*
X1681683Y-3537559D01*
X1685442Y-3535324D01*
X1688846Y-3532530D01*
X1692148Y-3528974D01*
X1695399Y-3524808D01*
X1698447Y-3520084D01*
X1701292Y-3514953D01*
X1703882Y-3509416D01*
X1706219Y-3503676D01*
X1708200Y-3497783D01*
X1709826Y-3491788D01*
X1711045Y-3485845D01*
X1711807Y-3480054D01*
X1712061Y-3474516D01*
X1711858Y-3469284D01*
X1711147Y-3463798D01*
X1709978Y-3458159D01*
X1708505Y-3452418D01*
X1706625Y-3446678D01*
X1704441Y-3440988D01*
X1702003Y-3435502D01*
X1699310Y-3430270D01*
X1696415Y-3425393D01*
X1693316Y-3420973D01*
X1690166Y-3417062D01*
X1686864Y-3413760D01*
X1681988Y-3410153D01*
X1675536Y-3406343D01*
X1668221Y-3402736D01*
X1661007Y-3399840D01*
X1653946Y-3397707D01*
X1647240Y-3396386D01*
G37*
G36*
X1318564Y-3398265D02*
G01*
X1313484Y-3398469D01*
X1310030Y-3399078D01*
X1308760Y-3400044D01*
X1311198Y-3405428D01*
X1328166Y-3438550D01*
X1355496Y-3490518D01*
X1400962Y-3575354D01*
X1405229Y-3581857D01*
X1409954Y-3586124D01*
X1416050Y-3588613D01*
X1424228Y-3589883D01*
X1430477Y-3590239D01*
X1435608Y-3590239D01*
X1439062Y-3589832D01*
X1440332Y-3589121D01*
X1438960Y-3585768D01*
X1429664Y-3567429D01*
X1405483Y-3522370D01*
X1429562Y-3443020D01*
X1436573Y-3418332D01*
X1440078Y-3404260D01*
X1440230Y-3402939D01*
X1439418Y-3400501D01*
X1436827Y-3398977D01*
X1432458Y-3398316D01*
X1426260Y-3398570D01*
X1412240Y-3399942D01*
X1397101Y-3449116D01*
X1392224Y-3463391D01*
X1388110Y-3473754D01*
X1386484Y-3477107D01*
X1385265Y-3478987D01*
X1384503Y-3479342D01*
X1381861Y-3475278D01*
X1369517Y-3453434D01*
X1340764Y-3399942D01*
X1324762Y-3398570D01*
G37*
G36*
X916990Y-3432403D02*
G01*
X910590Y-3438753D01*
X907186Y-3444240D01*
X907186Y-3449421D01*
X910336Y-3453231D01*
X916228Y-3454755D01*
X921918Y-3453333D01*
X925068Y-3449675D01*
X925372Y-3444595D01*
X922477Y-3439007D01*
G37*
G36*
X7966608Y-3773627D02*
G01*
X7867396Y-3788511D01*
X7801609Y-3814724D01*
X7731506Y-3860698D01*
X7672019Y-3923080D01*
X7635392Y-3985564D01*
X7609230Y-4059682D01*
X7609324Y-4122978D01*
X7727645Y-4122978D01*
X7743393Y-4046118D01*
X7775600Y-3991711D01*
X7824571Y-3944061D01*
X7857439Y-3927551D01*
X7871104Y-3921556D01*
X7885582Y-3915714D01*
X7899146Y-3910888D01*
X7931658Y-3901135D01*
X8020456Y-3901795D01*
X8073136Y-3915918D01*
X8142681Y-3952290D01*
X8213242Y-4022598D01*
X8282381Y-4122115D01*
X8429498Y-4122115D01*
X8469579Y-4064558D01*
X8480501Y-4049674D01*
X8498687Y-4025900D01*
X8511235Y-4010406D01*
X8538006Y-3979367D01*
X8603284Y-3930650D01*
X8671864Y-3904691D01*
X8779611Y-3901186D01*
X8811869Y-3910329D01*
X8825484Y-3915206D01*
X8840114Y-3921150D01*
X8853982Y-3927500D01*
X8887714Y-3945331D01*
X8913926Y-3970731D01*
X8923426Y-3980687D01*
X8932113Y-3990644D01*
X8939936Y-4000601D01*
X8946946Y-4010710D01*
X8953246Y-4020972D01*
X8958834Y-4031487D01*
X8963710Y-4042359D01*
X8967978Y-4053636D01*
X8971635Y-4065422D01*
X8974734Y-4077715D01*
X8977376Y-4090720D01*
X8983726Y-4131208D01*
X8972448Y-4195775D01*
X8947505Y-4248302D01*
X8890101Y-4309414D01*
X8832697Y-4339894D01*
X8775090Y-4354830D01*
X8681669Y-4354728D01*
X8650833Y-4346397D01*
X8637930Y-4341926D01*
X8617305Y-4333341D01*
X8605215Y-4327347D01*
X8579256Y-4313377D01*
X8510168Y-4245051D01*
X8468106Y-4182719D01*
X8452815Y-4159605D01*
X8441842Y-4142486D01*
X8429498Y-4122115D01*
X8282381Y-4122115D01*
X8261146Y-4156760D01*
X8249920Y-4173931D01*
X8238286Y-4191050D01*
X8222335Y-4213453D01*
X8210143Y-4229709D01*
X8193938Y-4250232D01*
X8165896Y-4284624D01*
X8133791Y-4308957D01*
X8122615Y-4316933D01*
X8112099Y-4323791D01*
X8102041Y-4329734D01*
X8092084Y-4334865D01*
X8082025Y-4339285D01*
X8071612Y-4343146D01*
X8060588Y-4346600D01*
X8030260Y-4354728D01*
X7936788Y-4354830D01*
X7879232Y-4339894D01*
X7821930Y-4309465D01*
X7769199Y-4256582D01*
X7738922Y-4195267D01*
X7727645Y-4122978D01*
X7609324Y-4122978D01*
X7609433Y-4196283D01*
X7634935Y-4271822D01*
X7679893Y-4343654D01*
X7751673Y-4410964D01*
X7784185Y-4430064D01*
X7793736Y-4435246D01*
X7803692Y-4440224D01*
X7814056Y-4445050D01*
X7824774Y-4449572D01*
X7835747Y-4453890D01*
X7846923Y-4457954D01*
X7858302Y-4461713D01*
X7869783Y-4465167D01*
X7881366Y-4468317D01*
X7892948Y-4471162D01*
X7904530Y-4473600D01*
X7946999Y-4481322D01*
X8015579Y-4481322D01*
X8089341Y-4468215D01*
X8165185Y-4437989D01*
X8226145Y-4397197D01*
X8294725Y-4327347D01*
X8330082Y-4276801D01*
X8340953Y-4261713D01*
X8349538Y-4250232D01*
X8354872Y-4243781D01*
X8355939Y-4242917D01*
X8358073Y-4244644D01*
X8361984Y-4249521D01*
X8367166Y-4256836D01*
X8376005Y-4270298D01*
X8382863Y-4280204D01*
X8390940Y-4291126D01*
X8409584Y-4314799D01*
X8430006Y-4339031D01*
X8450122Y-4361484D01*
X8459470Y-4371289D01*
X8471916Y-4383481D01*
X8478774Y-4389424D01*
X8489289Y-4397654D01*
X8501989Y-4407052D01*
X8515248Y-4416450D01*
X8527440Y-4424730D01*
X8554415Y-4442460D01*
X8635644Y-4472025D01*
X8727440Y-4483557D01*
X8824671Y-4472178D01*
X8903665Y-4444339D01*
X8960256Y-4410964D01*
X9032036Y-4343654D01*
X9075267Y-4274362D01*
X9101836Y-4196283D01*
X9106611Y-4096308D01*
X9099397Y-4059682D01*
X9096502Y-4047439D01*
X9093200Y-4035348D01*
X9089491Y-4023360D01*
X9085326Y-4011574D01*
X9080703Y-3999890D01*
X9075674Y-3988409D01*
X9070238Y-3977081D01*
X9064396Y-3965905D01*
X9058148Y-3954983D01*
X9051493Y-3944264D01*
X9044482Y-3933748D01*
X9037015Y-3923487D01*
X9029242Y-3913479D01*
X9021064Y-3903726D01*
X9012529Y-3894226D01*
X8980424Y-3860952D01*
X8910269Y-3814724D01*
X8844026Y-3788308D01*
X8792514Y-3780282D01*
X8776360Y-3777945D01*
X8763101Y-3776319D01*
X8751722Y-3775354D01*
X8741105Y-3775151D01*
X8730081Y-3775557D01*
X8717635Y-3776573D01*
X8652256Y-3784295D01*
X8612479Y-3796131D01*
X8601303Y-3799789D01*
X8590280Y-3803802D01*
X8579408Y-3808171D01*
X8568690Y-3812844D01*
X8558072Y-3817924D01*
X8547506Y-3823360D01*
X8536990Y-3829202D01*
X8526475Y-3835450D01*
X8515959Y-3842156D01*
X8505393Y-3849268D01*
X8494776Y-3856837D01*
X8453932Y-3887368D01*
X8425484Y-3919016D01*
X8409178Y-3938219D01*
X8392312Y-3959098D01*
X8368436Y-3990136D01*
X8361476Y-3998366D01*
X8356904Y-4002989D01*
X8355838Y-4003598D01*
X8354517Y-4002735D01*
X8348522Y-3996182D01*
X8338921Y-3984548D01*
X8326881Y-3969105D01*
X8287969Y-3917289D01*
X8254542Y-3886911D01*
X8243671Y-3877462D01*
X8232851Y-3868572D01*
X8222081Y-3860190D01*
X8211261Y-3852265D01*
X8200390Y-3844798D01*
X8189417Y-3837787D01*
X8178342Y-3831132D01*
X8167065Y-3824935D01*
X8155584Y-3819093D01*
X8143900Y-3813556D01*
X8131911Y-3808374D01*
X8119567Y-3803497D01*
X8106918Y-3798925D01*
X8064550Y-3784803D01*
G37*
G36*
X7631074Y-3803599D02*
G01*
X7632090Y-3840175D01*
X7638999Y-3815791D01*
X7645958Y-3840175D01*
X7656728Y-3821937D01*
X7665212Y-3835298D01*
X7665364Y-3808476D01*
X7680045Y-3808476D01*
X7681518Y-3840175D01*
X7685836Y-3810914D01*
X7697216Y-3803751D01*
X7655763Y-3803599D01*
X7649006Y-3830320D01*
X7640066Y-3803599D01*
G37*
G36*
X7949438Y-4013352D02*
G01*
X7949438Y-4081627D01*
X7880858Y-4081627D01*
X7880858Y-4154830D01*
X7949438Y-4154830D01*
X7949438Y-4223105D01*
X8027365Y-4223105D01*
X8030260Y-4157268D01*
X8096351Y-4154373D01*
X8096351Y-4082084D01*
X8030260Y-4079189D01*
X8027365Y-4013352D01*
G37*
G36*
X8620455Y-4081627D02*
G01*
X8620455Y-4154830D01*
X8840825Y-4154830D01*
X8840825Y-4081627D01*
G37*
G36*
X7704429Y-4542485D02*
G01*
X7699654Y-4542586D01*
X7689138Y-4544669D01*
X7655864Y-4550359D01*
X7622336Y-4581855D01*
X7606588Y-4634687D01*
X7606588Y-4664405D01*
X7655814Y-4664405D01*
X7655915Y-4656632D01*
X7656880Y-4641291D01*
X7658709Y-4626864D01*
X7661757Y-4608576D01*
X7684516Y-4584141D01*
X7721955Y-4584141D01*
X7742986Y-4598771D01*
X7755178Y-4635347D01*
X7754061Y-4699152D01*
X7748574Y-4713579D01*
X7745831Y-4719878D01*
X7742377Y-4726279D01*
X7738719Y-4732121D01*
X7735265Y-4736541D01*
X7727543Y-4745126D01*
X7687157Y-4745126D01*
X7665770Y-4730191D01*
X7660690Y-4712055D01*
X7659370Y-4706620D01*
X7658252Y-4700574D01*
X7657338Y-4694021D01*
X7656626Y-4687011D01*
X7655864Y-4672126D01*
X7655814Y-4664405D01*
X7606588Y-4664405D01*
X7606588Y-4689703D01*
X7621524Y-4739792D01*
X7634224Y-4754829D01*
X7640370Y-4761280D01*
X7647736Y-4767783D01*
X7655306Y-4773574D01*
X7662265Y-4777841D01*
X7677607Y-4785817D01*
X7736382Y-4785817D01*
X7755991Y-4775403D01*
X7760665Y-4772355D01*
X7765084Y-4769104D01*
X7769352Y-4765598D01*
X7773365Y-4761839D01*
X7777124Y-4757826D01*
X7780731Y-4753559D01*
X7784084Y-4749038D01*
X7787233Y-4744262D01*
X7790180Y-4739182D01*
X7792872Y-4733899D01*
X7803388Y-4709210D01*
X7803642Y-4635347D01*
X7792059Y-4592777D01*
X7755585Y-4553864D01*
X7731302Y-4547412D01*
X7721295Y-4545025D01*
X7711998Y-4543348D01*
G37*
G36*
X8850630Y-4543856D02*
G01*
X8740444Y-4548225D01*
X8704986Y-4565142D01*
X8687511Y-4597349D01*
X8691640Y-4628032D01*
X8738006Y-4628032D01*
X8738006Y-4605477D01*
X8751214Y-4587494D01*
X8806535Y-4582922D01*
X8806535Y-4646980D01*
X8796375Y-4653229D01*
X8756548Y-4646523D01*
X8738006Y-4628032D01*
X8691640Y-4628032D01*
X8693099Y-4638852D01*
X8720226Y-4667046D01*
X8726678Y-4667046D01*
X8731300Y-4667910D01*
X8732774Y-4670552D01*
X8731148Y-4675022D01*
X8724595Y-4683709D01*
X8718905Y-4693056D01*
X8702192Y-4723434D01*
X8684920Y-4757013D01*
X8678519Y-4770374D01*
X8674811Y-4778959D01*
X8674303Y-4780889D01*
X8674303Y-4784140D01*
X8726881Y-4784140D01*
X8746540Y-4738522D01*
X8753805Y-4723333D01*
X8760815Y-4710176D01*
X8763965Y-4704791D01*
X8766759Y-4700524D01*
X8769045Y-4697526D01*
X8778900Y-4686554D01*
X8806535Y-4686554D01*
X8806535Y-4784140D01*
X8850630Y-4784140D01*
G37*
G36*
X8644940Y-4543856D02*
G01*
X8533333Y-4548124D01*
X8486140Y-4572304D01*
X8461248Y-4620463D01*
X8461289Y-4654854D01*
X8507476Y-4654854D01*
X8520023Y-4607001D01*
X8546541Y-4587392D01*
X8600846Y-4582922D01*
X8600846Y-4745126D01*
X8556294Y-4745126D01*
X8526627Y-4729835D01*
X8518753Y-4710734D01*
X8515959Y-4701844D01*
X8513368Y-4691735D01*
X8511286Y-4681524D01*
X8507476Y-4654854D01*
X8461289Y-4654854D01*
X8461349Y-4703622D01*
X8485733Y-4746701D01*
X8520125Y-4774184D01*
X8572804Y-4784140D01*
X8644940Y-4784140D01*
G37*
G36*
X8949182Y-4545076D02*
G01*
X8926220Y-4620564D01*
X8902201Y-4697526D01*
X8953449Y-4697526D01*
X8954465Y-4692396D01*
X8961475Y-4665065D01*
X8966606Y-4646320D01*
X8971991Y-4627880D01*
X8976918Y-4612741D01*
X8980830Y-4602530D01*
X8982202Y-4599736D01*
X8983167Y-4598771D01*
X8984030Y-4599736D01*
X8987078Y-4606747D01*
X8991346Y-4618939D01*
X8996375Y-4634484D01*
X9001506Y-4651451D01*
X9006179Y-4668062D01*
X9009837Y-4682337D01*
X9011970Y-4692396D01*
X9012275Y-4695291D01*
X9012275Y-4701184D01*
X8953500Y-4701184D01*
X8953449Y-4697526D01*
X8902201Y-4697526D01*
X8893251Y-4726482D01*
X8884564Y-4756708D01*
X8881719Y-4767427D01*
X8880195Y-4774285D01*
X8880043Y-4784140D01*
X8927287Y-4784140D01*
X8941257Y-4737811D01*
X9026550Y-4734966D01*
X9040164Y-4781702D01*
X9085732Y-4784699D01*
X9085630Y-4780838D01*
X9078569Y-4756150D01*
X9062466Y-4703521D01*
X9012580Y-4545076D01*
G37*
G36*
X8385352Y-4545076D02*
G01*
X8385352Y-4726025D01*
X8360105Y-4751171D01*
X8315909Y-4746193D01*
X8304530Y-4734915D01*
X8299653Y-4547514D01*
X8255558Y-4547514D01*
X8252459Y-4698746D01*
X8263280Y-4748530D01*
X8276539Y-4760874D01*
X8282686Y-4766157D01*
X8289544Y-4771440D01*
X8296300Y-4776114D01*
X8302091Y-4779568D01*
X8314334Y-4785969D01*
X8378545Y-4786172D01*
X8411921Y-4766716D01*
X8431885Y-4732934D01*
X8433866Y-4619904D01*
X8433917Y-4589221D01*
X8433511Y-4565954D01*
X8433155Y-4558080D01*
X8432444Y-4552086D01*
X8429752Y-4545076D01*
G37*
G36*
X8052308Y-4545076D02*
G01*
X8052308Y-4584141D01*
X8106156Y-4584141D01*
X8106156Y-4745126D01*
X8052308Y-4745126D01*
X8052308Y-4784140D01*
X8209025Y-4784140D01*
X8209025Y-4745126D01*
X8155127Y-4745126D01*
X8155127Y-4584141D01*
X8209025Y-4584141D01*
X8209025Y-4545076D01*
G37*
G36*
X7827009Y-4545076D02*
G01*
X7827009Y-4784140D01*
X7884159Y-4784140D01*
X7961680Y-4620717D01*
X7964373Y-4784699D01*
X8005775Y-4781702D01*
X8007350Y-4642561D01*
X8007299Y-4588611D01*
X8006943Y-4566716D01*
X8006384Y-4553762D01*
X8006029Y-4551324D01*
X8003641Y-4545076D01*
X7948879Y-4545076D01*
X7871256Y-4713376D01*
X7871104Y-4545076D01*
G37*
G36*
X2882798Y-4107129D02*
G01*
X2856941Y-4151071D01*
X2799334Y-4187799D01*
X2751429Y-4195927D01*
X2703372Y-4182618D01*
X2631236Y-4255109D01*
X2645562Y-4296511D01*
X2637790Y-4353407D01*
X2610866Y-4401515D01*
X2556510Y-4440783D01*
X2556510Y-4485182D01*
X2765907Y-4485182D01*
X2789021Y-4479798D01*
X2800299Y-4476851D01*
X2827223Y-4469028D01*
X2863951Y-4457446D01*
X2905709Y-4420565D01*
X2920898Y-4373473D01*
X2925724Y-4357166D01*
X2929737Y-4342384D01*
X2932480Y-4330903D01*
X2935579Y-4311243D01*
X2944520Y-4346041D01*
X2962452Y-4412437D01*
X3009036Y-4459224D01*
X3086557Y-4480255D01*
X3109722Y-4486249D01*
X3090164Y-4489297D01*
X3078734Y-4492040D01*
X3064002Y-4496104D01*
X3047796Y-4500981D01*
X3000908Y-4516221D01*
X2963621Y-4558893D01*
X2950870Y-4602784D01*
X2942132Y-4630877D01*
X2938729Y-4640884D01*
X2932379Y-4656683D01*
X2931718Y-4637836D01*
X2929991Y-4627473D01*
X2927096Y-4614570D01*
X2923387Y-4600651D01*
X2911094Y-4561128D01*
X2890062Y-4537811D01*
X2881630Y-4529023D01*
X2877718Y-4525314D01*
X2869996Y-4519015D01*
X2866085Y-4516323D01*
X2861919Y-4513834D01*
X2852826Y-4509465D01*
X2841904Y-4505452D01*
X2828544Y-4501438D01*
X2765907Y-4485182D01*
X2556510Y-4485182D01*
X2556510Y-4534458D01*
X2611628Y-4573524D01*
X2645562Y-4636160D01*
X2638958Y-4725771D01*
X2705201Y-4790744D01*
X2757830Y-4777333D01*
X2820517Y-4791862D01*
X2849778Y-4815332D01*
X2854960Y-4820005D01*
X2864967Y-4830114D01*
X2873603Y-4840071D01*
X2877007Y-4844643D01*
X2879699Y-4848707D01*
X2890469Y-4867097D01*
X2981706Y-4867097D01*
X2995269Y-4849825D01*
X3002788Y-4841240D01*
X3012287Y-4831130D01*
X3022600Y-4820615D01*
X3051962Y-4792167D01*
X3096056Y-4777536D01*
X3176117Y-4785055D01*
X3236874Y-4722063D01*
X3229914Y-4630115D01*
X3263442Y-4568748D01*
X3312871Y-4531817D01*
X3312871Y-4430268D01*
X3269691Y-4406900D01*
X3238042Y-4358894D01*
X3225292Y-4301794D01*
X3237230Y-4248505D01*
X3172206Y-4186021D01*
X3063951Y-4185615D01*
X3009696Y-4147413D01*
X2984703Y-4107586D01*
G37*
G36*
X1446885Y-4339031D02*
G01*
X1388160Y-4345127D01*
X1368247Y-4355490D01*
X1362913Y-4358487D01*
X1357426Y-4362094D01*
X1351788Y-4366158D01*
X1346250Y-4370527D01*
X1335735Y-4379874D01*
X1326997Y-4389018D01*
X1323594Y-4393285D01*
X1321003Y-4397095D01*
X1319326Y-4400397D01*
X1318768Y-4403039D01*
X1318768Y-4408220D01*
X1376730Y-4425188D01*
X1408074Y-4396028D01*
X1442212Y-4396028D01*
X1458264Y-4415434D01*
X1451914Y-4421784D01*
X1449882Y-4423257D01*
X1446530Y-4425035D01*
X1442059Y-4427016D01*
X1430375Y-4431334D01*
X1416253Y-4435703D01*
X1403502Y-4439208D01*
X1392631Y-4442510D01*
X1381455Y-4446320D01*
X1370685Y-4450384D01*
X1360830Y-4454448D01*
X1352499Y-4458360D01*
X1326286Y-4472990D01*
X1319377Y-4488180D01*
X1316380Y-4495749D01*
X1314246Y-4502962D01*
X1313129Y-4510024D01*
X1312926Y-4517034D01*
X1313688Y-4524044D01*
X1315415Y-4531258D01*
X1318056Y-4538675D01*
X1321714Y-4546498D01*
X1330960Y-4564430D01*
X1373378Y-4590745D01*
X1428292Y-4598314D01*
X1481226Y-4583988D01*
X1532382Y-4535119D01*
X1528064Y-4512614D01*
X1474368Y-4501946D01*
X1450238Y-4532782D01*
X1416862Y-4541215D01*
X1380693Y-4526178D01*
X1384401Y-4506874D01*
X1441297Y-4488078D01*
X1467866Y-4478426D01*
X1479448Y-4473803D01*
X1489049Y-4469638D01*
X1496110Y-4466183D01*
X1512570Y-4455820D01*
X1525930Y-4415078D01*
X1521612Y-4400854D01*
X1519834Y-4395673D01*
X1517650Y-4390694D01*
X1515059Y-4385970D01*
X1512062Y-4381449D01*
X1508658Y-4377131D01*
X1504848Y-4372965D01*
X1500530Y-4368952D01*
X1495755Y-4365091D01*
X1490573Y-4361383D01*
X1484833Y-4357776D01*
X1478635Y-4354322D01*
X1471879Y-4350918D01*
G37*
G36*
X2097024Y-4339590D02*
G01*
X2035708Y-4345432D01*
X1986737Y-4379518D01*
X1976272Y-4400194D01*
X1972106Y-4410506D01*
X1967839Y-4422749D01*
X1963978Y-4435551D01*
X1955190Y-4470298D01*
X1963318Y-4498492D01*
X2029307Y-4498492D01*
X2029307Y-4438040D01*
X2069084Y-4402328D01*
X2083054Y-4402683D01*
X2088438Y-4403039D01*
X2093671Y-4403750D01*
X2098700Y-4404766D01*
X2103526Y-4406188D01*
X2108200Y-4407966D01*
X2112721Y-4410100D01*
X2117090Y-4412640D01*
X2121306Y-4415536D01*
X2125370Y-4418787D01*
X2129282Y-4422444D01*
X2133092Y-4426458D01*
X2136800Y-4430877D01*
X2150160Y-4447946D01*
X2150160Y-4490059D01*
X2115769Y-4528362D01*
X2070607Y-4535576D01*
X2029307Y-4498492D01*
X1963318Y-4498492D01*
X1976272Y-4543247D01*
X2017674Y-4582464D01*
X2074621Y-4598517D01*
X2117648Y-4590389D01*
X2150160Y-4564684D01*
X2150160Y-4685639D01*
X2212848Y-4681829D01*
X2212644Y-4345787D01*
X2150160Y-4345787D01*
X2150160Y-4372864D01*
X2139086Y-4362805D01*
X2133549Y-4358386D01*
X2126742Y-4353763D01*
X2119426Y-4349496D01*
X2112518Y-4346143D01*
G37*
G36*
X1665935Y-4340199D02*
G01*
X1658924Y-4340656D01*
X1651660Y-4341469D01*
X1644142Y-4342739D01*
X1636318Y-4344416D01*
X1603197Y-4353509D01*
X1551838Y-4405477D01*
X1536446Y-4470704D01*
X1543822Y-4496257D01*
X1609445Y-4496257D01*
X1609445Y-4440275D01*
X1640687Y-4408881D01*
X1678178Y-4401820D01*
X1718157Y-4426813D01*
X1732280Y-4474565D01*
X1719122Y-4509109D01*
X1678178Y-4534712D01*
X1640687Y-4527651D01*
X1609445Y-4496257D01*
X1543822Y-4496257D01*
X1556207Y-4538929D01*
X1605432Y-4583633D01*
X1634489Y-4591608D01*
X1645869Y-4593996D01*
X1657400Y-4595774D01*
X1667662Y-4596790D01*
X1671929Y-4596942D01*
X1690674Y-4596892D01*
X1756206Y-4566259D01*
X1793849Y-4506620D01*
X1793849Y-4433214D01*
X1769110Y-4384548D01*
X1746504Y-4368495D01*
X1736801Y-4362399D01*
X1726184Y-4356354D01*
X1715973Y-4351121D01*
X1711452Y-4349038D01*
X1705152Y-4346498D01*
X1698802Y-4344416D01*
X1692452Y-4342739D01*
X1686001Y-4341469D01*
X1679448Y-4340606D01*
X1672793Y-4340199D01*
G37*
G36*
X2354630Y-4340402D02*
G01*
X2348788Y-4340555D01*
X2342845Y-4341012D01*
X2330602Y-4342892D01*
X2317546Y-4346041D01*
X2294331Y-4352544D01*
X2272233Y-4373473D01*
X2263698Y-4382109D01*
X2256637Y-4390136D01*
X2251913Y-4396689D01*
X2250186Y-4400905D01*
X2250186Y-4407408D01*
X2303932Y-4425797D01*
X2338374Y-4396028D01*
X2352090Y-4396130D01*
X2358136Y-4396587D01*
X2364333Y-4397806D01*
X2370074Y-4399635D01*
X2374544Y-4401769D01*
X2383282Y-4407306D01*
X2375763Y-4426915D01*
X2331923Y-4439158D01*
X2316327Y-4443780D01*
X2290165Y-4452264D01*
X2268524Y-4460544D01*
X2243937Y-4491939D01*
X2243937Y-4539538D01*
X2275535Y-4577283D01*
X2331415Y-4598720D01*
X2389835Y-4590694D01*
X2443886Y-4558842D01*
X2463901Y-4519980D01*
X2455875Y-4515002D01*
X2451100Y-4512767D01*
X2444038Y-4510328D01*
X2435555Y-4507992D01*
X2426716Y-4506061D01*
X2405481Y-4502048D01*
X2373223Y-4534458D01*
X2342997Y-4542078D01*
X2311806Y-4527804D01*
X2315819Y-4507026D01*
X2415184Y-4473702D01*
X2450236Y-4441444D01*
X2450236Y-4389069D01*
X2409596Y-4351680D01*
X2384450Y-4344416D01*
X2378252Y-4342942D01*
X2372258Y-4341825D01*
X2360472Y-4340555D01*
G37*
G36*
X1787601Y-4345787D02*
G01*
X1787601Y-4408576D01*
X1829511Y-4408576D01*
X1861362Y-4438243D01*
X1865985Y-4491177D01*
X1866900Y-4504893D01*
X1867966Y-4532376D01*
X1868068Y-4544720D01*
X1867865Y-4555083D01*
X1865731Y-4587595D01*
X1931365Y-4591405D01*
X1931365Y-4345787D01*
X1868830Y-4345787D01*
X1867916Y-4357116D01*
X1868017Y-4364126D01*
X1868322Y-4366818D01*
X1867357Y-4367834D01*
X1864106Y-4366717D01*
X1858975Y-4363669D01*
X1852574Y-4358944D01*
X1835912Y-4345787D01*
G37*
G36*
X2243937Y-4615840D02*
G01*
X2243937Y-4678680D01*
X2377846Y-4678730D01*
X2413660Y-4679035D01*
X2440178Y-4679492D01*
X2454910Y-4680254D01*
X2459583Y-4681829D01*
X2461564Y-4657598D01*
X2462072Y-4647488D01*
X2461971Y-4637938D01*
X2461361Y-4629962D01*
X2460193Y-4624628D01*
X2456840Y-4615840D01*
G37*
G36*
X1475079Y-4619091D02*
G01*
X1453134Y-4632858D01*
X1440637Y-4627930D01*
X1437386Y-4626965D01*
X1432966Y-4626000D01*
X1421384Y-4624324D01*
X1407363Y-4623155D01*
X1392529Y-4622596D01*
X1356969Y-4622139D01*
X1339088Y-4647793D01*
X1332077Y-4620869D01*
X1320241Y-4628235D01*
X1330401Y-4650130D01*
X1334465Y-4658207D01*
X1338173Y-4664405D01*
X1341526Y-4668774D01*
X1344371Y-4671212D01*
X1346758Y-4671720D01*
X1348486Y-4670196D01*
X1349603Y-4666691D01*
X1350467Y-4656632D01*
X1351889Y-4652060D01*
X1354023Y-4647641D01*
X1356664Y-4643526D01*
X1359814Y-4639970D01*
X1363167Y-4637176D01*
X1366621Y-4635347D01*
X1370025Y-4634687D01*
X1375003Y-4634687D01*
X1375003Y-4672380D01*
X1387500Y-4672380D01*
X1387500Y-4634687D01*
X1424990Y-4634687D01*
X1424990Y-4647285D01*
X1396898Y-4648962D01*
X1424990Y-4654397D01*
X1424990Y-4661916D01*
X1450035Y-4661916D01*
X1450035Y-4642307D01*
X1459890Y-4638548D01*
X1469898Y-4635449D01*
X1477010Y-4635347D01*
X1481937Y-4638395D01*
X1485493Y-4644745D01*
X1488515Y-4652619D01*
X1507032Y-4652619D01*
X1513890Y-4634687D01*
X1522222Y-4634687D01*
X1525778Y-4635246D01*
X1529283Y-4636617D01*
X1532331Y-4638700D01*
X1534566Y-4641240D01*
X1535101Y-4642104D01*
X1549349Y-4642104D01*
X1578152Y-4634128D01*
X1554480Y-4648911D01*
X1549349Y-4642104D01*
X1535101Y-4642104D01*
X1538630Y-4647793D01*
X1523390Y-4666284D01*
X1507032Y-4652619D01*
X1488515Y-4652619D01*
X1489354Y-4654804D01*
X1472336Y-4665421D01*
X1458264Y-4653635D01*
X1450035Y-4661916D01*
X1424990Y-4661916D01*
X1424990Y-4666132D01*
X1397508Y-4666132D01*
X1412189Y-4680864D01*
X1455267Y-4667605D01*
X1468424Y-4680864D01*
X1500378Y-4666234D01*
X1523034Y-4680407D01*
X1546098Y-4667453D01*
X1567789Y-4681067D01*
X1587398Y-4664710D01*
X1580184Y-4652924D01*
X1562557Y-4667656D01*
X1562557Y-4662881D01*
X1563370Y-4660392D01*
X1565605Y-4657242D01*
X1568907Y-4653788D01*
X1572920Y-4650435D01*
X1583334Y-4642815D01*
X1575104Y-4621225D01*
X1554226Y-4625289D01*
X1548841Y-4641443D01*
X1532077Y-4619091D01*
X1496415Y-4632604D01*
G37*
G36*
X1662582Y-4619142D02*
G01*
X1639163Y-4633823D01*
X1625904Y-4620463D01*
X1616100Y-4624273D01*
X1612290Y-4626305D01*
X1609191Y-4629048D01*
X1607058Y-4632096D01*
X1606296Y-4635195D01*
X1606296Y-4642307D01*
X1628190Y-4634534D01*
X1596898Y-4659223D01*
X1604146Y-4666538D01*
X1618792Y-4666538D01*
X1618792Y-4660747D01*
X1620469Y-4657699D01*
X1625041Y-4653686D01*
X1631797Y-4649216D01*
X1640078Y-4644847D01*
X1654708Y-4637989D01*
X1659432Y-4636211D01*
X1662938Y-4635449D01*
X1665681Y-4635703D01*
X1668068Y-4636922D01*
X1670608Y-4639056D01*
X1681022Y-4649470D01*
X1667510Y-4665827D01*
X1643786Y-4653127D01*
X1618792Y-4666538D01*
X1604146Y-4666538D01*
X1618996Y-4681575D01*
X1641500Y-4667453D01*
X1663344Y-4679746D01*
X1673860Y-4675073D01*
X1678584Y-4673346D01*
X1683613Y-4672126D01*
X1688388Y-4671568D01*
X1692249Y-4671669D01*
X1700072Y-4672939D01*
X1700072Y-4634687D01*
X1712569Y-4634687D01*
X1712569Y-4672380D01*
X1725066Y-4672380D01*
X1725066Y-4634687D01*
X1738934Y-4634687D01*
X1731975Y-4652924D01*
X1733159Y-4654397D01*
X1748434Y-4654397D01*
X1752193Y-4644542D01*
X1754174Y-4640732D01*
X1756765Y-4637582D01*
X1759712Y-4635500D01*
X1762607Y-4634687D01*
X1765452Y-4635500D01*
X1768398Y-4637582D01*
X1771121Y-4640986D01*
X1800098Y-4640986D01*
X1800606Y-4638548D01*
X1801926Y-4636566D01*
X1803907Y-4635195D01*
X1806346Y-4634687D01*
X1808784Y-4635195D01*
X1810766Y-4636566D01*
X1812086Y-4638548D01*
X1812594Y-4640986D01*
X1812086Y-4643424D01*
X1810766Y-4645406D01*
X1808784Y-4646777D01*
X1806346Y-4647285D01*
X1803907Y-4646777D01*
X1801926Y-4645406D01*
X1800606Y-4643424D01*
X1800098Y-4640986D01*
X1771121Y-4640986D01*
X1772970Y-4644542D01*
X1776400Y-4653534D01*
X1812594Y-4653534D01*
X1812594Y-4654804D01*
X1835759Y-4654804D01*
X1839620Y-4644745D01*
X1843176Y-4638141D01*
X1847748Y-4635347D01*
X1853996Y-4636262D01*
X1862582Y-4640884D01*
X1871980Y-4646828D01*
X1853234Y-4665675D01*
X1835759Y-4654804D01*
X1812594Y-4654804D01*
X1812594Y-4659833D01*
X1812137Y-4662271D01*
X1810867Y-4664252D01*
X1808988Y-4665624D01*
X1806702Y-4666132D01*
X1804111Y-4665624D01*
X1801418Y-4664252D01*
X1798929Y-4662271D01*
X1796948Y-4659833D01*
X1793087Y-4653534D01*
X1776400Y-4653534D01*
X1776730Y-4654397D01*
X1762607Y-4668621D01*
X1748434Y-4654397D01*
X1733159Y-4654397D01*
X1754835Y-4681372D01*
X1787143Y-4666589D01*
X1790852Y-4672634D01*
X1793290Y-4674971D01*
X1797100Y-4676902D01*
X1801825Y-4678172D01*
X1806905Y-4678680D01*
X1819249Y-4678680D01*
X1826310Y-4660138D01*
X1835505Y-4669434D01*
X1839671Y-4672990D01*
X1843989Y-4675682D01*
X1848307Y-4677460D01*
X1852523Y-4678324D01*
X1856536Y-4678222D01*
X1860194Y-4677206D01*
X1863293Y-4675225D01*
X1865782Y-4672279D01*
X1869693Y-4665929D01*
X1881886Y-4673498D01*
X1902155Y-4656683D01*
X1904746Y-4664557D01*
X1906219Y-4667605D01*
X1908302Y-4670094D01*
X1910689Y-4671771D01*
X1913128Y-4672380D01*
X1918868Y-4672380D01*
X1918868Y-4651451D01*
X1918512Y-4643018D01*
X1917649Y-4635449D01*
X1916328Y-4629607D01*
X1914702Y-4626356D01*
X1911959Y-4624730D01*
X1907590Y-4623358D01*
X1902155Y-4622495D01*
X1896313Y-4622139D01*
X1882089Y-4622139D01*
X1874520Y-4634433D01*
X1850085Y-4619142D01*
X1825333Y-4634687D01*
X1906371Y-4634687D01*
X1906371Y-4647285D01*
X1887626Y-4647285D01*
X1887626Y-4634687D01*
X1825333Y-4634687D01*
X1825091Y-4634839D01*
X1825091Y-4622139D01*
X1794560Y-4622139D01*
X1786483Y-4635296D01*
X1771954Y-4624019D01*
X1694434Y-4622342D01*
X1686966Y-4634433D01*
G37*
G36*
X2032965Y-4619802D02*
G01*
X2024260Y-4647285D01*
X2061921Y-4647285D01*
X2065782Y-4640986D01*
X2067712Y-4638548D01*
X2070201Y-4636566D01*
X2072944Y-4635195D01*
X2075535Y-4634687D01*
X2077770Y-4635195D01*
X2079650Y-4636566D01*
X2080920Y-4638548D01*
X2081377Y-4640986D01*
X2081377Y-4647082D01*
X2090775Y-4647082D01*
X2100122Y-4640986D01*
X2104186Y-4638598D01*
X2108250Y-4636668D01*
X2111857Y-4635296D01*
X2114600Y-4634788D01*
X2119630Y-4634687D01*
X2115769Y-4640986D01*
X2113432Y-4643424D01*
X2109927Y-4645406D01*
X2105761Y-4646726D01*
X2101342Y-4647184D01*
X2081377Y-4647082D01*
X2081377Y-4647285D01*
X2024260Y-4647285D01*
X2023922Y-4648352D01*
X2005685Y-4622139D01*
X1994763Y-4622139D01*
X1989937Y-4622749D01*
X1984857Y-4624374D01*
X1980133Y-4626762D01*
X1976374Y-4629658D01*
X1968855Y-4637227D01*
X1968855Y-4622139D01*
X1938375Y-4622139D01*
X1930603Y-4634687D01*
X1956358Y-4634687D01*
X1956358Y-4647285D01*
X1934464Y-4648708D01*
X1945436Y-4651603D01*
X1949704Y-4653178D01*
X1953158Y-4655413D01*
X1955495Y-4657953D01*
X1956358Y-4660544D01*
X1956358Y-4666640D01*
X1940763Y-4663084D01*
X1937613Y-4675530D01*
X1965756Y-4675530D01*
X1969566Y-4642256D01*
X1982825Y-4638802D01*
X1988362Y-4637684D01*
X1993696Y-4637278D01*
X1998167Y-4637532D01*
X2001215Y-4638548D01*
X2005177Y-4643577D01*
X2006193Y-4650689D01*
X2005472Y-4653534D01*
X2125878Y-4653534D01*
X2122017Y-4659833D01*
X2120087Y-4662271D01*
X2117547Y-4664252D01*
X2114854Y-4665624D01*
X2112264Y-4666132D01*
X2109978Y-4665624D01*
X2108149Y-4664252D01*
X2106879Y-4662271D01*
X2106371Y-4659833D01*
X2106371Y-4653534D01*
X2005472Y-4653534D01*
X2004364Y-4657902D01*
X1999843Y-4663135D01*
X1993341Y-4667199D01*
X1973681Y-4650790D01*
X1978609Y-4675530D01*
X2011476Y-4672685D01*
X2033676Y-4671161D01*
X2061616Y-4669536D01*
X2055622Y-4659833D01*
X2081377Y-4659833D01*
X2081377Y-4671060D01*
X2111654Y-4678680D01*
X2130552Y-4671364D01*
X2130145Y-4651451D01*
X2129790Y-4643424D01*
X2129231Y-4636262D01*
X2128418Y-4630674D01*
X2127504Y-4627575D01*
X2124202Y-4626051D01*
X2116785Y-4624781D01*
X2106422Y-4623917D01*
X2094128Y-4623612D01*
X2062988Y-4623612D01*
X2048510Y-4641138D01*
G37*
G36*
X2418740Y-473659D02*
G01*
X2353818Y-477977D01*
X2313381Y-506780D01*
X2303697Y-525221D01*
X2317699Y-525221D01*
X2341016Y-499414D01*
X2359050Y-499414D01*
X2354986Y-534365D01*
X2331313Y-538835D01*
X2317699Y-525221D01*
X2303697Y-525221D01*
X2292197Y-547217D01*
X2292149Y-561086D01*
X2307183Y-561086D01*
X2307183Y-544830D01*
X2351684Y-552043D01*
X2371699Y-535432D01*
X2367737Y-489813D01*
X2418740Y-485851D01*
X2393238Y-505002D01*
X2407361Y-528066D01*
X2431491Y-528066D01*
X2431084Y-494030D01*
X2441956Y-499872D01*
X2447442Y-503580D01*
X2453487Y-508863D01*
X2459736Y-515315D01*
X2465730Y-522325D01*
X2471064Y-529488D01*
X2475331Y-536194D01*
X2478176Y-542036D01*
X2479141Y-546455D01*
X2479040Y-553567D01*
X2437841Y-572719D01*
X2421128Y-608025D01*
X2429767Y-625348D01*
X2441041Y-625348D01*
X2441041Y-589381D01*
X2455214Y-579424D01*
X2460955Y-575767D01*
X2466492Y-572973D01*
X2471674Y-570992D01*
X2476246Y-569925D01*
X2480106Y-569772D01*
X2483104Y-570534D01*
X2484983Y-572262D01*
X2485694Y-574954D01*
X2485034Y-579780D01*
X2483307Y-586638D01*
X2480767Y-594868D01*
X2477668Y-603758D01*
X2474264Y-612597D01*
X2470810Y-620674D01*
X2467559Y-627329D01*
X2464765Y-631748D01*
X2458466Y-639826D01*
X2441041Y-625348D01*
X2429767Y-625348D01*
X2441549Y-649020D01*
X2430526Y-657098D01*
X2425598Y-660196D01*
X2420264Y-662787D01*
X2415235Y-664514D01*
X2411120Y-665175D01*
X2402789Y-665175D01*
X2402789Y-629462D01*
X2387498Y-614172D01*
X2362200Y-614172D01*
X2331669Y-642823D01*
X2312924Y-617321D01*
X2339035Y-599846D01*
X2339035Y-575614D01*
X2307183Y-561086D01*
X2292149Y-561086D01*
X2292097Y-575919D01*
X2313178Y-575919D01*
X2315819Y-576376D01*
X2318562Y-577748D01*
X2321102Y-579780D01*
X2323134Y-582269D01*
X2327046Y-588670D01*
X2323134Y-595020D01*
X2321102Y-597509D01*
X2318562Y-599541D01*
X2315819Y-600913D01*
X2313178Y-601421D01*
X2307183Y-601421D01*
X2307183Y-575919D01*
X2292097Y-575919D01*
X2291994Y-605586D01*
X2317445Y-649224D01*
X2323282Y-652526D01*
X2344928Y-652526D01*
X2358644Y-626922D01*
X2370074Y-626922D01*
X2374595Y-627430D01*
X2378710Y-628853D01*
X2382367Y-631037D01*
X2385466Y-633831D01*
X2388006Y-637133D01*
X2389886Y-640791D01*
X2391054Y-644601D01*
X2391410Y-648512D01*
X2391003Y-652272D01*
X2389682Y-655828D01*
X2387447Y-658977D01*
X2384196Y-661619D01*
X2378354Y-665226D01*
X2344928Y-652526D01*
X2323282Y-652526D01*
X2367737Y-677722D01*
X2415946Y-677926D01*
X2458008Y-660349D01*
X2471877Y-642772D01*
X2477820Y-633984D01*
X2483764Y-623112D01*
X2489098Y-611479D01*
X2491282Y-605840D01*
X2493060Y-600557D01*
X2500426Y-575919D01*
X2493060Y-551281D01*
X2491282Y-545947D01*
X2489098Y-540308D01*
X2483764Y-528726D01*
X2477820Y-517804D01*
X2474772Y-513080D01*
X2471877Y-509066D01*
X2458059Y-491540D01*
G37*
G36*
X1826818Y-480263D02*
G01*
X1738426Y-508762D01*
X1736226Y-514502D01*
X1774901Y-514502D01*
X1812798Y-501599D01*
X1825040Y-497840D01*
X1835404Y-495096D01*
X1842566Y-493623D01*
X1844598Y-493522D01*
X1859127Y-495655D01*
X1922576Y-506526D01*
X1957374Y-512775D01*
X1984908Y-517956D01*
X1998014Y-520700D01*
X2004415Y-522782D01*
X1940661Y-543864D01*
X1774901Y-514502D01*
X1736226Y-514502D01*
X1732238Y-524916D01*
X1746250Y-524916D01*
X1754479Y-526491D01*
X1768093Y-528421D01*
X1797202Y-532079D01*
X1797202Y-569518D01*
X1746250Y-569518D01*
X1746250Y-524916D01*
X1732238Y-524916D01*
X1726793Y-539292D01*
X1728414Y-635508D01*
X1746250Y-635508D01*
X1746250Y-581355D01*
X1816354Y-590143D01*
X1816354Y-537667D01*
X1950212Y-559409D01*
X1950212Y-703427D01*
X1940966Y-703173D01*
X1927250Y-701294D01*
X1902358Y-697433D01*
X1747824Y-671525D01*
X1747520Y-670610D01*
X1746910Y-663803D01*
X1746250Y-635508D01*
X1728414Y-635508D01*
X1729368Y-690676D01*
X1745437Y-690676D01*
X1769821Y-691438D01*
X1778254Y-692200D01*
X1788769Y-693521D01*
X1813306Y-697382D01*
X1851831Y-704799D01*
X1969312Y-704799D01*
X1969312Y-551738D01*
X1979422Y-547878D01*
X1988261Y-545134D01*
X1992274Y-544322D01*
X1995373Y-544017D01*
X2001215Y-544017D01*
X2001215Y-684276D01*
X2013559Y-684276D01*
X2017166Y-535482D01*
X2033066Y-530199D01*
X2033066Y-684276D01*
X2001215Y-684276D01*
X2001215Y-697026D01*
X1995373Y-697026D01*
X1992274Y-697331D01*
X1983790Y-699414D01*
X1979422Y-700887D01*
X1969312Y-704799D01*
X1852371Y-704900D01*
X1881225Y-709980D01*
X1906828Y-714044D01*
X1947011Y-719328D01*
X1950569Y-762152D01*
X1969312Y-762152D01*
X1969312Y-717753D01*
X1994814Y-712114D01*
X2011781Y-707898D01*
X2033066Y-701903D01*
X2033066Y-741984D01*
X2009343Y-750874D01*
X1992325Y-756208D01*
X1985010Y-758240D01*
X1969312Y-762152D01*
X1950569Y-762152D01*
X1950923Y-766470D01*
X1916023Y-760882D01*
X1865223Y-751992D01*
X1749399Y-731113D01*
X1745437Y-690676D01*
X1729368Y-690676D01*
X1730298Y-744270D01*
X1827123Y-761593D01*
X1826625Y-767181D01*
X1841855Y-767181D01*
X1867306Y-768604D01*
X1884273Y-770534D01*
X1891233Y-771652D01*
X1905609Y-774446D01*
X1905609Y-1117396D01*
X1924710Y-1117396D01*
X1924710Y-804265D01*
X1939036Y-792327D01*
X1945182Y-787654D01*
X1951329Y-783793D01*
X1956714Y-781151D01*
X1960676Y-780135D01*
X1966874Y-779018D01*
X1978202Y-776173D01*
X2010105Y-766927D01*
X2052218Y-753922D01*
X2052320Y-636473D01*
X2091639Y-590499D01*
X2104339Y-576580D01*
X2115108Y-565759D01*
X2119376Y-561898D01*
X2122627Y-559358D01*
X2124710Y-558241D01*
X2131872Y-556514D01*
X2206548Y-632714D01*
X2270861Y-654050D01*
X2410053Y-790956D01*
X2385720Y-797306D01*
X2366342Y-842721D01*
X2383840Y-842721D01*
X2393492Y-824077D01*
X2399893Y-813308D01*
X2405786Y-807110D01*
X2411171Y-805434D01*
X2416962Y-808532D01*
X2421331Y-809498D01*
X2439822Y-812444D01*
X2468676Y-816356D01*
X2504694Y-820775D01*
X2584094Y-829919D01*
X2595016Y-831596D01*
X2602738Y-833272D01*
X2605582Y-834186D01*
X2607767Y-835152D01*
X2609392Y-836168D01*
X2610510Y-837336D01*
X2611120Y-838606D01*
X2611323Y-840079D01*
X2611221Y-841654D01*
X2610104Y-845413D01*
X2606040Y-855878D01*
X2598826Y-876553D01*
X2552496Y-870559D01*
X2522524Y-866190D01*
X2459431Y-856284D01*
X2408275Y-847547D01*
X2383840Y-842721D01*
X2366342Y-842721D01*
X2297633Y-1003757D01*
X2294229Y-698500D01*
X2255113Y-682294D01*
X2208377Y-693826D01*
X2208259Y-704900D01*
X2272131Y-705154D01*
X2257704Y-707898D01*
X2251252Y-708761D01*
X2244293Y-709015D01*
X2237638Y-708710D01*
X2232202Y-707796D01*
X2221128Y-704900D01*
X2208259Y-704900D01*
X2208071Y-722528D01*
X2278481Y-722528D01*
X2277516Y-827735D01*
X2227478Y-827735D01*
X2223820Y-722528D01*
X2208071Y-722528D01*
X2206745Y-846582D01*
X2275890Y-846582D01*
X2272131Y-897890D01*
X2224328Y-901852D01*
X2224328Y-846582D01*
X2206745Y-846582D01*
X2206046Y-913790D01*
X2276246Y-913790D01*
X2272030Y-936142D01*
X2224328Y-940104D01*
X2224328Y-913790D01*
X2206046Y-913790D01*
X2205649Y-952042D01*
X2276094Y-952042D01*
X2272131Y-999896D01*
X2224328Y-1003858D01*
X2224328Y-952042D01*
X2205649Y-952042D01*
X2204988Y-1015796D01*
X2273808Y-1015796D01*
X2278380Y-1033475D01*
X2278888Y-1037082D01*
X2278380Y-1039368D01*
X2276500Y-1040434D01*
X2272995Y-1040384D01*
X2267407Y-1039266D01*
X2224328Y-1026566D01*
X2224328Y-1015796D01*
X2204988Y-1015796D01*
X2204974Y-1017168D01*
X2173478Y-1009243D01*
X2059381Y-1066546D01*
X2058955Y-1071422D01*
X2103221Y-1071422D01*
X2103221Y-1066698D01*
X2103932Y-1065377D01*
X2105964Y-1063548D01*
X2109216Y-1061161D01*
X2118766Y-1055370D01*
X2131364Y-1048715D01*
X2145690Y-1041908D01*
X2159457Y-1036015D01*
X2171090Y-1031646D01*
X2175662Y-1030173D01*
X2179167Y-1029309D01*
X2181453Y-1029055D01*
X2184908Y-1029614D01*
X2189937Y-1030833D01*
X2203348Y-1034897D01*
X2219045Y-1040282D01*
X2234234Y-1045971D01*
X2246274Y-1051001D01*
X2250236Y-1052982D01*
X2252370Y-1054404D01*
X2255824Y-1057960D01*
X2189276Y-1090168D01*
X2103221Y-1071422D01*
X2058955Y-1071422D01*
X2058245Y-1079550D01*
X2070252Y-1079550D01*
X2077415Y-1080516D01*
X2096871Y-1084834D01*
X2168042Y-1101648D01*
X2186076Y-1105306D01*
X2186076Y-1109167D01*
X2202586Y-1109167D01*
X2202586Y-1108100D01*
X2203602Y-1106474D01*
X2205736Y-1104341D01*
X2213203Y-1098651D01*
X2225090Y-1091082D01*
X2245614Y-1079296D01*
X2255672Y-1073861D01*
X2263190Y-1070152D01*
X2268524Y-1068120D01*
X2272030Y-1067714D01*
X2274062Y-1068730D01*
X2275027Y-1071118D01*
X2275179Y-1074775D01*
X2275078Y-1082751D01*
X2269453Y-1085189D01*
X2288082Y-1085189D01*
X2288184Y-1072489D01*
X2289302Y-1068171D01*
X2291384Y-1061567D01*
X2298293Y-1042619D01*
X2308148Y-1017473D01*
X2320290Y-988009D01*
X2334768Y-954125D01*
X2351074Y-917041D01*
X2364536Y-887221D01*
X2373630Y-867968D01*
X2376678Y-862482D01*
X2379218Y-861415D01*
X2383434Y-860907D01*
X2388717Y-860907D01*
X2394407Y-861364D01*
X2399944Y-862126D01*
X2404668Y-863244D01*
X2407920Y-864565D01*
X2409190Y-866038D01*
X2408478Y-868680D01*
X2403551Y-881532D01*
X2394661Y-902614D01*
X2369413Y-960069D01*
X2341168Y-1022096D01*
X2328621Y-1048969D01*
X2318512Y-1069949D01*
X2311958Y-1082598D01*
X2310333Y-1085088D01*
X2306481Y-1089152D01*
X2327706Y-1089152D01*
X2425649Y-872388D01*
X2441295Y-871118D01*
X2448001Y-870915D01*
X2454605Y-871219D01*
X2460345Y-871982D01*
X2464562Y-873099D01*
X2472080Y-876350D01*
X2440127Y-950569D01*
X2428392Y-978560D01*
X2413914Y-1014730D01*
X2396083Y-1058265D01*
X2377643Y-1101902D01*
X2356866Y-1100074D01*
X2348433Y-1099007D01*
X2340914Y-1097432D01*
X2335123Y-1095603D01*
X2331872Y-1093673D01*
X2327706Y-1089152D01*
X2306481Y-1089152D01*
X2302052Y-1093825D01*
X2288082Y-1085189D01*
X2269453Y-1085189D01*
X2231745Y-1101445D01*
X2218283Y-1106525D01*
X2213102Y-1108202D01*
X2208885Y-1109268D01*
X2205736Y-1109776D01*
X2203653Y-1109776D01*
X2202586Y-1109167D01*
X2186076Y-1109167D01*
X2186076Y-1124458D01*
X2152243Y-1115872D01*
X2121103Y-1107389D01*
X2075281Y-1094536D01*
X2070252Y-1079550D01*
X2058245Y-1079550D01*
X2055502Y-1111453D01*
X2071319Y-1111453D01*
X2082495Y-1112113D01*
X2088337Y-1112774D01*
X2095957Y-1114196D01*
X2104440Y-1116126D01*
X2128062Y-1122680D01*
X2153158Y-1129233D01*
X2186076Y-1137462D01*
X2186076Y-1162456D01*
X2197912Y-1162456D01*
X2202027Y-1134668D01*
X2240381Y-1113332D01*
X2252573Y-1106932D01*
X2262581Y-1102055D01*
X2269286Y-1099312D01*
X2270963Y-1098905D01*
X2276195Y-1098702D01*
X2275676Y-1102360D01*
X2398471Y-1102360D01*
X2398826Y-1099007D01*
X2399792Y-1094841D01*
X2401316Y-1089812D01*
X2406142Y-1076655D01*
X2451049Y-965708D01*
X2470658Y-917752D01*
X2481884Y-892708D01*
X2486304Y-883919D01*
X2489555Y-878382D01*
X2490673Y-876960D01*
X2491435Y-876553D01*
X2500325Y-878078D01*
X2516479Y-880211D01*
X2613152Y-880313D01*
X2613812Y-876096D01*
X2615488Y-871067D01*
X2618028Y-865835D01*
X2621127Y-861060D01*
X2629103Y-850442D01*
X2701544Y-973632D01*
X2695092Y-985723D01*
X2692450Y-990244D01*
X2690012Y-993597D01*
X2688082Y-995527D01*
X2686964Y-995629D01*
X2679446Y-985621D01*
X2670657Y-973226D01*
X2651252Y-944473D01*
X2632659Y-915365D01*
X2624836Y-902614D01*
X2618689Y-891997D01*
X2614625Y-884326D01*
X2613152Y-880313D01*
X2517310Y-880313D01*
X2537663Y-882802D01*
X2521661Y-922121D01*
X2476855Y-1030274D01*
X2474417Y-1031748D01*
X2492806Y-1031748D01*
X2552598Y-888542D01*
X2587650Y-888288D01*
X2587650Y-894080D01*
X2587396Y-895502D01*
X2585212Y-902055D01*
X2575560Y-926846D01*
X2560828Y-962355D01*
X2525572Y-1044498D01*
X2513584Y-1042365D01*
X2508605Y-1041196D01*
X2503830Y-1039621D01*
X2499868Y-1037844D01*
X2497226Y-1036015D01*
X2492806Y-1031748D01*
X2474417Y-1031748D01*
X2437841Y-1053846D01*
X2437414Y-1057960D01*
X2466543Y-1057960D01*
X2469388Y-1054201D01*
X2476500Y-1052220D01*
X2485847Y-1052271D01*
X2495245Y-1054506D01*
X2507996Y-1059535D01*
X2501087Y-1059688D01*
X2536037Y-1059688D01*
X2595676Y-919987D01*
X2603195Y-902919D01*
X2604414Y-903173D01*
X2606548Y-905560D01*
X2609189Y-909574D01*
X2612085Y-914603D01*
X2614879Y-920089D01*
X2617266Y-925372D01*
X2618892Y-929944D01*
X2619552Y-933246D01*
X2617470Y-940511D01*
X2611831Y-956614D01*
X2603195Y-979830D01*
X2592273Y-1008227D01*
X2539847Y-1140155D01*
X2556662Y-1140155D01*
X2602585Y-1024178D01*
X2615488Y-992936D01*
X2625598Y-969568D01*
X2629204Y-961796D01*
X2631592Y-957173D01*
X2632303Y-956157D01*
X2637485Y-950721D01*
X2658872Y-983386D01*
X2632100Y-1049883D01*
X2618740Y-1081278D01*
X2606802Y-1107897D01*
X2596692Y-1128725D01*
X2592476Y-1136700D01*
X2588869Y-1142796D01*
X2586024Y-1146962D01*
X2584856Y-1148283D01*
X2583891Y-1149045D01*
X2583129Y-1149248D01*
X2580335Y-1148740D01*
X2571953Y-1146200D01*
X2556662Y-1140155D01*
X2539847Y-1140155D01*
X2536037Y-1059688D01*
X2501087Y-1059688D01*
X2479243Y-1059992D01*
X2472639Y-1059586D01*
X2468168Y-1058875D01*
X2466543Y-1057960D01*
X2437414Y-1057960D01*
X2435834Y-1073200D01*
X2459126Y-1073200D01*
X2464003Y-1073556D01*
X2468626Y-1074470D01*
X2472486Y-1075791D01*
X2475026Y-1077468D01*
X2475952Y-1078382D01*
X2495702Y-1078382D01*
X2517546Y-1066190D01*
X2517546Y-1150213D01*
X2607056Y-1150213D01*
X2639771Y-1072184D01*
X2654503Y-1038453D01*
X2665577Y-1014984D01*
X2668930Y-1008837D01*
X2669895Y-1007516D01*
X2675229Y-1002233D01*
X2682595Y-1021486D01*
X2643632Y-1121359D01*
X2637434Y-1136650D01*
X2632760Y-1146860D01*
X2630830Y-1150366D01*
X2629103Y-1152906D01*
X2627528Y-1154633D01*
X2625953Y-1155649D01*
X2624378Y-1156055D01*
X2622753Y-1156004D01*
X2618994Y-1154836D01*
X2607056Y-1150213D01*
X2517546Y-1150213D01*
X2517546Y-1187196D01*
X2508351Y-1192784D01*
X2506319Y-1193647D01*
X2504592Y-1193749D01*
X2503170Y-1192987D01*
X2502001Y-1191209D01*
X2501036Y-1188161D01*
X2500274Y-1183741D01*
X2499614Y-1177747D01*
X2498598Y-1160373D01*
X2495702Y-1078382D01*
X2475952Y-1078382D01*
X2479294Y-1081684D01*
X2479294Y-1202080D01*
X2464816Y-1196695D01*
X2460345Y-1195476D01*
X2456332Y-1194663D01*
X2453284Y-1194358D01*
X2447442Y-1194358D01*
X2447442Y-1073200D01*
X2435834Y-1073200D01*
X2431491Y-1114653D01*
X2411476Y-1111859D01*
X2404973Y-1110640D01*
X2402586Y-1109776D01*
X2400706Y-1108608D01*
X2399385Y-1107033D01*
X2398623Y-1105001D01*
X2398471Y-1102360D01*
X2275676Y-1102360D01*
X2272131Y-1127404D01*
X2233726Y-1148283D01*
X2221585Y-1154480D01*
X2211527Y-1159256D01*
X2204872Y-1161948D01*
X2203145Y-1162304D01*
X2186076Y-1162456D01*
X2186076Y-1169670D01*
X2171852Y-1165402D01*
X2148281Y-1159408D01*
X2116378Y-1151839D01*
X2101291Y-1147978D01*
X2088743Y-1144371D01*
X2080361Y-1141476D01*
X2078177Y-1140460D01*
X2071319Y-1136192D01*
X2071319Y-1111453D01*
X2055502Y-1111453D01*
X2055368Y-1113028D01*
X1997862Y-1146149D01*
X1972601Y-1160068D01*
X2009597Y-1160068D01*
X2011121Y-1158544D01*
X2016150Y-1155141D01*
X2023872Y-1150315D01*
X2058568Y-1130198D01*
X2058568Y-1155039D01*
X2138324Y-1173581D01*
X2165858Y-1179322D01*
X2184349Y-1182522D01*
X2202027Y-1184046D01*
X2288082Y-1135837D01*
X2288082Y-1105103D01*
X2299208Y-1105509D01*
X2304491Y-1106068D01*
X2310688Y-1107236D01*
X2316937Y-1108862D01*
X2322576Y-1110742D01*
X2334818Y-1115568D01*
X2295093Y-1141374D01*
X2283714Y-1149604D01*
X2281054Y-1151737D01*
X2306675Y-1151737D01*
X2332278Y-1134770D01*
X2342642Y-1128268D01*
X2351836Y-1122984D01*
X2358898Y-1119530D01*
X2362809Y-1118463D01*
X2375357Y-1121054D01*
X2429306Y-1133754D01*
X2390648Y-1170635D01*
X2346248Y-1165352D01*
X2332329Y-1163015D01*
X2320950Y-1160475D01*
X2316683Y-1159205D01*
X2313584Y-1157986D01*
X2311806Y-1156868D01*
X2306675Y-1151737D01*
X2281054Y-1151737D01*
X2275230Y-1156716D01*
X2272182Y-1159764D01*
X2269947Y-1162405D01*
X2268575Y-1164640D01*
X2268067Y-1166418D01*
X2268474Y-1167739D01*
X2269794Y-1168552D01*
X2283764Y-1170533D01*
X2321255Y-1176782D01*
X2390495Y-1188720D01*
X2431491Y-1154125D01*
X2435301Y-1204620D01*
X2488844Y-1219149D01*
X2533497Y-1197508D01*
X2537561Y-1155090D01*
X2564180Y-1159510D01*
X2575204Y-1161542D01*
X2585466Y-1163929D01*
X2593797Y-1166266D01*
X2599131Y-1168400D01*
X2607360Y-1172870D01*
X2459126Y-1253236D01*
X2428900Y-1247597D01*
X2374392Y-1236472D01*
X2032507Y-1165250D01*
X2009597Y-1160068D01*
X1972411Y-1160170D01*
X1960625Y-1166215D01*
X1956917Y-1167892D01*
X1954987Y-1168501D01*
X1950212Y-1168857D01*
X1950212Y-1131011D01*
X1924710Y-1117396D01*
X1905609Y-1117396D01*
X1905609Y-1128014D01*
X1890268Y-1143304D01*
X1857146Y-1143304D01*
X1841855Y-1128014D01*
X1841855Y-767181D01*
X1826625Y-767181D01*
X1821180Y-827735D01*
X1811172Y-839165D01*
X1808937Y-841400D01*
X1802180Y-846582D01*
X1792884Y-852525D01*
X1781505Y-859028D01*
X1768500Y-865835D01*
X1754378Y-872693D01*
X1739646Y-879348D01*
X1724761Y-885596D01*
X1710283Y-891235D01*
X1696618Y-895908D01*
X1590649Y-926744D01*
X1565554Y-934923D01*
X1541830Y-943508D01*
X1531315Y-947623D01*
X1522272Y-951433D01*
X1515008Y-954786D01*
X1484528Y-969975D01*
X1409344Y-913434D01*
X1340561Y-882446D01*
X1332026Y-878941D01*
X1326083Y-876960D01*
X1322324Y-876300D01*
X1320241Y-876909D01*
X1319326Y-878636D01*
X1319123Y-881329D01*
X1319123Y-887120D01*
X1368094Y-910132D01*
X1381201Y-916889D01*
X1394866Y-924560D01*
X1408430Y-932637D01*
X1421130Y-940714D01*
X1432204Y-948334D01*
X1451711Y-962609D01*
X1462735Y-970178D01*
X1473962Y-977493D01*
X1484833Y-984199D01*
X1494637Y-989939D01*
X1503426Y-994765D01*
X1513586Y-1000963D01*
X1525066Y-1008583D01*
X1537157Y-1017117D01*
X1549247Y-1026160D01*
X1560677Y-1035202D01*
X1570482Y-1043381D01*
X1580489Y-1051356D01*
X1591564Y-1059738D01*
X1615846Y-1077061D01*
X1634896Y-1089914D01*
X1659636Y-1105662D01*
X1671066Y-1112570D01*
X1690928Y-1123594D01*
X1698752Y-1127353D01*
X1704797Y-1129741D01*
X1707083Y-1130401D01*
X1713890Y-1131620D01*
X1721104Y-1134364D01*
X1729638Y-1138428D01*
X1746300Y-1147927D01*
X1753057Y-1151483D01*
X1758797Y-1153972D01*
X1763471Y-1155395D01*
X1767078Y-1155750D01*
X1769668Y-1155090D01*
X1771192Y-1153363D01*
X1771700Y-1150569D01*
X1769313Y-1147318D01*
X1762810Y-1142441D01*
X1753209Y-1136650D01*
X1720596Y-1120444D01*
X1695450Y-1107643D01*
X1672691Y-1095349D01*
X1651762Y-1083106D01*
X1641805Y-1076909D01*
X1627225Y-1067409D01*
X1608226Y-1054100D01*
X1589125Y-1039672D01*
X1569313Y-1023772D01*
X1520850Y-983945D01*
X1508658Y-983792D01*
X1505712Y-983437D01*
X1503578Y-982776D01*
X1502257Y-981913D01*
X1501648Y-980846D01*
X1501800Y-979627D01*
X1502613Y-978153D01*
X1504086Y-976579D01*
X1508912Y-972972D01*
X1516024Y-968908D01*
X1525168Y-964488D01*
X1536141Y-959866D01*
X1548688Y-955141D01*
X1562506Y-950518D01*
X1577441Y-945997D01*
X1610614Y-937158D01*
X1627225Y-932078D01*
X1641297Y-927252D01*
X1654606Y-921410D01*
X1664157Y-917752D01*
X1675384Y-914298D01*
X1686864Y-911352D01*
X1717548Y-905611D01*
X1822704Y-851763D01*
X1822704Y-1014425D01*
X1805178Y-1019657D01*
X1796694Y-1021689D01*
X1786432Y-1023366D01*
X1775764Y-1024585D01*
X1765960Y-1025093D01*
X1744268Y-1025398D01*
X1739290Y-1039774D01*
X1776222Y-1038098D01*
X1788820Y-1036878D01*
X1800098Y-1035202D01*
X1808683Y-1033221D01*
X1811578Y-1032205D01*
X1822704Y-1027226D01*
X1822704Y-1130960D01*
X1803603Y-1138326D01*
X1803603Y-1162456D01*
X1822704Y-1162456D01*
X1830679Y-1162862D01*
X1834896Y-1163472D01*
X1840534Y-1164844D01*
X1846783Y-1166774D01*
X1852980Y-1169009D01*
X1867357Y-1174800D01*
X1867357Y-1272082D01*
X1885899Y-1272082D01*
X1889658Y-1172667D01*
X1931111Y-1148537D01*
X1931111Y-1249680D01*
X1885899Y-1272082D01*
X1867357Y-1272082D01*
X1867357Y-1277213D01*
X1822704Y-1277213D01*
X1822704Y-1162456D01*
X1803603Y-1162456D01*
X1803603Y-1251712D01*
X1799336Y-1251712D01*
X1796846Y-1251000D01*
X1793341Y-1249070D01*
X1789226Y-1246174D01*
X1784959Y-1242669D01*
X1779828Y-1238859D01*
X1773174Y-1235151D01*
X1765960Y-1232001D01*
X1759000Y-1229817D01*
X1743049Y-1226108D01*
X1711147Y-1242720D01*
X1676755Y-1223162D01*
X1639214Y-1237335D01*
X1630578Y-1231900D01*
X1625752Y-1229512D01*
X1620012Y-1227836D01*
X1613560Y-1226769D01*
X1606702Y-1226312D01*
X1599692Y-1226413D01*
X1592783Y-1227023D01*
X1586230Y-1228140D01*
X1580235Y-1229715D01*
X1575155Y-1231696D01*
X1571193Y-1234084D01*
X1568653Y-1236827D01*
X1567738Y-1239926D01*
X1567738Y-1245920D01*
X1611020Y-1237792D01*
X1639011Y-1252778D01*
X1676044Y-1237437D01*
X1709928Y-1259687D01*
X1747062Y-1237742D01*
X1765757Y-1245514D01*
X1772005Y-1248460D01*
X1777136Y-1251610D01*
X1781048Y-1254810D01*
X1783638Y-1257808D01*
X1784756Y-1260449D01*
X1784248Y-1262532D01*
X1782114Y-1263954D01*
X1778101Y-1264462D01*
X1771700Y-1264462D01*
X1771700Y-1280718D01*
X1768176Y-1283614D01*
X1782978Y-1283614D01*
X1796745Y-1284884D01*
X1804492Y-1286052D01*
X1896008Y-1286052D01*
X1950212Y-1257858D01*
X1950212Y-1188415D01*
X1974850Y-1175207D01*
X2000808Y-1176426D01*
X2009241Y-1177239D01*
X2017166Y-1178255D01*
X2033016Y-1181303D01*
X2125980Y-1201013D01*
X2304389Y-1237792D01*
X2365756Y-1250950D01*
X2389784Y-1256385D01*
X2407513Y-1260652D01*
X2417572Y-1263396D01*
X2427848Y-1267663D01*
X2465374Y-1267663D01*
X2625902Y-1180693D01*
X2625902Y-1211326D01*
X2578100Y-1242212D01*
X2574485Y-1366469D01*
X2587650Y-1366469D01*
X2587650Y-1252067D01*
X2625902Y-1232255D01*
X2625902Y-1366469D01*
X2574485Y-1366469D01*
X2574442Y-1367942D01*
X2502865Y-1361490D01*
X2492146Y-1360373D01*
X2487828Y-1359712D01*
X2484170Y-1358900D01*
X2481072Y-1357934D01*
X2478532Y-1356664D01*
X2476449Y-1355140D01*
X2474823Y-1353210D01*
X2473502Y-1350924D01*
X2472486Y-1348181D01*
X2471724Y-1344879D01*
X2470658Y-1336548D01*
X2465374Y-1267663D01*
X2427848Y-1267663D01*
X2431491Y-1269187D01*
X2371090Y-1298803D01*
X2192274Y-1258163D01*
X2146046Y-1247394D01*
X2092756Y-1234389D01*
X2041215Y-1269136D01*
X2071217Y-1269136D01*
X2082444Y-1260602D01*
X2087016Y-1257350D01*
X2091283Y-1254760D01*
X2094687Y-1253083D01*
X2096820Y-1252626D01*
X2155850Y-1265529D01*
X2138273Y-1282649D01*
X2071217Y-1269136D01*
X2041215Y-1269136D01*
X1988972Y-1304391D01*
X1896008Y-1286052D01*
X1804492Y-1286052D01*
X1840128Y-1292148D01*
X1912715Y-1305255D01*
X2011781Y-1305255D01*
X2055571Y-1279398D01*
X2082517Y-1288389D01*
X2160320Y-1288389D01*
X2167585Y-1279652D01*
X2174036Y-1273810D01*
X2181098Y-1271371D01*
X2188921Y-1272184D01*
X2197506Y-1276299D01*
X2205786Y-1281531D01*
X2188616Y-1295806D01*
X2160320Y-1288389D01*
X2082517Y-1288389D01*
X2090978Y-1291234D01*
X2079115Y-1305509D01*
X2096820Y-1305509D01*
X2097633Y-1304442D01*
X2099767Y-1303528D01*
X2102916Y-1302969D01*
X2106777Y-1302715D01*
X2116683Y-1302715D01*
X2108708Y-1315669D01*
X2102764Y-1312011D01*
X2100478Y-1310386D01*
X2098548Y-1308608D01*
X2097278Y-1306931D01*
X2096820Y-1305509D01*
X2079115Y-1305509D01*
X2076602Y-1308557D01*
X2084730Y-1321663D01*
X2054301Y-1315567D01*
X2034844Y-1311198D01*
X2011781Y-1305255D01*
X1912715Y-1305255D01*
X1982063Y-1318056D01*
X1982063Y-1321866D01*
X2001215Y-1321866D01*
X2010765Y-1322730D01*
X2034339Y-1326997D01*
X2116277Y-1326997D01*
X2135174Y-1308049D01*
X2127961Y-1296365D01*
X2135886Y-1297584D01*
X2150796Y-1301191D01*
X2211273Y-1301191D01*
X2218588Y-1292402D01*
X2224379Y-1287068D01*
X2230983Y-1284579D01*
X2238806Y-1284884D01*
X2248509Y-1287881D01*
X2256739Y-1291234D01*
X2243378Y-1307338D01*
X2211273Y-1301191D01*
X2150796Y-1301191D01*
X2158695Y-1303274D01*
X2156687Y-1313789D01*
X2268423Y-1313789D01*
X2273096Y-1299514D01*
X2295042Y-1298092D01*
X2301392Y-1298194D01*
X2307437Y-1298600D01*
X2313178Y-1299362D01*
X2318512Y-1300429D01*
X2323439Y-1301699D01*
X2327859Y-1303223D01*
X2331669Y-1304899D01*
X2334869Y-1306728D01*
X2337358Y-1308709D01*
X2339035Y-1310792D01*
X2339949Y-1312875D01*
X2339898Y-1315008D01*
X2338933Y-1317142D01*
X2336901Y-1319225D01*
X2333802Y-1321257D01*
X2322220Y-1327454D01*
X2268423Y-1313789D01*
X2156687Y-1313789D01*
X2154948Y-1322882D01*
X2195626Y-1322882D01*
X2187651Y-1326083D01*
X2183942Y-1327048D01*
X2179675Y-1327404D01*
X2175459Y-1327048D01*
X2171750Y-1326083D01*
X2163775Y-1322882D01*
X2154948Y-1322882D01*
X2152700Y-1334617D01*
X2144420Y-1334617D01*
X2140407Y-1334312D01*
X2135632Y-1333500D01*
X2130704Y-1332280D01*
X2126183Y-1330807D01*
X2116277Y-1326997D01*
X2034339Y-1326997D01*
X2104201Y-1340967D01*
X2199995Y-1340967D01*
X2206701Y-1315466D01*
X2225192Y-1315466D01*
X2218842Y-1335633D01*
X2259380Y-1335633D01*
X2251405Y-1338834D01*
X2247696Y-1339799D01*
X2243429Y-1340154D01*
X2239213Y-1339799D01*
X2235454Y-1338834D01*
X2227478Y-1335633D01*
X2218842Y-1335633D01*
X2217216Y-1340510D01*
X2214219Y-1345895D01*
X2210866Y-1347012D01*
X2206193Y-1344777D01*
X2199995Y-1340967D01*
X2104201Y-1340967D01*
X2152571Y-1350518D01*
X2264257Y-1350518D01*
X2272131Y-1329994D01*
X2295652Y-1338376D01*
X2285695Y-1346657D01*
X2281377Y-1349705D01*
X2276957Y-1351838D01*
X2272995Y-1352956D01*
X2269998Y-1352753D01*
X2264257Y-1350518D01*
X2152571Y-1350518D01*
X2200859Y-1359865D01*
X2227783Y-1365300D01*
X2246985Y-1369415D01*
X2263851Y-1374140D01*
X2259787Y-1410716D01*
X2258415Y-1431747D01*
X2257298Y-1459890D01*
X2256536Y-1491589D01*
X2256184Y-1589328D01*
X2275332Y-1589328D01*
X2275332Y-1368501D01*
X2307183Y-1354023D01*
X2307183Y-1461617D01*
X2326335Y-1461617D01*
X2326335Y-1343710D01*
X2364536Y-1321104D01*
X2364536Y-1368450D01*
X2383688Y-1368450D01*
X2383688Y-1311148D01*
X2421128Y-1290777D01*
X2432862Y-1284732D01*
X2442362Y-1280109D01*
X2448458Y-1277569D01*
X2449880Y-1277213D01*
X2453792Y-1277213D01*
X2453792Y-1355140D01*
X2407869Y-1346555D01*
X2384360Y-1367840D01*
X2425090Y-1367891D01*
X2436215Y-1368094D01*
X2445918Y-1368704D01*
X2454097Y-1369618D01*
X2460853Y-1370939D01*
X2466618Y-1372870D01*
X2670505Y-1372870D01*
X2670505Y-1367993D01*
X2670860Y-1367383D01*
X2673553Y-1365046D01*
X2678684Y-1361338D01*
X2695498Y-1350213D01*
X2719578Y-1335176D01*
X2749194Y-1317294D01*
X2787446Y-1294739D01*
X2830626Y-1269644D01*
X2846628Y-1260551D01*
X2859430Y-1253540D01*
X2869590Y-1248308D01*
X2877566Y-1244701D01*
X2883763Y-1242466D01*
X2888640Y-1241501D01*
X2892704Y-1241501D01*
X2896412Y-1242263D01*
X2900172Y-1243584D01*
X2913989Y-1249121D01*
X2904388Y-1256944D01*
X2894584Y-1263243D01*
X2876905Y-1274013D01*
X2824835Y-1304696D01*
X2706776Y-1372870D01*
X2466618Y-1372870D01*
X2469896Y-1374597D01*
X2472182Y-1376984D01*
X2472944Y-1379677D01*
X2472944Y-1385620D01*
X2461768Y-1385112D01*
X2455418Y-1384249D01*
X2446375Y-1382318D01*
X2435910Y-1379524D01*
X2425090Y-1376222D01*
X2399588Y-1367840D01*
X2384360Y-1367840D01*
X2383688Y-1368450D01*
X2364536Y-1368450D01*
X2364536Y-1448612D01*
X2383688Y-1448612D01*
X2383688Y-1427175D01*
X2383993Y-1418082D01*
X2384806Y-1409090D01*
X2386025Y-1401318D01*
X2387549Y-1395679D01*
X2389378Y-1391818D01*
X2391460Y-1388770D01*
X2393594Y-1386840D01*
X2395524Y-1386382D01*
X2458821Y-1399489D01*
X2454026Y-1439773D01*
X2469743Y-1439773D01*
X2471877Y-1423873D01*
X2473299Y-1416405D01*
X2475585Y-1407922D01*
X2478430Y-1399489D01*
X2481478Y-1392072D01*
X2488946Y-1376222D01*
X2498445Y-1375460D01*
X2503779Y-1375410D01*
X2519781Y-1376426D01*
X2549042Y-1380032D01*
X2545232Y-1409903D01*
X2543302Y-1421993D01*
X2541973Y-1427988D01*
X2560218Y-1427988D01*
X2560370Y-1417929D01*
X2560980Y-1409496D01*
X2563012Y-1391970D01*
X2574899Y-1391970D01*
X2574899Y-1398524D01*
X2590241Y-1398524D01*
X2601061Y-1379220D01*
X2613101Y-1379220D01*
X2618638Y-1379524D01*
X2622956Y-1380642D01*
X2623955Y-1381302D01*
X2723845Y-1381302D01*
X2857804Y-1303426D01*
X2889808Y-1285697D01*
X2906572Y-1277112D01*
X2911144Y-1275130D01*
X2912364Y-1274826D01*
X2912770Y-1274978D01*
X2912313Y-1276502D01*
X2908909Y-1283411D01*
X2902813Y-1294485D01*
X2894736Y-1308303D01*
X2867710Y-1352956D01*
X2736392Y-1428292D01*
X2723845Y-1381302D01*
X2623955Y-1381302D01*
X2626106Y-1382725D01*
X2628239Y-1386078D01*
X2629357Y-1390853D01*
X2629611Y-1397304D01*
X2629052Y-1405686D01*
X2627059Y-1421942D01*
X2639364Y-1421942D01*
X2646629Y-1385620D01*
X2691130Y-1385620D01*
X2687269Y-1399946D01*
X2685796Y-1406906D01*
X2684576Y-1415237D01*
X2683713Y-1423873D01*
X2694635Y-1423873D01*
X2702661Y-1391970D01*
X2714904Y-1391970D01*
X2722930Y-1423873D01*
X2714904Y-1455724D01*
X2702661Y-1455724D01*
X2694635Y-1423873D01*
X2683713Y-1423873D01*
X2683357Y-1431848D01*
X2683256Y-1449374D01*
X2646527Y-1449374D01*
X2639364Y-1421942D01*
X2627059Y-1421942D01*
X2624226Y-1442974D01*
X2595422Y-1442974D01*
X2590241Y-1398524D01*
X2574899Y-1398524D01*
X2574899Y-1461363D01*
X2563520Y-1468374D01*
X2560828Y-1443228D01*
X2560218Y-1427988D01*
X2541973Y-1427988D01*
X2540914Y-1432763D01*
X2538425Y-1441043D01*
X2535986Y-1445666D01*
X2530652Y-1451559D01*
X2469743Y-1439773D01*
X2454026Y-1439773D01*
X2451658Y-1454861D01*
X2450592Y-1459738D01*
X2448407Y-1466951D01*
X2423515Y-1462379D01*
X2413254Y-1460296D01*
X2403754Y-1457858D01*
X2396032Y-1455369D01*
X2391156Y-1453235D01*
X2383688Y-1448612D01*
X2364536Y-1448612D01*
X2364536Y-1474876D01*
X2383688Y-1474876D01*
X2404719Y-1476298D01*
X2420010Y-1478229D01*
X2426716Y-1479346D01*
X2441041Y-1482140D01*
X2441041Y-1487982D01*
X2440127Y-1489862D01*
X2437587Y-1492656D01*
X2433675Y-1496161D01*
X2423058Y-1504492D01*
X2410561Y-1513230D01*
X2404414Y-1517243D01*
X2398674Y-1520698D01*
X2393645Y-1523441D01*
X2389682Y-1525219D01*
X2386990Y-1525879D01*
X2385720Y-1523847D01*
X2384653Y-1518361D01*
X2383942Y-1510284D01*
X2383688Y-1500378D01*
X2383688Y-1474876D01*
X2364536Y-1474876D01*
X2364536Y-1542948D01*
X2341778Y-1553210D01*
X2331618Y-1557172D01*
X2329180Y-1557731D01*
X2328875Y-1557172D01*
X2328316Y-1552905D01*
X2327351Y-1533245D01*
X2326640Y-1501648D01*
X2326335Y-1461617D01*
X2307183Y-1461617D01*
X2307183Y-1574850D01*
X2275332Y-1589328D01*
X2256184Y-1589328D01*
X2256180Y-1591259D01*
X2220163Y-1585671D01*
X2176475Y-1577949D01*
X2117039Y-1567129D01*
X2052421Y-1554988D01*
X2015540Y-1547774D01*
X2001215Y-1544777D01*
X2001215Y-1321866D01*
X1982063Y-1321866D01*
X1982063Y-1538630D01*
X1957273Y-1538630D01*
X1976069Y-1475333D01*
X1957933Y-1431899D01*
X1928266Y-1411122D01*
X1899513Y-1411122D01*
X1890522Y-1425448D01*
X1886153Y-1433779D01*
X1880920Y-1445869D01*
X1875485Y-1460093D01*
X1865833Y-1488846D01*
X1861464Y-1500886D01*
X1857806Y-1509826D01*
X1856435Y-1512671D01*
X1855419Y-1514246D01*
X1851406Y-1518615D01*
X1790852Y-1504594D01*
X1790750Y-1398574D01*
X1790242Y-1360982D01*
X1789277Y-1329080D01*
X1788668Y-1316431D01*
X1787956Y-1306525D01*
X1787245Y-1299921D01*
X1782978Y-1283614D01*
X1768176Y-1283614D01*
X1451269Y-1543964D01*
X1476959Y-1543964D01*
X1485900Y-1536192D01*
X1562760Y-1472539D01*
X1675942Y-1379321D01*
X1741424Y-1325676D01*
X1771700Y-1301191D01*
X1771700Y-1337767D01*
X1528268Y-1553464D01*
X1551787Y-1553464D01*
X1676806Y-1443075D01*
X1725879Y-1400403D01*
X1744573Y-1384452D01*
X1758035Y-1373327D01*
X1765096Y-1367891D01*
X1771700Y-1365402D01*
X1771700Y-1416405D01*
X1715444Y-1460601D01*
X1745894Y-1460601D01*
X1753209Y-1451813D01*
X1756511Y-1448358D01*
X1760016Y-1445564D01*
X1763369Y-1443685D01*
X1766112Y-1442974D01*
X1771700Y-1442974D01*
X1771700Y-1455724D01*
X1771396Y-1463852D01*
X1769465Y-1467561D01*
X1764842Y-1467561D01*
X1756156Y-1464564D01*
X1745894Y-1460601D01*
X1715444Y-1460601D01*
X1615236Y-1539240D01*
X1610410Y-1541627D01*
X1602181Y-1544218D01*
X1591716Y-1546809D01*
X1580184Y-1548942D01*
X1551787Y-1553464D01*
X1528268Y-1553464D01*
X1524254Y-1557020D01*
X1476959Y-1543964D01*
X1451269Y-1543964D01*
X1446631Y-1547774D01*
X1446631Y-1557731D01*
X1465732Y-1557731D01*
X1473911Y-1559102D01*
X1513535Y-1567383D01*
X1517190Y-1651406D01*
X1535887Y-1651406D01*
X1535887Y-1577644D01*
X1541729Y-1574038D01*
X1546301Y-1572310D01*
X1554530Y-1570278D01*
X1565198Y-1568196D01*
X1577136Y-1566367D01*
X1606702Y-1562303D01*
X1602790Y-1628800D01*
X1552449Y-1645818D01*
X1610309Y-1645818D01*
X1624482Y-1637080D01*
X1628292Y-1550060D01*
X1709470Y-1485239D01*
X1696821Y-1510334D01*
X1691284Y-1522780D01*
X1685594Y-1538071D01*
X1680311Y-1554226D01*
X1675827Y-1570990D01*
X1688846Y-1570990D01*
X1705000Y-1530248D01*
X1711248Y-1516532D01*
X1714398Y-1510182D01*
X1720443Y-1499412D01*
X1723136Y-1495348D01*
X1725422Y-1492402D01*
X1735429Y-1481226D01*
X1771700Y-1481226D01*
X1771700Y-1519478D01*
X1792325Y-1519478D01*
X1786585Y-1537665D01*
X1782156Y-1554581D01*
X1797405Y-1554581D01*
X1797405Y-1548180D01*
X1797913Y-1544929D01*
X1799234Y-1540865D01*
X1801215Y-1536446D01*
X1803603Y-1532229D01*
X1809800Y-1522679D01*
X1809800Y-1529080D01*
X1809292Y-1532280D01*
X1807972Y-1536395D01*
X1805990Y-1540764D01*
X1803603Y-1544980D01*
X1797405Y-1554581D01*
X1782156Y-1554581D01*
X1777710Y-1572869D01*
X1809800Y-1572869D01*
X1823974Y-1532229D01*
X1840484Y-1532229D01*
X1835353Y-1555038D01*
X1833067Y-1564233D01*
X1830578Y-1572310D01*
X1828241Y-1578457D01*
X1826361Y-1581759D01*
X1822500Y-1585569D01*
X1809800Y-1572869D01*
X1777710Y-1572869D01*
X1763802Y-1634947D01*
X1785162Y-1634947D01*
X1785467Y-1621536D01*
X1786229Y-1610156D01*
X1788718Y-1586433D01*
X1788702Y-1603044D01*
X1804009Y-1603044D01*
X1804314Y-1597355D01*
X1804873Y-1593240D01*
X1805736Y-1590751D01*
X1806854Y-1589938D01*
X1808175Y-1590802D01*
X1809800Y-1593342D01*
X1811578Y-1597609D01*
X1812340Y-1601673D01*
X1812239Y-1606956D01*
X1811274Y-1612747D01*
X1809546Y-1618335D01*
X1804517Y-1631086D01*
X1804009Y-1603044D01*
X1788702Y-1603044D01*
X1788659Y-1646224D01*
X1802282Y-1646224D01*
X1809953Y-1638503D01*
X1808988Y-1662938D01*
X1802282Y-1646224D01*
X1788659Y-1646224D01*
X1788617Y-1688439D01*
X1785721Y-1655216D01*
X1785213Y-1641906D01*
X1785162Y-1634947D01*
X1763802Y-1634947D01*
X1763014Y-1638503D01*
X1780946Y-1711502D01*
X1781708Y-1716125D01*
X1781962Y-1719834D01*
X1781657Y-1722628D01*
X1780692Y-1724660D01*
X1779016Y-1725980D01*
X1776628Y-1726641D01*
X1773428Y-1726742D01*
X1764284Y-1725472D01*
X1704797Y-1713484D01*
X1689557Y-1669338D01*
X1688846Y-1570990D01*
X1675827Y-1570990D01*
X1668221Y-1603400D01*
X1674317Y-1666798D01*
X1658366Y-1660448D01*
X1641297Y-1654860D01*
X1610309Y-1645818D01*
X1552449Y-1645818D01*
X1535887Y-1651406D01*
X1517190Y-1651406D01*
X1517345Y-1655013D01*
X1502714Y-1651101D01*
X1496161Y-1649577D01*
X1489100Y-1648307D01*
X1482394Y-1647443D01*
X1476908Y-1647088D01*
X1465732Y-1646986D01*
X1465732Y-1557731D01*
X1446631Y-1557731D01*
X1446631Y-1615135D01*
X1400759Y-1615135D01*
X1364437Y-1653997D01*
X1337005Y-1726692D01*
X1331933Y-1799082D01*
X1342186Y-1799082D01*
X1357680Y-1708708D01*
X1369618Y-1681683D01*
X1375359Y-1670151D01*
X1382014Y-1658670D01*
X1388872Y-1648612D01*
X1392072Y-1644497D01*
X1394968Y-1641297D01*
X1400556Y-1636166D01*
X1405839Y-1632051D01*
X1410258Y-1629460D01*
X1413154Y-1628749D01*
X1445310Y-1634998D01*
X1451813Y-1659737D01*
X1468577Y-1659839D01*
X1472285Y-1660245D01*
X1475130Y-1661007D01*
X1477213Y-1662277D01*
X1478432Y-1664157D01*
X1478889Y-1666697D01*
X1478534Y-1670100D01*
X1477416Y-1674368D01*
X1475486Y-1679702D01*
X1469186Y-1693773D01*
X1447038Y-1739442D01*
X1438069Y-1782216D01*
X1452981Y-1782216D01*
X1468628Y-1733245D01*
X1474520Y-1716481D01*
X1480312Y-1701393D01*
X1485341Y-1689811D01*
X1487322Y-1685899D01*
X1495907Y-1670659D01*
X1534414Y-1667459D01*
X1579473Y-1662582D01*
X1590243Y-1662175D01*
X1598777Y-1662480D01*
X1604010Y-1663496D01*
X1611579Y-1666951D01*
X1574596Y-1725269D01*
X1553311Y-1821027D01*
X1555087Y-1842414D01*
X1567129Y-1842414D01*
X1580997Y-1752904D01*
X1592834Y-1726082D01*
X1598523Y-1714652D01*
X1605178Y-1703222D01*
X1608582Y-1697989D01*
X1611985Y-1693214D01*
X1615186Y-1689150D01*
X1618081Y-1685899D01*
X1631492Y-1672488D01*
X1655013Y-1672488D01*
X1665376Y-1683969D01*
X1667713Y-1686864D01*
X1670253Y-1690674D01*
X1675739Y-1700428D01*
X1681225Y-1711909D01*
X1686052Y-1723847D01*
X1688240Y-1729892D01*
X1710385Y-1729892D01*
X1724710Y-1730756D01*
X1729232Y-1731365D01*
X1736648Y-1733042D01*
X1746250Y-1735632D01*
X1777492Y-1742744D01*
X1767050Y-1772818D01*
X1784451Y-1772818D01*
X1792630Y-1748383D01*
X1884883Y-1481226D01*
X1891792Y-1462328D01*
X1898446Y-1446072D01*
X1904187Y-1434338D01*
X1906422Y-1430680D01*
X1908200Y-1428750D01*
X1915261Y-1424990D01*
X1920849Y-1424381D01*
X1925218Y-1426972D01*
X1928520Y-1432763D01*
X1931924Y-1441653D01*
X1839163Y-1705610D01*
X1820265Y-1760118D01*
X1816354Y-1772310D01*
X1815084Y-1773174D01*
X1811680Y-1773885D01*
X1806600Y-1774342D01*
X1794205Y-1774393D01*
X1789175Y-1774037D01*
X1785721Y-1773478D01*
X1784451Y-1772818D01*
X1767050Y-1772818D01*
X1763134Y-1784096D01*
X1828546Y-1784096D01*
X1832660Y-1770532D01*
X1862175Y-1686153D01*
X1920748Y-1520901D01*
X1932076Y-1489405D01*
X1939798Y-1468780D01*
X1944776Y-1456994D01*
X1946503Y-1453743D01*
X1947875Y-1451864D01*
X1948992Y-1451102D01*
X1949907Y-1451254D01*
X1953209Y-1454607D01*
X1954580Y-1456994D01*
X1955495Y-1460093D01*
X1955901Y-1464056D01*
X1955800Y-1469034D01*
X1955139Y-1475181D01*
X1953869Y-1482547D01*
X1951939Y-1491386D01*
X1946046Y-1513840D01*
X1937207Y-1543608D01*
X1925167Y-1581912D01*
X1909572Y-1629816D01*
X1853590Y-1799488D01*
X1828546Y-1784096D01*
X1763134Y-1784096D01*
X1737664Y-1857400D01*
X1711096Y-1857400D01*
X1710385Y-1729892D01*
X1688240Y-1729892D01*
X1696313Y-1752193D01*
X1696212Y-1847850D01*
X1691823Y-1858873D01*
X1756206Y-1858873D01*
X1778762Y-1787245D01*
X1806803Y-1787296D01*
X1848967Y-1813052D01*
X1842312Y-1834388D01*
X1835454Y-1853031D01*
X1823364Y-1882902D01*
X1785874Y-1882902D01*
X1756206Y-1858873D01*
X1691823Y-1858873D01*
X1683512Y-1879701D01*
X1690674Y-1769313D01*
X1675130Y-1707591D01*
X1655013Y-1685239D01*
X1625854Y-1685239D01*
X1615694Y-1699615D01*
X1613357Y-1703374D01*
X1607769Y-1715058D01*
X1601419Y-1730705D01*
X1594878Y-1749196D01*
X1604670Y-1749196D01*
X1616913Y-1725574D01*
X1622247Y-1716227D01*
X1627835Y-1708150D01*
X1632915Y-1702257D01*
X1636877Y-1699412D01*
X1644599Y-1696821D01*
X1639316Y-1730400D01*
X1636979Y-1742439D01*
X1634388Y-1753819D01*
X1632177Y-1761998D01*
X1649272Y-1761998D01*
X1661058Y-1713941D01*
X1665071Y-1726692D01*
X1666951Y-1733448D01*
X1671218Y-1752549D01*
X1677212Y-1785467D01*
X1657096Y-1793189D01*
X1649272Y-1761998D01*
X1632177Y-1761998D01*
X1630730Y-1766570D01*
X1625447Y-1780895D01*
X1612595Y-1780895D01*
X1604670Y-1749196D01*
X1594878Y-1749196D01*
X1578965Y-1800910D01*
X1580841Y-1831898D01*
X1593240Y-1831898D01*
X1593342Y-1817573D01*
X1593799Y-1811324D01*
X1595018Y-1804873D01*
X1596796Y-1799031D01*
X1598930Y-1794510D01*
X1604467Y-1785823D01*
X1607261Y-1794256D01*
X1608124Y-1798726D01*
X1608429Y-1804517D01*
X1608175Y-1810969D01*
X1607312Y-1817319D01*
X1605345Y-1827580D01*
X1617878Y-1827580D01*
X1636268Y-1784096D01*
X1649831Y-1817928D01*
X1640332Y-1853387D01*
X1625750Y-1858264D01*
X1655724Y-1858264D01*
X1664462Y-1806397D01*
X1677720Y-1806397D01*
X1671777Y-1842922D01*
X1670202Y-1850643D01*
X1668678Y-1856536D01*
X1667103Y-1860651D01*
X1665478Y-1863191D01*
X1663700Y-1864207D01*
X1661718Y-1863801D01*
X1659534Y-1862074D01*
X1655724Y-1858264D01*
X1625600Y-1858314D01*
X1617878Y-1827580D01*
X1605345Y-1827580D01*
X1604518Y-1831898D01*
X1580841Y-1831898D01*
X1582328Y-1856435D01*
X1591665Y-1856435D01*
X1604822Y-1843278D01*
X1619148Y-1870100D01*
X1600809Y-1905203D01*
X1591665Y-1856435D01*
X1582328Y-1856435D01*
X1584604Y-1886305D01*
X1585925Y-1900021D01*
X1587842Y-1915718D01*
X1617573Y-1915718D01*
X1622145Y-1900885D01*
X1624380Y-1894535D01*
X1627225Y-1888083D01*
X1630222Y-1882393D01*
X1633067Y-1878126D01*
X1637080Y-1874062D01*
X1641195Y-1871675D01*
X1645208Y-1870760D01*
X1648917Y-1871370D01*
X1652168Y-1873351D01*
X1654708Y-1876653D01*
X1656384Y-1881225D01*
X1656994Y-1887016D01*
X1656994Y-1895348D01*
X1617573Y-1915718D01*
X1587842Y-1915718D01*
X1588668Y-1921306D01*
X1589887Y-1927555D01*
X1590911Y-1931416D01*
X1630781Y-1931416D01*
X1631289Y-1929841D01*
X1632305Y-1928114D01*
X1636064Y-1924405D01*
X1641957Y-1920087D01*
X1693570Y-1887829D01*
X1708556Y-1878787D01*
X1713890Y-1875942D01*
X1718157Y-1873961D01*
X1721662Y-1872894D01*
X1724609Y-1872488D01*
X1727301Y-1872691D01*
X1730044Y-1873453D01*
X1749399Y-1880920D01*
X1750931Y-1895652D01*
X1784451Y-1895652D01*
X1784451Y-1914804D01*
X1804212Y-1914804D01*
X1804517Y-1908860D01*
X1805330Y-1903628D01*
X1808022Y-1892452D01*
X1817725Y-1914804D01*
X1808022Y-1937105D01*
X1805330Y-1925929D01*
X1804517Y-1920748D01*
X1804212Y-1914804D01*
X1784451Y-1914804D01*
X1784451Y-1933905D01*
X1771700Y-1933905D01*
X1771700Y-1895652D01*
X1750931Y-1895652D01*
X1755800Y-1942490D01*
X1790395Y-1953971D01*
X1825904Y-1937004D01*
X1829968Y-1908403D01*
X1836775Y-1908403D01*
X1841296Y-1908962D01*
X1848662Y-1910537D01*
X1857806Y-1912823D01*
X1891842Y-1922881D01*
X1795373Y-1985873D01*
X1681581Y-1953412D01*
X1653844Y-1945182D01*
X1640332Y-1940306D01*
X1634693Y-1937359D01*
X1632813Y-1935886D01*
X1631543Y-1934413D01*
X1630832Y-1932939D01*
X1630781Y-1931416D01*
X1590911Y-1931416D01*
X1594104Y-1943455D01*
X1586941Y-1932228D01*
X1585366Y-1929180D01*
X1583639Y-1924761D01*
X1579981Y-1912721D01*
X1576476Y-1897837D01*
X1573428Y-1881682D01*
X1567129Y-1842414D01*
X1555087Y-1842414D01*
X1560474Y-1906676D01*
X1576324Y-1944725D01*
X1577441Y-1947976D01*
X1578000Y-1950669D01*
X1578000Y-1952701D01*
X1577238Y-1954225D01*
X1575714Y-1955190D01*
X1573377Y-1955647D01*
X1570075Y-1955647D01*
X1565757Y-1955190D01*
X1553819Y-1953006D01*
X1475486Y-1936242D01*
X1453794Y-1866950D01*
X1452981Y-1782216D01*
X1438069Y-1782216D01*
X1432509Y-1808734D01*
X1437335Y-1851202D01*
X1439062Y-1862429D01*
X1441196Y-1874062D01*
X1443583Y-1885492D01*
X1446174Y-1896059D01*
X1448765Y-1905203D01*
X1459179Y-1934870D01*
X1433931Y-1929384D01*
X1411630Y-1923592D01*
X1400606Y-1920341D01*
X1373479Y-1911604D01*
X1365046Y-1893925D01*
X1363167Y-1889607D01*
X1359052Y-1877466D01*
X1354836Y-1862226D01*
X1350975Y-1845767D01*
X1342186Y-1799082D01*
X1331933Y-1799082D01*
X1330045Y-1825752D01*
X1352092Y-1907184D01*
X1376070Y-1932939D01*
X1452372Y-1948027D01*
X1522195Y-1962251D01*
X1609852Y-1962251D01*
X1609902Y-1958086D01*
X1610512Y-1954936D01*
X1611782Y-1952701D01*
X1613865Y-1951380D01*
X1616862Y-1950923D01*
X1620977Y-1951278D01*
X1626260Y-1952345D01*
X1640941Y-1956663D01*
X1668119Y-1965299D01*
X1728063Y-1983333D01*
X1784451Y-1999538D01*
X1784451Y-2041855D01*
X1803603Y-2041855D01*
X1803603Y-1999132D01*
X1861261Y-1961845D01*
X1905609Y-1933498D01*
X1905609Y-1975916D01*
X1803603Y-2041855D01*
X1784451Y-2041855D01*
X1784451Y-2043785D01*
X1613458Y-1995068D01*
X1610258Y-1967433D01*
X1609852Y-1962251D01*
X1522195Y-1962251D01*
X1589684Y-1976170D01*
X1596745Y-2006092D01*
X1787652Y-2061718D01*
X1798472Y-2059076D01*
X1803247Y-2057146D01*
X1811375Y-2053082D01*
X1822043Y-2047189D01*
X1848866Y-2031441D01*
X1918106Y-1988108D01*
X1918360Y-1911451D01*
X1878431Y-1901850D01*
X1865782Y-1898243D01*
X1855419Y-1894687D01*
X1851406Y-1893062D01*
X1848510Y-1891588D01*
X1846732Y-1890369D01*
X1841398Y-1885035D01*
X1907438Y-1685848D01*
X1929587Y-1617726D01*
X1937613Y-1594510D01*
X1941169Y-1585315D01*
X1944522Y-1577543D01*
X1947722Y-1571091D01*
X1950821Y-1565910D01*
X1953971Y-1561846D01*
X1957222Y-1558798D01*
X1960676Y-1556715D01*
X1964334Y-1555496D01*
X1968398Y-1554988D01*
X1972818Y-1555089D01*
X1977745Y-1555750D01*
X1989378Y-1558239D01*
X2003958Y-1561693D01*
X2265730Y-1610461D01*
X2266797Y-1610360D01*
X2270963Y-1608886D01*
X2277719Y-1605889D01*
X2297582Y-1595780D01*
X2323744Y-1581454D01*
X2389784Y-1543405D01*
X2401620Y-1536852D01*
X2410612Y-1532331D01*
X2417013Y-1529689D01*
X2419350Y-1529080D01*
X2421128Y-1528978D01*
X2422448Y-1529283D01*
X2423261Y-1530096D01*
X2423617Y-1531315D01*
X2423566Y-1532991D01*
X2422398Y-1537665D01*
X2420061Y-1544015D01*
X2402027Y-1587347D01*
X2385212Y-1587449D01*
X2366721Y-1588058D01*
X2332685Y-1589633D01*
X2332685Y-1600911D01*
X2374138Y-1607261D01*
X2385060Y-1598574D01*
X2387498Y-1597101D01*
X2389479Y-1596339D01*
X2391003Y-1596237D01*
X2392121Y-1596847D01*
X2392832Y-1598218D01*
X2393035Y-1600301D01*
X2392832Y-1603197D01*
X2391105Y-1611325D01*
X2387549Y-1622704D01*
X2382164Y-1637487D01*
X2352758Y-1711096D01*
X2368702Y-1711096D01*
X2470658Y-1459687D01*
X2476601Y-1458518D01*
X2480360Y-1458366D01*
X2486355Y-1458874D01*
X2493670Y-1459890D01*
X2501544Y-1461363D01*
X2520594Y-1465376D01*
X2523286Y-1484426D01*
X2424938Y-1726692D01*
X2402687Y-1724558D01*
X2393594Y-1723288D01*
X2385263Y-1721408D01*
X2378659Y-1719122D01*
X2374595Y-1716786D01*
X2368702Y-1711096D01*
X2352758Y-1711096D01*
X2350573Y-1731619D01*
X2439924Y-1731619D01*
X2525115Y-1519783D01*
X2536342Y-1492808D01*
X2540355Y-1483766D01*
X2543505Y-1477264D01*
X2545943Y-1472996D01*
X2547772Y-1470710D01*
X2548534Y-1470202D01*
X2549194Y-1470050D01*
X2549804Y-1470253D01*
X2550820Y-1471472D01*
X2556560Y-1486052D01*
X2489606Y-1664919D01*
X2470962Y-1714144D01*
X2465476Y-1727403D01*
X2461615Y-1735785D01*
X2460548Y-1737614D01*
X2456891Y-1742084D01*
X2439924Y-1731619D01*
X2350573Y-1731619D01*
X2343962Y-1793646D01*
X2293467Y-1793646D01*
X2256383Y-1830730D01*
X2205329Y-1823872D01*
X2188819Y-1837537D01*
X2179472Y-1831644D01*
X2174290Y-1829307D01*
X2167178Y-1827428D01*
X2159000Y-1826107D01*
X2150668Y-1825599D01*
X2131263Y-1825548D01*
X2117191Y-1839569D01*
X2071573Y-1823059D01*
X2026818Y-1844395D01*
X1994814Y-1832203D01*
X1978914Y-1838299D01*
X1972716Y-1841042D01*
X1967636Y-1844039D01*
X1964232Y-1846986D01*
X1962962Y-1849475D01*
X1962962Y-1854555D01*
X2042668Y-1853692D01*
X2076043Y-1836978D01*
X2112772Y-1856232D01*
X2147620Y-1835657D01*
X2193696Y-1852320D01*
X2207717Y-1838299D01*
X2242667Y-1838299D01*
X2249728Y-1849678D01*
X2229307Y-1905203D01*
X2229023Y-1976526D01*
X2236165Y-1976526D01*
X2240889Y-1939391D01*
X2242616Y-1928926D01*
X2244801Y-1917598D01*
X2250033Y-1894636D01*
X2252878Y-1884324D01*
X2264156Y-1847850D01*
X2295093Y-1806397D01*
X2312263Y-1806905D01*
X2319578Y-1807362D01*
X2326792Y-1808225D01*
X2332990Y-1809343D01*
X2337460Y-1810613D01*
X2345436Y-1813814D01*
X2345436Y-1824583D01*
X2357170Y-1824583D01*
X2360879Y-1814982D01*
X2362301Y-1808530D01*
X2363470Y-1798015D01*
X2364282Y-1784959D01*
X2364536Y-1770786D01*
X2364536Y-1736242D01*
X2385618Y-1737715D01*
X2401062Y-1739646D01*
X2422601Y-1743608D01*
X2422087Y-1748993D01*
X2434691Y-1748993D01*
X2441956Y-1749958D01*
X2448712Y-1751939D01*
X2460193Y-1756460D01*
X2460193Y-1810207D01*
X2452464Y-1817928D01*
X2472944Y-1817928D01*
X2472944Y-1756918D01*
X2520035Y-1628343D01*
X2525268Y-1615135D01*
X2549398Y-1615135D01*
X2549398Y-1602384D01*
X2530602Y-1602384D01*
X2552395Y-1542491D01*
X2563672Y-1513332D01*
X2573985Y-1488643D01*
X2578049Y-1479753D01*
X2590546Y-1455724D01*
X2606802Y-1455724D01*
X2606700Y-1464767D01*
X2604312Y-1473962D01*
X2591612Y-1515465D01*
X2571140Y-1578559D01*
X2544826Y-1658112D01*
X2536472Y-1683969D01*
X2556154Y-1683969D01*
X2556357Y-1681886D01*
X2558440Y-1672843D01*
X2562707Y-1657553D01*
X2569057Y-1636471D01*
X2587548Y-1578559D01*
X2625039Y-1465275D01*
X2664155Y-1461312D01*
X2663850Y-1472844D01*
X2663494Y-1476095D01*
X2661158Y-1486865D01*
X2657144Y-1501952D01*
X2651861Y-1519428D01*
X2636617Y-1565757D01*
X2655468Y-1565757D01*
X2655773Y-1562658D01*
X2656586Y-1558442D01*
X2659888Y-1545996D01*
X2683814Y-1468475D01*
X2697022Y-1468475D01*
X2691536Y-1493266D01*
X2688386Y-1505102D01*
X2684373Y-1518818D01*
X2679954Y-1532839D01*
X2667355Y-1570126D01*
X2659024Y-1570278D01*
X2657500Y-1569974D01*
X2656382Y-1569262D01*
X2655671Y-1567891D01*
X2655468Y-1565757D01*
X2636617Y-1565757D01*
X2634335Y-1572666D01*
X2631430Y-1573733D01*
X2685288Y-1573733D01*
X2685491Y-1571244D01*
X2687218Y-1563065D01*
X2690368Y-1551482D01*
X2694686Y-1537462D01*
X2699766Y-1522069D01*
X2705252Y-1506270D01*
X2710840Y-1491132D01*
X2716174Y-1477670D01*
X2720898Y-1466951D01*
X2722930Y-1462887D01*
X2724658Y-1459941D01*
X2729331Y-1453337D01*
X2733903Y-1447952D01*
X2737815Y-1444345D01*
X2740558Y-1442974D01*
X2745333Y-1442974D01*
X2728112Y-1516329D01*
X2727909Y-1584858D01*
X2699664Y-1579067D01*
X2687878Y-1575968D01*
X2685592Y-1574952D01*
X2685288Y-1573733D01*
X2631430Y-1573733D01*
X2608376Y-1582267D01*
X2604991Y-1587093D01*
X2745435Y-1587093D01*
X2751328Y-1465021D01*
X2769311Y-1429258D01*
X2809798Y-1404112D01*
X2812609Y-1423873D01*
X2829864Y-1423873D01*
X2829864Y-1392428D01*
X2855366Y-1378762D01*
X2858496Y-1402791D01*
X2874518Y-1402791D01*
X2874518Y-1366570D01*
X2931871Y-1274368D01*
X2931871Y-1395984D01*
X2899613Y-1414119D01*
X2888234Y-1420063D01*
X2884119Y-1421638D01*
X2880969Y-1422298D01*
X2878582Y-1421892D01*
X2876854Y-1420418D01*
X2875686Y-1417828D01*
X2875026Y-1414068D01*
X2874670Y-1409090D01*
X2874518Y-1402791D01*
X2858496Y-1402791D01*
X2861005Y-1423873D01*
X2812609Y-1423873D01*
X2813964Y-1433423D01*
X2844901Y-1436522D01*
X2848559Y-1437335D01*
X2851251Y-1438452D01*
X2853029Y-1440129D01*
X2853893Y-1442516D01*
X2853944Y-1445768D01*
X2853080Y-1450086D01*
X2851454Y-1455623D01*
X2845866Y-1471015D01*
X2828544Y-1516329D01*
X2828272Y-1529080D01*
X2842818Y-1529080D01*
X2871317Y-1446326D01*
X2922320Y-1417675D01*
X2954121Y-1418793D01*
X2963519Y-1419606D01*
X2971749Y-1420622D01*
X2977642Y-1421790D01*
X2988360Y-1424635D01*
X2957118Y-1470660D01*
X2953308Y-1483766D01*
X2970428Y-1483766D01*
X2971444Y-1479346D01*
X2974492Y-1472438D01*
X2979064Y-1464056D01*
X2984652Y-1455064D01*
X2999232Y-1433423D01*
X3031947Y-1429562D01*
X3047339Y-1453337D01*
X3050590Y-1459179D01*
X3052318Y-1463040D01*
X3052470Y-1464970D01*
X3051149Y-1464868D01*
X3048304Y-1462735D01*
X3043986Y-1458468D01*
X3023565Y-1434998D01*
X2995472Y-1443888D01*
X2983077Y-1467358D01*
X2978251Y-1475892D01*
X2974238Y-1481836D01*
X2971495Y-1484680D01*
X2970428Y-1483766D01*
X2953308Y-1483766D01*
X2936798Y-1540560D01*
X2940414Y-1612798D01*
X2951022Y-1612798D01*
X2951988Y-1541830D01*
X2966974Y-1492097D01*
X2966442Y-1512976D01*
X2981198Y-1512976D01*
X3003042Y-1455724D01*
X3016402Y-1455724D01*
X3011017Y-1496060D01*
X3008680Y-1508760D01*
X3006140Y-1519174D01*
X3004870Y-1523136D01*
X3003702Y-1526032D01*
X3002635Y-1527759D01*
X2997657Y-1532788D01*
X2981198Y-1512976D01*
X2966442Y-1512976D01*
X2965303Y-1557731D01*
X2977134Y-1557731D01*
X2977388Y-1551787D01*
X2978251Y-1546606D01*
X2980893Y-1535430D01*
X2990596Y-1557731D01*
X2980893Y-1580083D01*
X2978251Y-1568907D01*
X2977388Y-1563674D01*
X2977134Y-1557731D01*
X2965303Y-1557731D01*
X2963145Y-1640636D01*
X2976524Y-1640636D01*
X2976524Y-1596745D01*
X2987802Y-1589786D01*
X2991090Y-1602384D01*
X3002026Y-1602384D01*
X3002026Y-1545742D01*
X3012948Y-1538986D01*
X3013668Y-1539697D01*
X3027476Y-1539697D01*
X3027476Y-1507286D01*
X3027781Y-1494688D01*
X3028492Y-1484376D01*
X3029559Y-1477416D01*
X3030829Y-1474876D01*
X3033268Y-1476349D01*
X3035909Y-1480362D01*
X3038551Y-1486255D01*
X3041040Y-1493418D01*
X3043174Y-1501190D01*
X3044698Y-1508912D01*
X3045510Y-1516024D01*
X3045307Y-1521764D01*
X3043428Y-1534414D01*
X3027476Y-1539697D01*
X3013668Y-1539697D01*
X3017062Y-1543050D01*
X3019145Y-1546301D01*
X3020568Y-1550873D01*
X3021380Y-1556512D01*
X3021584Y-1562811D01*
X3021228Y-1569567D01*
X3020364Y-1576425D01*
X3019094Y-1583080D01*
X3017418Y-1589176D01*
X3015386Y-1594510D01*
X3013049Y-1598676D01*
X3010458Y-1601419D01*
X3007715Y-1602384D01*
X2991090Y-1602384D01*
X2992267Y-1609496D01*
X3033877Y-1609496D01*
X3033877Y-1558493D01*
X3046628Y-1550619D01*
X3046628Y-1601622D01*
X3033877Y-1609496D01*
X2992267Y-1609496D01*
X2992526Y-1614932D01*
X2992069Y-1621332D01*
X2991053Y-1627327D01*
X2989427Y-1632610D01*
X2987344Y-1636826D01*
X2984906Y-1639620D01*
X2982112Y-1640636D01*
X2963145Y-1640636D01*
X2963062Y-1643837D01*
X2972126Y-1661007D01*
X2994914Y-1661007D01*
X3014116Y-1615135D01*
X3020009Y-1615135D01*
X3022854Y-1615795D01*
X3026257Y-1617573D01*
X3029712Y-1620266D01*
X3032861Y-1623517D01*
X3039821Y-1631848D01*
X3031299Y-1649120D01*
X3049117Y-1649120D01*
X3049778Y-1642922D01*
X3051403Y-1634439D01*
X3053842Y-1624533D01*
X3060750Y-1599590D01*
X3057753Y-1524711D01*
X3056890Y-1485544D01*
X3057144Y-1476146D01*
X3057448Y-1474876D01*
X3058769Y-1475689D01*
X3060090Y-1478076D01*
X3061360Y-1481886D01*
X3062579Y-1486916D01*
X3064814Y-1500225D01*
X3066592Y-1516735D01*
X3067710Y-1535226D01*
X3068015Y-1544878D01*
X3067862Y-1599184D01*
X3059988Y-1626920D01*
X3056737Y-1637487D01*
X3053689Y-1645767D01*
X3051200Y-1650898D01*
X3049574Y-1652066D01*
X3049117Y-1649120D01*
X3031299Y-1649120D01*
X3013151Y-1685798D01*
X3005988Y-1683410D01*
X3003042Y-1681683D01*
X3000349Y-1678787D01*
X2998216Y-1675079D01*
X2996895Y-1671015D01*
X2994914Y-1661007D01*
X2972126Y-1661007D01*
X2974594Y-1665681D01*
X2979928Y-1674672D01*
X2986074Y-1683105D01*
X2992221Y-1689963D01*
X2997606Y-1694332D01*
X3009087Y-1701190D01*
X3027883Y-1680362D01*
X3035147Y-1672742D01*
X3041091Y-1667306D01*
X3045155Y-1664614D01*
X3046628Y-1665122D01*
X3045409Y-1668576D01*
X3042056Y-1673961D01*
X3037078Y-1680514D01*
X3030982Y-1687525D01*
X3015335Y-1704390D01*
X2995625Y-1704390D01*
X2970834Y-1679600D01*
X2951022Y-1612798D01*
X2940414Y-1612798D01*
X2942285Y-1650187D01*
X2964078Y-1691639D01*
X2925165Y-1691639D01*
X2917240Y-1651914D01*
X2875026Y-1609699D01*
X2845816Y-1605584D01*
X2842818Y-1529080D01*
X2828272Y-1529080D01*
X2826715Y-1602333D01*
X2817063Y-1602181D01*
X2809341Y-1601063D01*
X2798368Y-1598980D01*
X2785414Y-1596237D01*
X2745435Y-1587093D01*
X2604991Y-1587093D01*
X2592882Y-1604619D01*
X2586380Y-1616354D01*
X2579370Y-1630730D01*
X2572715Y-1645970D01*
X2564231Y-1667611D01*
X2559151Y-1679702D01*
X2557526Y-1682902D01*
X2556560Y-1684324D01*
X2556306Y-1684375D01*
X2556154Y-1683969D01*
X2536472Y-1683969D01*
X2528671Y-1708607D01*
X2522270Y-1729638D01*
X2518460Y-1743151D01*
X2517648Y-1746707D01*
X2517546Y-1748993D01*
X2536647Y-1748993D01*
X2536647Y-1719580D01*
X2555392Y-1694840D01*
X2555520Y-1711858D01*
X2567330Y-1711858D01*
X2588564Y-1637436D01*
X2619705Y-1589633D01*
X2643530Y-1590344D01*
X2653792Y-1590852D01*
X2664104Y-1591665D01*
X2673248Y-1592681D01*
X2680106Y-1593799D01*
X2723134Y-1603044D01*
X2696159Y-1631746D01*
X2662631Y-1713941D01*
X2661920Y-1726692D01*
X2675636Y-1726692D01*
X2709316Y-1637690D01*
X2736494Y-1608734D01*
X2756916Y-1609801D01*
X2767838Y-1610969D01*
X2781350Y-1612849D01*
X2795778Y-1615135D01*
X2836367Y-1622501D01*
X2798826Y-1675688D01*
X2777490Y-1750771D01*
X2781197Y-1836775D01*
X2790139Y-1836775D01*
X2796641Y-1733092D01*
X2817266Y-1667357D01*
X2854147Y-1627886D01*
X2863850Y-1627886D01*
X2867253Y-1628241D01*
X2870708Y-1629308D01*
X2874264Y-1631035D01*
X2877870Y-1633372D01*
X2881477Y-1636318D01*
X2885033Y-1639824D01*
X2888538Y-1643837D01*
X2891993Y-1648358D01*
X2895295Y-1653336D01*
X2898444Y-1658721D01*
X2901442Y-1664563D01*
X2912973Y-1691690D01*
X2920746Y-1766316D01*
X2905709Y-1852777D01*
X2875737Y-1912010D01*
X2842615Y-1929688D01*
X2811170Y-1900224D01*
X2790139Y-1836775D01*
X2781197Y-1836775D01*
X2782773Y-1873351D01*
X2805582Y-1916480D01*
X2775915Y-1909724D01*
X2701188Y-1894484D01*
X2675890Y-1837283D01*
X2675636Y-1726692D01*
X2661920Y-1726692D01*
X2656890Y-1815947D01*
X2671673Y-1870252D01*
X2673502Y-1878482D01*
X2673705Y-1881428D01*
X2673350Y-1883664D01*
X2672384Y-1885188D01*
X2670759Y-1886153D01*
X2668371Y-1886559D01*
X2665222Y-1886457D01*
X2661208Y-1886000D01*
X2597200Y-1873351D01*
X2571851Y-1822348D01*
X2567330Y-1711858D01*
X2555520Y-1711858D01*
X2555798Y-1748993D01*
X2517546Y-1748993D01*
X2517546Y-1756054D01*
X2555798Y-1769414D01*
X2555900Y-1789480D01*
X2556205Y-1798472D01*
X2557119Y-1808124D01*
X2558440Y-1817217D01*
X2560015Y-1824634D01*
X2564028Y-1839722D01*
X2551938Y-1833372D01*
X2548839Y-1832000D01*
X2544622Y-1830527D01*
X2533548Y-1827530D01*
X2520340Y-1824736D01*
X2506370Y-1822500D01*
X2472944Y-1817928D01*
X2452464Y-1817928D01*
X2449169Y-1820824D01*
X2445613Y-1823262D01*
X2442362Y-1824939D01*
X2439771Y-1825548D01*
X2434691Y-1825548D01*
X2434691Y-1748993D01*
X2422087Y-1748993D01*
X2415692Y-1814982D01*
X2413101Y-1835607D01*
X2404465Y-1834235D01*
X2357170Y-1824583D01*
X2345436Y-1824583D01*
X2345436Y-1836877D01*
X2378405Y-1845157D01*
X2372360Y-1852879D01*
X2370836Y-1855216D01*
X2366467Y-1863750D01*
X2360930Y-1876196D01*
X2354884Y-1890979D01*
X2337460Y-1937105D01*
X2337438Y-1960270D01*
X2350058Y-1960270D01*
X2384552Y-1849526D01*
X2425750Y-1856181D01*
X2456992Y-1832203D01*
X2469743Y-1832813D01*
X2476144Y-1833372D01*
X2484170Y-1834388D01*
X2492806Y-1835810D01*
X2519527Y-1841449D01*
X2508504Y-1850593D01*
X2506065Y-1852879D01*
X2500376Y-1859584D01*
X2494229Y-1868220D01*
X2488438Y-1877720D01*
X2474264Y-1905254D01*
X2459281Y-2004060D01*
X2474112Y-2004060D01*
X2480818Y-1951228D01*
X2483307Y-1934514D01*
X2486101Y-1920392D01*
X2487625Y-1914093D01*
X2491130Y-1902866D01*
X2493111Y-1897735D01*
X2497785Y-1888185D01*
X2500477Y-1883613D01*
X2506726Y-1874520D01*
X2514295Y-1865020D01*
X2531414Y-1844649D01*
X2554630Y-1844649D01*
X2586482Y-1882495D01*
X2608173Y-1947722D01*
X2602941Y-2083714D01*
X2568448Y-2150465D01*
X2536698Y-2158441D01*
X2518511Y-2151481D01*
X2485542Y-2095195D01*
X2474112Y-2004060D01*
X2459281Y-2004060D01*
X2473198Y-2094382D01*
X2496820Y-2145284D01*
X2496820Y-2145842D01*
X2496058Y-2146198D01*
X2492197Y-2146198D01*
X2485237Y-2145284D01*
X2474976Y-2143404D01*
X2461412Y-2140610D01*
X2423871Y-2132025D01*
X2380742Y-2121611D01*
X2356967Y-2058212D01*
X2350058Y-1960270D01*
X2337438Y-1960270D01*
X2337358Y-2045462D01*
X2352395Y-2089505D01*
X2356358Y-2102561D01*
X2358745Y-2112416D01*
X2359253Y-2115769D01*
X2359304Y-2117902D01*
X2358796Y-2118563D01*
X2352395Y-2117648D01*
X2341524Y-2115566D01*
X2312771Y-2109266D01*
X2285441Y-2102662D01*
X2276398Y-2100224D01*
X2272588Y-2098802D01*
X2270048Y-2095500D01*
X2267458Y-2091182D01*
X2264765Y-2086000D01*
X2262022Y-2080107D01*
X2256637Y-2066289D01*
X2251557Y-2050694D01*
X2247087Y-2034032D01*
X2243480Y-2017115D01*
X2236165Y-1976526D01*
X2229023Y-1976526D01*
X2228799Y-2032711D01*
X2245664Y-2076196D01*
X2251811Y-2090013D01*
X2257704Y-2101443D01*
X2260295Y-2105863D01*
X2262581Y-2109114D01*
X2264410Y-2111146D01*
X2272131Y-2117344D01*
X2411984Y-2145741D01*
X2447137Y-2153107D01*
X2458974Y-2155799D01*
X2467457Y-2158034D01*
X2472994Y-2159914D01*
X2475890Y-2161590D01*
X2476500Y-2162352D01*
X2476601Y-2163165D01*
X2476195Y-2163927D01*
X2474264Y-2165604D01*
X2453132Y-2176983D01*
X2399131Y-2156358D01*
X2382469Y-2162708D01*
X2375662Y-2165654D01*
X2369515Y-2169109D01*
X2364638Y-2172563D01*
X2361742Y-2175560D01*
X2357678Y-2182164D01*
X2321509Y-2174900D01*
X2306370Y-2182977D01*
X2299766Y-2186889D01*
X2293823Y-2191207D01*
X2288590Y-2195830D01*
X2284171Y-2200757D01*
X2280564Y-2205786D01*
X2277922Y-2210866D01*
X2276297Y-2215896D01*
X2275738Y-2220823D01*
X2275789Y-2230374D01*
X2306828Y-2192324D01*
X2361387Y-2194001D01*
X2383028Y-2174798D01*
X2416911Y-2179828D01*
X2430729Y-2181199D01*
X2445258Y-2182063D01*
X2460091Y-2182469D01*
X2474620Y-2182418D01*
X2488438Y-2181910D01*
X2500985Y-2180945D01*
X2511755Y-2179624D01*
X2520238Y-2177897D01*
X2523490Y-2176881D01*
X2525979Y-2175764D01*
X2530602Y-2172716D01*
X2535224Y-2171192D01*
X2540812Y-2170176D01*
X2546756Y-2169820D01*
X2561082Y-2169820D01*
X2595270Y-2133549D01*
X2624785Y-2139188D01*
X2639110Y-2112416D01*
X2654046Y-2112416D01*
X2657500Y-2112213D01*
X2666288Y-2110790D01*
X2676448Y-2108250D01*
X2686812Y-2104847D01*
X2714447Y-2093417D01*
X2732684Y-2100427D01*
X2775712Y-2074062D01*
X2831693Y-2082292D01*
X2823057Y-2068271D01*
X2777490Y-2059736D01*
X2733852Y-2080564D01*
X2698445Y-2080564D01*
X2673705Y-2099259D01*
X2638552Y-2099665D01*
X2616708Y-2125167D01*
X2599029Y-2125167D01*
X2603957Y-2112162D01*
X2609392Y-2093925D01*
X2614015Y-2076653D01*
X2620975Y-2048916D01*
X2617266Y-1974443D01*
X2614879Y-1940661D01*
X2612085Y-1914804D01*
X2610713Y-1906828D01*
X2610104Y-1904390D01*
X2605684Y-1890775D01*
X2657754Y-1901088D01*
X2850540Y-1940763D01*
X2882087Y-1920087D01*
X2921355Y-1856892D01*
X2940253Y-1864156D01*
X2969310Y-1836826D01*
X3065729Y-1841703D01*
X3065729Y-1836674D01*
X3064611Y-1834286D01*
X3061512Y-1831644D01*
X3056991Y-1829003D01*
X3051403Y-1826717D01*
X3037078Y-1821840D01*
X2963316Y-1823923D01*
X2951886Y-1834286D01*
X2946857Y-1838299D01*
X2941726Y-1841601D01*
X2937002Y-1843836D01*
X2933344Y-1844649D01*
X2926232Y-1844649D01*
X2931871Y-1735937D01*
X2932633Y-1725371D01*
X2933750Y-1717548D01*
X2934512Y-1714500D01*
X2935427Y-1712010D01*
X2936544Y-1710080D01*
X2937865Y-1708556D01*
X2939440Y-1707540D01*
X2941320Y-1706880D01*
X2943504Y-1706524D01*
X2948889Y-1706829D01*
X2955848Y-1708048D01*
X2975356Y-1712061D01*
X3014878Y-1719427D01*
X3052521Y-1683308D01*
X3075330Y-1627479D01*
X3088081Y-1628394D01*
X3101594Y-1628901D01*
X3110433Y-1627987D01*
X3115259Y-1625600D01*
X3116732Y-1621485D01*
X3116732Y-1615135D01*
X3081680Y-1615135D01*
X3081680Y-1497177D01*
X3058922Y-1438198D01*
X3035503Y-1416964D01*
X2947822Y-1400810D01*
X2944266Y-1240891D01*
X2919780Y-1233525D01*
X2909366Y-1230731D01*
X2899003Y-1228445D01*
X2889910Y-1226921D01*
X2883357Y-1226464D01*
X2871317Y-1226667D01*
X2648204Y-1358696D01*
X2644800Y-1159256D01*
X2700070Y-1019657D01*
X2703982Y-1008887D01*
X2707081Y-999337D01*
X2709367Y-990752D01*
X2710789Y-982980D01*
X2711348Y-975766D01*
X2711297Y-972312D01*
X2710535Y-965504D01*
X2708859Y-958697D01*
X2706370Y-951636D01*
X2702915Y-944118D01*
X2698546Y-935888D01*
X2687066Y-916432D01*
X2629103Y-821385D01*
X2438552Y-796645D01*
X2400096Y-762254D01*
X2480056Y-722325D01*
X2509266Y-708406D01*
X2532227Y-697839D01*
X2552954Y-688644D01*
X2586228Y-674573D01*
X2606802Y-665022D01*
X2629611Y-653846D01*
X2658516Y-639013D01*
X2737459Y-595833D01*
X2773172Y-559054D01*
X2778810Y-553618D01*
X2783890Y-549808D01*
X2786278Y-548487D01*
X2788666Y-547674D01*
X2791053Y-547268D01*
X2793542Y-547319D01*
X2796133Y-547878D01*
X2798927Y-548894D01*
X2801924Y-550418D01*
X2808732Y-555091D01*
X2817012Y-561898D01*
X2827070Y-571042D01*
X2909620Y-649224D01*
X2968345Y-689152D01*
X2988564Y-703681D01*
X3010408Y-720191D01*
X3032302Y-737412D01*
X3052419Y-754024D01*
X3061309Y-761644D01*
X3112820Y-807669D01*
X3117900Y-792429D01*
X3070606Y-750112D01*
X3054654Y-736346D01*
X3039008Y-723188D01*
X3018586Y-706678D01*
X2998774Y-691388D01*
X2979674Y-677316D01*
X2970377Y-670763D01*
X2956864Y-661619D01*
X2910128Y-631748D01*
X2822041Y-547014D01*
X2812846Y-538937D01*
X2805226Y-533247D01*
X2801823Y-531266D01*
X2798673Y-529844D01*
X2795676Y-529031D01*
X2792780Y-528726D01*
X2789936Y-528929D01*
X2787142Y-529691D01*
X2784246Y-530961D01*
X2781249Y-532739D01*
X2774645Y-537768D01*
X2766974Y-544677D01*
X2716428Y-591820D01*
X2624277Y-638098D01*
X2566111Y-666597D01*
X2506116Y-695452D01*
X2451862Y-721004D01*
X2410968Y-739698D01*
X2397912Y-745337D01*
X2390394Y-748030D01*
X2389327Y-747572D01*
X2384653Y-744067D01*
X2377033Y-737565D01*
X2355291Y-717346D01*
X2342235Y-704596D01*
X2284882Y-647598D01*
X2216353Y-623722D01*
X2138273Y-544017D01*
X2112568Y-544017D01*
X2055368Y-617321D01*
X2053336Y-571144D01*
X2052320Y-555396D01*
X2051050Y-541375D01*
X2049678Y-530707D01*
X2045919Y-513537D01*
X1924913Y-491388D01*
X1888439Y-484936D01*
X1878533Y-483514D01*
X1868779Y-482498D01*
X1848662Y-481126D01*
G37*
G36*
X2669286Y-494182D02*
G01*
X2666796Y-494284D01*
X2663444Y-496062D01*
X2658922Y-499516D01*
X2630840Y-525373D01*
X2652725Y-525373D01*
X2669387Y-511505D01*
X2674416Y-519684D01*
X2676448Y-523646D01*
X2678226Y-528370D01*
X2679547Y-533247D01*
X2680208Y-537768D01*
X2680919Y-547674D01*
X2658567Y-547674D01*
X2652725Y-525373D01*
X2630840Y-525373D01*
X2624632Y-531164D01*
X2645714Y-539292D01*
X2644343Y-558495D01*
X2644140Y-568807D01*
X2644343Y-572109D01*
X2645054Y-577900D01*
X2668727Y-556412D01*
X2702407Y-569214D01*
X2702407Y-562559D01*
X2701899Y-559054D01*
X2700578Y-554431D01*
X2698597Y-549300D01*
X2696159Y-544220D01*
X2689860Y-532536D01*
X2699308Y-528929D01*
X2703017Y-526999D01*
X2706014Y-524408D01*
X2708046Y-521563D01*
X2708757Y-518718D01*
X2708757Y-512165D01*
X2678277Y-512165D01*
X2672892Y-498398D01*
X2671216Y-495554D01*
G37*
G36*
X1502105Y-505764D02*
G01*
X1443431Y-505815D01*
X1401876Y-531164D01*
X1381990Y-563829D01*
X1400708Y-563829D01*
X1403451Y-555498D01*
X1406194Y-551180D01*
X1411579Y-545439D01*
X1418894Y-539089D01*
X1427327Y-532841D01*
X1434439Y-528370D01*
X1441348Y-524611D01*
X1447850Y-521665D01*
X1453642Y-519531D01*
X1458620Y-518363D01*
X1462430Y-518210D01*
X1464868Y-519125D01*
X1465732Y-521157D01*
X1465072Y-522122D01*
X1460195Y-526084D01*
X1451406Y-532180D01*
X1439773Y-539750D01*
X1400708Y-563829D01*
X1381990Y-563829D01*
X1376578Y-572719D01*
X1376574Y-575665D01*
X1412443Y-575665D01*
X1420266Y-569010D01*
X1438097Y-555904D01*
X1464564Y-537260D01*
X1476756Y-528929D01*
X1486255Y-522732D01*
X1491843Y-519328D01*
X1492859Y-518972D01*
X1519936Y-529386D01*
X1477518Y-550824D01*
X1462176Y-557987D01*
X1447647Y-564235D01*
X1435658Y-568858D01*
X1412443Y-575665D01*
X1376574Y-575665D01*
X1376527Y-615035D01*
X1389278Y-615035D01*
X1389278Y-595934D01*
X1431036Y-583692D01*
X1442313Y-579882D01*
X1454150Y-575360D01*
X1465986Y-570433D01*
X1477111Y-565404D01*
X1486966Y-560476D01*
X1519936Y-541578D01*
X1496923Y-568147D01*
X1449222Y-591210D01*
X1432915Y-598678D01*
X1418386Y-605028D01*
X1407312Y-609447D01*
X1389278Y-615035D01*
X1376527Y-615035D01*
X1376527Y-646887D01*
X1389278Y-646887D01*
X1389278Y-626922D01*
X1399235Y-626922D01*
X1402181Y-626414D01*
X1406753Y-625094D01*
X1412798Y-623011D01*
X1428140Y-616813D01*
X1446326Y-608685D01*
X1502714Y-581304D01*
X1517192Y-565861D01*
X1523288Y-559866D01*
X1529181Y-554939D01*
X1534109Y-551637D01*
X1537512Y-550418D01*
X1543304Y-550418D01*
X1541170Y-556056D01*
X1540154Y-557682D01*
X1535074Y-563321D01*
X1526743Y-571347D01*
X1516176Y-580796D01*
X1481683Y-609752D01*
X1443126Y-627024D01*
X1429562Y-632815D01*
X1417066Y-637844D01*
X1407109Y-641502D01*
X1389278Y-646887D01*
X1376527Y-646887D01*
X1376527Y-648411D01*
X1385813Y-661974D01*
X1404010Y-661974D01*
X1488389Y-622655D01*
X1525066Y-591820D01*
X1542440Y-578002D01*
X1558188Y-566318D01*
X1545285Y-582828D01*
X1537614Y-591566D01*
X1528724Y-600710D01*
X1518920Y-610158D01*
X1508455Y-619658D01*
X1491945Y-633628D01*
X1480769Y-642467D01*
X1469745Y-650748D01*
X1459077Y-658266D01*
X1449070Y-664819D01*
X1439926Y-670255D01*
X1431041Y-674725D01*
X1468475Y-674725D01*
X1562303Y-586181D01*
X1558188Y-634847D01*
X1510030Y-661212D01*
X1494993Y-668782D01*
X1482852Y-674166D01*
X1478330Y-675843D01*
X1475079Y-676757D01*
X1473301Y-676757D01*
X1468475Y-674725D01*
X1431041Y-674725D01*
X1425194Y-676960D01*
X1422400Y-677672D01*
X1420063Y-677875D01*
X1409446Y-677926D01*
X1404010Y-661974D01*
X1385813Y-661974D01*
X1404975Y-689965D01*
X1427340Y-702564D01*
X1449832Y-702564D01*
X1469542Y-693978D01*
X1492300Y-683310D01*
X1523898Y-667969D01*
X1534414Y-663194D01*
X1542237Y-659942D01*
X1546301Y-658774D01*
X1547571Y-659333D01*
X1547520Y-660806D01*
X1546301Y-663092D01*
X1544066Y-666038D01*
X1537208Y-673303D01*
X1528216Y-681278D01*
X1518462Y-688746D01*
X1513636Y-691896D01*
X1509115Y-694486D01*
X1491894Y-703427D01*
X1449832Y-702564D01*
X1427340Y-702564D01*
X1451559Y-716178D01*
X1502105Y-716178D01*
X1545234Y-687070D01*
X1574647Y-636473D01*
X1569821Y-569010D01*
X1557070Y-551738D01*
X1554073Y-547979D01*
X1550416Y-543864D01*
X1541830Y-535330D01*
X1537157Y-531063D01*
X1527657Y-523341D01*
X1523187Y-520090D01*
G37*
G36*
X2414676Y-543255D02*
G01*
X2380589Y-547217D01*
X2378781Y-556768D01*
X2398471Y-556768D01*
X2402636Y-557225D01*
X2406548Y-558495D01*
X2409901Y-560425D01*
X2412085Y-562711D01*
X2415743Y-568655D01*
X2404262Y-575767D01*
X2388514Y-556768D01*
X2378781Y-556768D01*
X2375916Y-571855D01*
X2392426Y-583793D01*
X2396693Y-586282D01*
X2400401Y-587705D01*
X2403805Y-588060D01*
X2407005Y-587349D01*
X2410358Y-585571D01*
X2414066Y-582676D01*
X2428290Y-568655D01*
G37*
G36*
X3040176Y-556768D02*
G01*
X3036773Y-557225D01*
X3032353Y-558495D01*
X3027426Y-560374D01*
X3017418Y-565251D01*
X3005531Y-570280D01*
X2988970Y-575614D01*
X2993737Y-583285D01*
X3015640Y-583285D01*
X3032963Y-576681D01*
X3047238Y-593902D01*
X3034436Y-601827D01*
X3042107Y-621792D01*
X3017367Y-606348D01*
X3015640Y-583285D01*
X2993737Y-583285D01*
X3004870Y-601065D01*
X2997047Y-608888D01*
X2994050Y-612343D01*
X2991561Y-616051D01*
X2989884Y-619506D01*
X2989275Y-622300D01*
X2989275Y-627938D01*
X3025444Y-619963D01*
X3033623Y-629818D01*
X3037230Y-633628D01*
X3041040Y-636778D01*
X3044596Y-638860D01*
X3047390Y-639673D01*
X3052978Y-639673D01*
X3052978Y-607364D01*
X3062579Y-603707D01*
X3066897Y-601624D01*
X3069844Y-599389D01*
X3071418Y-596950D01*
X3071622Y-594461D01*
X3070555Y-591972D01*
X3068116Y-589635D01*
X3064408Y-587400D01*
X3059379Y-585470D01*
X3046628Y-581406D01*
X3046628Y-556768D01*
G37*
G36*
X1662785Y-563727D02*
G01*
X1660194Y-564743D01*
X1657857Y-567029D01*
X1655775Y-570636D01*
X1653895Y-575564D01*
X1649984Y-588010D01*
X1623009Y-596544D01*
X1625228Y-598220D01*
X1651914Y-598220D01*
X1666798Y-584504D01*
X1682496Y-589737D01*
X1682496Y-614172D01*
X1673707Y-614172D01*
X1669796Y-613511D01*
X1665579Y-611835D01*
X1661617Y-609295D01*
X1658416Y-606196D01*
X1651914Y-598220D01*
X1625228Y-598220D01*
X1652117Y-618540D01*
X1643380Y-646023D01*
X1649374Y-646023D01*
X1652371Y-645312D01*
X1655927Y-643280D01*
X1659686Y-640334D01*
X1663141Y-636727D01*
X1670862Y-627430D01*
X1707997Y-634847D01*
X1707997Y-628954D01*
X1707388Y-626059D01*
X1705711Y-622554D01*
X1703324Y-618845D01*
X1700326Y-615442D01*
X1692656Y-607771D01*
X1700326Y-600100D01*
X1703324Y-596747D01*
X1705711Y-593242D01*
X1707388Y-589940D01*
X1707997Y-587400D01*
X1707997Y-582269D01*
X1684020Y-582269D01*
X1676095Y-572719D01*
X1672285Y-568502D01*
X1668780Y-565607D01*
X1665630Y-564032D01*
G37*
G36*
X1902409Y-564134D02*
G01*
X1889658Y-567588D01*
X1882851Y-569772D01*
X1877060Y-572363D01*
X1872030Y-575513D01*
X1867712Y-579374D01*
X1863902Y-584149D01*
X1860550Y-589838D01*
X1857451Y-596747D01*
X1854504Y-604875D01*
X1847392Y-626465D01*
X1822907Y-611225D01*
X1801926Y-632206D01*
X1803533Y-638556D01*
X1814931Y-638556D01*
X1827631Y-625805D01*
X1836928Y-640740D01*
X1824177Y-653542D01*
X1814931Y-638556D01*
X1803533Y-638556D01*
X1810207Y-665175D01*
X1840992Y-665175D01*
X1849628Y-637997D01*
X1856610Y-652424D01*
X1867357Y-652424D01*
X1867357Y-601421D01*
X1880107Y-588670D01*
X1885086Y-584250D01*
X1890064Y-581050D01*
X1894992Y-579069D01*
X1899767Y-578307D01*
X1904390Y-578662D01*
X1908759Y-580186D01*
X1912975Y-582828D01*
X1916836Y-586587D01*
X1920443Y-591464D01*
X1923643Y-597357D01*
X1926437Y-604316D01*
X1928825Y-612292D01*
X1932939Y-628700D01*
X1921510Y-660501D01*
X1893773Y-678840D01*
X1867357Y-652424D01*
X1856610Y-652424D01*
X1869541Y-679196D01*
X1898700Y-692454D01*
X1931670Y-670864D01*
X1937766Y-654862D01*
X1939594Y-649528D01*
X1941068Y-644245D01*
X1942236Y-638911D01*
X1942998Y-633577D01*
X1943455Y-628294D01*
X1943506Y-623062D01*
X1943252Y-617829D01*
X1942642Y-612648D01*
X1941677Y-607568D01*
X1940407Y-602538D01*
X1938731Y-597611D01*
X1936750Y-592785D01*
X1929638Y-577189D01*
G37*
G36*
X1897430Y-595020D02*
G01*
X1893570Y-595630D01*
X1889252Y-597255D01*
X1884984Y-599694D01*
X1881378Y-602691D01*
X1873707Y-610311D01*
X1873707Y-626922D01*
X1886457Y-626922D01*
X1886966Y-621944D01*
X1888337Y-617270D01*
X1890369Y-613410D01*
X1892909Y-610920D01*
X1899310Y-606958D01*
X1906981Y-626922D01*
X1899310Y-646836D01*
X1892909Y-642874D01*
X1890369Y-640384D01*
X1888337Y-636524D01*
X1886966Y-631901D01*
X1886457Y-626922D01*
X1873707Y-626922D01*
X1873707Y-643483D01*
X1881378Y-651154D01*
X1884984Y-654100D01*
X1889252Y-656539D01*
X1893570Y-658164D01*
X1897430Y-658774D01*
X1905863Y-658774D01*
X1920392Y-626922D01*
X1905863Y-595020D01*
G37*
G36*
X2816606Y-607771D02*
G01*
X2811729Y-609854D01*
X2811018Y-614680D01*
X2813964Y-620268D01*
X2824937Y-627684D01*
X2830779Y-633476D01*
X2837078Y-641146D01*
X2843022Y-649833D01*
X2856433Y-671525D01*
X2874111Y-671525D01*
X2903220Y-710946D01*
X2944622Y-728268D01*
X2944622Y-741680D01*
X2963875Y-741680D01*
X2955848Y-728827D01*
X2951835Y-723595D01*
X2946857Y-718718D01*
X2941472Y-714806D01*
X2933598Y-711200D01*
X2925826Y-706374D01*
X2916123Y-699058D01*
X2905607Y-690118D01*
X2885287Y-671068D01*
X2865120Y-652780D01*
X2852064Y-639876D01*
X2840532Y-627583D01*
X2833014Y-619912D01*
X2826054Y-613613D01*
X2820314Y-609346D01*
G37*
G36*
X1765807Y-607771D02*
G01*
X1752160Y-633272D01*
X1762810Y-633272D01*
X1777695Y-618388D01*
X1786026Y-640181D01*
X1777898Y-648360D01*
X1762810Y-633272D01*
X1752160Y-633272D01*
X1751888Y-633780D01*
X1755698Y-645668D01*
X1757883Y-650595D01*
X1761032Y-655116D01*
X1764741Y-658825D01*
X1768602Y-661111D01*
X1777746Y-664616D01*
X1797202Y-645109D01*
X1797202Y-634085D01*
X1796643Y-629208D01*
X1794967Y-624078D01*
X1792528Y-619252D01*
X1789582Y-615442D01*
X1785975Y-612444D01*
X1781810Y-610006D01*
X1777593Y-608380D01*
X1773885Y-607771D01*
G37*
G36*
X2142490Y-630072D02*
G01*
X2115972Y-660196D01*
X2115972Y-695452D01*
X2105507Y-704138D01*
X2100275Y-709371D01*
X2093722Y-717296D01*
X2086660Y-726795D01*
X2079955Y-736803D01*
X2064816Y-760780D01*
X2046579Y-760780D01*
X2036622Y-774954D01*
X2032762Y-781100D01*
X2029612Y-787349D01*
X2027478Y-792988D01*
X2026716Y-797255D01*
X2027224Y-801420D01*
X2028596Y-804011D01*
X2030577Y-805230D01*
X2033016Y-805027D01*
X2035708Y-803554D01*
X2038350Y-800862D01*
X2040788Y-797052D01*
X2042820Y-792073D01*
X2047036Y-778764D01*
X2090470Y-760628D01*
X2090470Y-737666D01*
X2127453Y-702208D01*
X2130247Y-678891D01*
X2131669Y-668832D01*
X2133600Y-658672D01*
X2135682Y-649630D01*
X2137765Y-642823D01*
G37*
G36*
X1571142Y-806602D02*
G01*
X1568196Y-806805D01*
X1564741Y-808685D01*
X1560423Y-812393D01*
X1554784Y-817981D01*
X1536251Y-837793D01*
X1556308Y-837793D01*
X1572971Y-823925D01*
X1578152Y-832205D01*
X1580286Y-836218D01*
X1582267Y-840943D01*
X1583842Y-845819D01*
X1584858Y-850290D01*
X1586382Y-860094D01*
X1562150Y-860094D01*
X1556308Y-837793D01*
X1536251Y-837793D01*
X1528673Y-845921D01*
X1548638Y-857046D01*
X1548638Y-888288D01*
X1554226Y-888288D01*
X1556918Y-887628D01*
X1560220Y-885799D01*
X1563674Y-883107D01*
X1566824Y-879805D01*
X1573885Y-871372D01*
X1613712Y-877214D01*
X1598422Y-848664D01*
X1605381Y-841705D01*
X1608124Y-838606D01*
X1610309Y-835304D01*
X1611833Y-832205D01*
X1612341Y-829665D01*
X1612341Y-824534D01*
X1588414Y-824534D01*
X1576933Y-810818D01*
X1573936Y-807974D01*
G37*
G36*
X2128418Y-971448D02*
G01*
X2122119Y-971854D01*
X2115159Y-973023D01*
X2107641Y-974953D01*
X2099716Y-977696D01*
X2082596Y-984199D01*
X1976424Y-984961D01*
X1961134Y-1003401D01*
X1968500Y-1010716D01*
X1985264Y-1000302D01*
X2080869Y-996645D01*
X2099360Y-990295D01*
X2107742Y-987806D01*
X2116937Y-985824D01*
X2125776Y-984453D01*
X2133193Y-983945D01*
X2148586Y-983945D01*
X2144623Y-977544D01*
X2142134Y-974902D01*
X2138527Y-972972D01*
X2133904Y-971854D01*
G37*
G36*
X3100374Y-1041298D02*
G01*
X3092958Y-1041908D01*
X3084779Y-1043482D01*
X3076905Y-1045819D01*
X3066999Y-1050188D01*
X3062986Y-1051661D01*
X3053334Y-1054303D01*
X3042564Y-1056284D01*
X3031947Y-1057452D01*
X3007360Y-1058824D01*
X2970631Y-1085951D01*
X2939694Y-1085951D01*
X2910128Y-1109878D01*
X2862021Y-1103426D01*
X2830322Y-1124204D01*
X2782062Y-1124508D01*
X2750413Y-1148842D01*
X2758592Y-1157020D01*
X2797403Y-1136954D01*
X2834792Y-1136954D01*
X2871317Y-1117904D01*
X2912262Y-1125524D01*
X2946349Y-1098702D01*
X2977032Y-1098702D01*
X3013202Y-1071930D01*
X3062579Y-1069238D01*
X3076498Y-1061669D01*
X3082950Y-1058722D01*
X3090164Y-1056284D01*
X3097377Y-1054658D01*
X3103575Y-1054049D01*
X3116732Y-1054049D01*
X3116732Y-1041298D01*
G37*
G36*
X1809699Y-1302715D02*
G01*
X1794713Y-1335582D01*
X1798129Y-1341018D01*
X1809038Y-1341018D01*
X1813306Y-1318818D01*
X1835505Y-1314551D01*
X1843532Y-1335481D01*
X1829968Y-1349044D01*
X1809038Y-1341018D01*
X1798129Y-1341018D01*
X1808073Y-1356918D01*
X1836166Y-1361084D01*
X1854606Y-1345793D01*
X1854606Y-1318006D01*
X1839315Y-1302715D01*
G37*
G36*
X1440434Y-1339596D02*
G01*
X1394968Y-1366469D01*
X1356563Y-1346606D01*
X1323289Y-1350518D01*
X1317904Y-1367028D01*
X1347978Y-1359509D01*
X1395272Y-1379220D01*
X1453032Y-1351178D01*
X1498549Y-1367637D01*
X1536446Y-1351940D01*
X1552397Y-1359204D01*
X1559204Y-1361998D01*
X1565910Y-1364284D01*
X1571752Y-1365758D01*
X1576019Y-1366266D01*
X1583690Y-1366062D01*
X1552244Y-1339900D01*
X1523034Y-1344879D01*
X1511706Y-1346504D01*
X1502054Y-1347317D01*
X1492859Y-1347266D01*
X1482953Y-1346454D01*
X1471218Y-1344777D01*
G37*
G36*
X1811528Y-1372870D02*
G01*
X1795018Y-1392732D01*
X1801442Y-1411122D01*
X1809038Y-1411122D01*
X1813306Y-1388922D01*
X1835505Y-1384655D01*
X1843532Y-1405585D01*
X1829968Y-1419199D01*
X1809038Y-1411122D01*
X1801442Y-1411122D01*
X1807057Y-1427022D01*
X1836166Y-1431239D01*
X1854606Y-1415897D01*
X1854606Y-1388160D01*
X1839315Y-1372870D01*
G37*
G36*
X2030171Y-1635556D02*
G01*
X2004720Y-1653387D01*
X1989785Y-1653387D01*
X1983028Y-1653895D01*
X1975662Y-1655318D01*
X1968500Y-1657400D01*
X1962556Y-1659991D01*
X1950212Y-1666595D01*
X1950212Y-1687220D01*
X1975307Y-1664512D01*
X2003348Y-1671878D01*
X2036267Y-1649069D01*
X2106371Y-1648307D01*
X2124811Y-1658467D01*
X2154174Y-1647342D01*
X2186076Y-1659432D01*
X2186076Y-1653539D01*
X2185314Y-1650847D01*
X2183231Y-1647799D01*
X2180183Y-1644802D01*
X2176424Y-1642262D01*
X2166772Y-1636826D01*
G37*
G36*
X2850997Y-1640636D02*
G01*
X2840278Y-1652473D01*
X2837840Y-1655622D01*
X2835046Y-1660042D01*
X2831998Y-1665528D01*
X2825496Y-1678889D01*
X2819095Y-1694078D01*
X2808722Y-1722831D01*
X2824581Y-1722831D01*
X2831541Y-1699056D01*
X2835046Y-1689760D01*
X2839262Y-1680362D01*
X2843631Y-1671980D01*
X2845765Y-1668525D01*
X2850032Y-1662633D01*
X2854299Y-1657857D01*
X2858058Y-1654556D01*
X2860802Y-1653387D01*
X2865983Y-1653387D01*
X2857601Y-1698802D01*
X2854452Y-1712975D01*
X2851353Y-1724456D01*
X2849930Y-1728724D01*
X2848660Y-1731772D01*
X2847820Y-1733092D01*
X2868371Y-1733092D01*
X2872181Y-1710740D01*
X2874111Y-1701647D01*
X2876397Y-1693367D01*
X2878886Y-1686814D01*
X2881172Y-1682902D01*
X2886252Y-1677365D01*
X2895244Y-1737207D01*
X2880360Y-1752092D01*
X2868371Y-1733092D01*
X2847820Y-1733092D01*
X2842971Y-1738071D01*
X2824581Y-1722831D01*
X2808722Y-1722831D01*
X2802788Y-1739442D01*
X2802668Y-1787245D01*
X2817164Y-1787245D01*
X2817317Y-1756308D01*
X2817774Y-1749196D01*
X2818434Y-1744421D01*
X2819247Y-1742643D01*
X2823616Y-1744522D01*
X2826969Y-1749958D01*
X2829153Y-1758340D01*
X2829864Y-1769211D01*
X2829864Y-1787245D01*
X2802668Y-1787245D01*
X2802620Y-1806397D01*
X2822854Y-1806397D01*
X2825343Y-1807210D01*
X2827985Y-1809343D01*
X2830036Y-1812036D01*
X2842615Y-1812036D01*
X2842615Y-1764182D01*
X2859735Y-1740865D01*
X2863900Y-1751838D01*
X2865932Y-1758289D01*
X2867253Y-1765300D01*
X2867863Y-1772666D01*
X2867863Y-1780184D01*
X2867202Y-1787601D01*
X2865932Y-1794662D01*
X2864002Y-1801215D01*
X2861462Y-1807006D01*
X2857864Y-1813712D01*
X2877261Y-1813712D01*
X2882239Y-1761743D01*
X2893618Y-1761743D01*
X2893618Y-1786229D01*
X2893415Y-1794662D01*
X2892806Y-1801825D01*
X2891840Y-1807667D01*
X2890469Y-1812137D01*
X2888742Y-1815287D01*
X2886608Y-1817014D01*
X2884170Y-1817370D01*
X2881376Y-1816252D01*
X2877261Y-1813712D01*
X2857864Y-1813712D01*
X2854756Y-1819503D01*
X2842615Y-1812036D01*
X2830036Y-1812036D01*
X2832404Y-1816455D01*
X2836265Y-1826564D01*
X2828493Y-1857400D01*
X2817164Y-1857400D01*
X2817164Y-1806397D01*
X2802620Y-1806397D01*
X2802483Y-1860600D01*
X2823650Y-1902053D01*
X2836265Y-1902053D01*
X2836265Y-1891588D01*
X2836824Y-1885645D01*
X2838399Y-1877110D01*
X2840736Y-1867154D01*
X2843530Y-1856892D01*
X2850845Y-1832559D01*
X2866593Y-1826514D01*
X2873756Y-1833676D01*
X2877058Y-1837740D01*
X2879242Y-1842211D01*
X2880309Y-1847138D01*
X2880258Y-1852574D01*
X2878988Y-1858670D01*
X2876550Y-1865426D01*
X2872994Y-1872945D01*
X2868218Y-1881327D01*
X2855569Y-1902053D01*
X2823650Y-1902053D01*
X2830169Y-1914804D01*
X2861564Y-1914804D01*
X2892298Y-1866950D01*
X2908808Y-1796846D01*
X2908858Y-1707591D01*
X2900426Y-1682089D01*
X2896616Y-1671523D01*
X2892602Y-1661718D01*
X2888792Y-1653692D01*
X2885643Y-1648612D01*
X2879344Y-1640636D01*
G37*
G36*
X2553309Y-1856841D02*
G01*
X2527554Y-1860600D01*
X2499512Y-1902256D01*
X2493329Y-1938477D01*
X2504998Y-1938477D01*
X2508961Y-1921865D01*
X2511298Y-1913991D01*
X2514701Y-1904949D01*
X2518765Y-1895805D01*
X2522982Y-1887677D01*
X2527350Y-1880870D01*
X2531821Y-1875282D01*
X2535834Y-1871522D01*
X2538933Y-1870151D01*
X2544876Y-1870151D01*
X2541052Y-1906676D01*
X2554986Y-1906676D01*
X2566974Y-1894687D01*
X2574137Y-1915261D01*
X2576880Y-1924456D01*
X2579166Y-1934311D01*
X2580741Y-1943658D01*
X2581300Y-1951278D01*
X2581300Y-1966722D01*
X2558999Y-1962505D01*
X2554986Y-1906676D01*
X2541052Y-1906676D01*
X2539898Y-1916887D01*
X2537866Y-1931670D01*
X2535732Y-1943862D01*
X2533751Y-1951939D01*
X2532888Y-1954022D01*
X2529027Y-1960270D01*
X2504998Y-1938477D01*
X2493329Y-1938477D01*
X2483764Y-1994458D01*
X2486197Y-2011476D01*
X2498394Y-2011476D01*
X2498496Y-1996592D01*
X2499004Y-1990089D01*
X2500325Y-1983333D01*
X2502255Y-1977186D01*
X2504541Y-1972360D01*
X2510485Y-1962962D01*
X2514549Y-1973580D01*
X2515971Y-1978558D01*
X2516784Y-1984298D01*
X2516987Y-1990039D01*
X2516479Y-1995170D01*
X2514355Y-2006142D01*
X2530398Y-2006142D01*
X2530652Y-1997506D01*
X2531465Y-1988921D01*
X2532684Y-1981403D01*
X2534158Y-1975866D01*
X2536444Y-1970836D01*
X2538882Y-1967280D01*
X2541320Y-1965147D01*
X2543759Y-1964436D01*
X2546096Y-1964994D01*
X2548331Y-1966823D01*
X2550363Y-1969820D01*
X2552141Y-1973986D01*
X2553614Y-1979117D01*
X2554782Y-1985314D01*
X2555443Y-1992375D01*
X2555697Y-2000300D01*
X2555595Y-2026361D01*
X2549497Y-2035606D01*
X2565704Y-2035606D01*
X2567635Y-2011883D01*
X2568854Y-2002180D01*
X2570734Y-1993290D01*
X2573020Y-1986280D01*
X2575458Y-1982063D01*
X2581300Y-1975967D01*
X2581300Y-2051202D01*
X2565704Y-2035606D01*
X2549497Y-2035606D01*
X2543048Y-2045462D01*
X2530500Y-2026361D01*
X2530398Y-2006142D01*
X2514346Y-2006193D01*
X2498394Y-2011476D01*
X2486197Y-2011476D01*
X2488885Y-2030272D01*
X2504795Y-2030272D01*
X2516225Y-2023262D01*
X2520035Y-2033270D01*
X2521813Y-2039264D01*
X2522982Y-2046173D01*
X2523591Y-2053640D01*
X2523642Y-2061260D01*
X2523083Y-2068626D01*
X2522016Y-2075484D01*
X2520442Y-2081326D01*
X2518308Y-2085898D01*
X2512923Y-2094382D01*
X2508961Y-2079498D01*
X2507386Y-2072386D01*
X2506116Y-2063953D01*
X2505202Y-2055266D01*
X2504897Y-2047443D01*
X2504795Y-2030272D01*
X2488885Y-2030272D01*
X2498242Y-2095347D01*
X2510314Y-2118715D01*
X2527757Y-2118715D01*
X2528468Y-2111451D01*
X2530297Y-2102002D01*
X2541168Y-2058212D01*
X2566466Y-2054453D01*
X2580335Y-2071116D01*
X2554173Y-2131568D01*
X2542590Y-2131568D01*
X2536952Y-2131212D01*
X2532684Y-2130044D01*
X2529789Y-2127758D01*
X2528163Y-2124049D01*
X2527757Y-2118715D01*
X2510314Y-2118715D01*
X2521864Y-2141118D01*
X2553258Y-2144928D01*
X2564688Y-2132279D01*
X2567178Y-2129231D01*
X2569819Y-2125472D01*
X2575306Y-2116226D01*
X2580538Y-2105761D01*
X2584805Y-2095296D01*
X2593492Y-2070963D01*
X2593492Y-1930704D01*
X2582824Y-1901240D01*
X2577998Y-1890674D01*
X2572562Y-1880666D01*
X2569819Y-1876247D01*
X2567178Y-1872488D01*
X2564688Y-1869439D01*
G37*
G36*
X1490929Y-2045970D02*
G01*
X1455420Y-2059432D01*
X1424635Y-2048002D01*
X1377137Y-2069439D01*
X1348181Y-2061870D01*
X1319123Y-2069185D01*
X1319123Y-2083714D01*
X1382826Y-2082088D01*
X1421028Y-2066289D01*
X1456182Y-2073402D01*
X1497838Y-2058771D01*
X1532686Y-2079396D01*
X1569008Y-2060346D01*
X1590243Y-2065782D01*
X1603502Y-2069846D01*
X1618742Y-2075535D01*
X1618742Y-2069439D01*
X1617624Y-2066543D01*
X1614525Y-2063140D01*
X1609953Y-2059635D01*
X1604416Y-2056434D01*
X1597253Y-2053488D01*
X1589887Y-2051304D01*
X1582470Y-2049932D01*
X1575054Y-2049373D01*
X1567789Y-2049678D01*
X1560779Y-2050745D01*
X1554124Y-2052675D01*
X1547977Y-2055368D01*
X1535430Y-2062073D01*
G37*
G36*
X1945893Y-2085543D02*
G01*
X1902409Y-2108200D01*
X1855571Y-2105609D01*
X1811324Y-2144420D01*
X1793189Y-2137460D01*
X1759000Y-2164334D01*
X1759000Y-2188921D01*
X1763826Y-2188921D01*
X1766214Y-2187803D01*
X1769110Y-2184704D01*
X1772157Y-2180183D01*
X1775002Y-2174595D01*
X1781302Y-2160270D01*
X1822551Y-2156256D01*
X1861312Y-2117445D01*
X1905254Y-2125675D01*
X1937664Y-2104440D01*
X2001215Y-2112873D01*
X2027783Y-2098649D01*
X2052269Y-2120849D01*
X2060600Y-2112518D01*
X2037486Y-2086914D01*
X2028494Y-2086914D01*
X2024024Y-2087473D01*
X2018487Y-2088896D01*
X2012645Y-2090978D01*
X2007107Y-2093569D01*
X1994763Y-2100173D01*
G37*
G36*
X2979674Y-2118715D02*
G01*
X2948787Y-2122017D01*
X2944317Y-2135733D01*
X2972104Y-2136800D01*
X2986024Y-2137816D01*
X2999740Y-2139340D01*
X3012795Y-2141270D01*
X3024784Y-2143506D01*
X3035300Y-2145995D01*
X3043834Y-2148636D01*
X3047238Y-2149957D01*
X3049981Y-2151329D01*
X3051962Y-2152650D01*
X3060547Y-2159609D01*
X3116732Y-2161489D01*
X3116732Y-2156764D01*
X3115970Y-2154631D01*
X3113786Y-2152294D01*
X3110585Y-2150059D01*
X3106674Y-2148179D01*
X3096615Y-2144318D01*
X3067964Y-2151481D01*
X3051454Y-2131568D01*
X2998825Y-2131364D01*
G37*
D10*
X4953000Y-610290D02*
G01*
X4953000Y-705746D01*
X4953000Y-610290D02*
G01*
X4912090Y-610290D01*
X4898453Y-614837D01*
X4893909Y-619381D01*
X4889362Y-628472D01*
X4889362Y-642109D01*
X4893909Y-651200D01*
X4898453Y-655746D01*
X4912090Y-660290D01*
X4953000Y-660290D01*
X4859362Y-610290D02*
G01*
X4859362Y-705746D01*
X4859362Y-610290D02*
G01*
X4818453Y-610290D01*
X4804818Y-614837D01*
X4800272Y-619381D01*
X4795728Y-628472D01*
X4795728Y-637562D01*
X4800272Y-646653D01*
X4804818Y-651200D01*
X4818453Y-655746D01*
X4859362Y-655746D01*
X4827546Y-655746D02*
G01*
X4795728Y-705746D01*
X4738453Y-610290D02*
G01*
X4747547Y-614837D01*
X4756637Y-623928D01*
X4761181Y-633018D01*
X4765728Y-646653D01*
X4765728Y-669381D01*
X4761181Y-683018D01*
X4756637Y-692109D01*
X4747547Y-701200D01*
X4738453Y-705746D01*
X4720272Y-705746D01*
X4711181Y-701200D01*
X4702091Y-692109D01*
X4697547Y-683018D01*
X4693000Y-669381D01*
X4693000Y-646653D01*
X4697547Y-633018D01*
X4702091Y-623928D01*
X4711181Y-614837D01*
X4720272Y-610290D01*
X4738453Y-610290D01*
X4631181Y-610290D02*
G01*
X4631181Y-705746D01*
X4663000Y-610290D02*
G01*
X4599363Y-610290D01*
X4542091Y-610290D02*
G01*
X4551182Y-614837D01*
X4560272Y-623928D01*
X4564819Y-633018D01*
X4569363Y-646653D01*
X4569363Y-669381D01*
X4564819Y-683018D01*
X4560272Y-692109D01*
X4551182Y-701200D01*
X4542091Y-705746D01*
X4523910Y-705746D01*
X4514819Y-701200D01*
X4505728Y-692109D01*
X4501182Y-683018D01*
X4496638Y-669381D01*
X4496638Y-646653D01*
X4501182Y-633018D01*
X4505728Y-623928D01*
X4514819Y-614837D01*
X4523910Y-610290D01*
X4542091Y-610290D01*
X4434819Y-610290D02*
G01*
X4434819Y-705746D01*
X4466638Y-610290D02*
G01*
X4403001Y-610290D01*
X4373001Y-610290D02*
G01*
X4336638Y-655746D01*
X4336638Y-705746D01*
X4300273Y-610290D02*
G01*
X4336638Y-655746D01*
X4270273Y-610290D02*
G01*
X4270273Y-705746D01*
X4270273Y-610290D02*
G01*
X4229364Y-610290D01*
X4215729Y-614837D01*
X4211182Y-619381D01*
X4206638Y-628472D01*
X4206638Y-642109D01*
X4211182Y-651200D01*
X4215729Y-655746D01*
X4229364Y-660290D01*
X4270273Y-660290D01*
X4176638Y-610290D02*
G01*
X4176638Y-705746D01*
X4176638Y-610290D02*
G01*
X4117548Y-610290D01*
X4176638Y-655746D02*
G01*
X4140273Y-655746D01*
X4176638Y-705746D02*
G01*
X4117548Y-705746D01*
X4017548Y-610290D02*
G01*
X4017548Y-705746D01*
X4017548Y-610290D02*
G01*
X3981183Y-705746D01*
X3944820Y-610290D02*
G01*
X3981183Y-705746D01*
X3944820Y-610290D02*
G01*
X3944820Y-705746D01*
X3878455Y-610290D02*
G01*
X3914820Y-705746D01*
X3878455Y-610290D02*
G01*
X3842092Y-705746D01*
X3901183Y-673928D02*
G01*
X3855730Y-673928D01*
X3812092Y-610290D02*
G01*
X3812092Y-705746D01*
X3812092Y-610290D02*
G01*
X3771183Y-610290D01*
X3757549Y-614837D01*
X3753002Y-619381D01*
X3748455Y-628472D01*
X3748455Y-637562D01*
X3753002Y-646653D01*
X3757549Y-651200D01*
X3771183Y-655746D01*
X3812092Y-655746D01*
X3780274Y-655746D02*
G01*
X3748455Y-705746D01*
X3654821Y-623928D02*
G01*
X3663911Y-614837D01*
X3677549Y-610290D01*
X3695730Y-610290D01*
X3709365Y-614837D01*
X3718455Y-623928D01*
X3718455Y-633018D01*
X3713911Y-642109D01*
X3709365Y-646653D01*
X3700274Y-651200D01*
X3673002Y-660290D01*
X3663911Y-664837D01*
X3659365Y-669381D01*
X3654821Y-678472D01*
X3654821Y-692109D01*
X3663911Y-701200D01*
X3677549Y-705746D01*
X3695730Y-705746D01*
X3709365Y-701200D01*
X3718455Y-692109D01*
X3554821Y-610290D02*
G01*
X3554821Y-705746D01*
X3554821Y-610290D02*
G01*
X3513912Y-610290D01*
X3500274Y-614837D01*
X3495730Y-619381D01*
X3491184Y-628472D01*
X3491184Y-637562D01*
X3495730Y-646653D01*
X3500274Y-651200D01*
X3513912Y-655746D01*
X3554821Y-655746D01*
X3523002Y-655746D02*
G01*
X3491184Y-705746D01*
X3433912Y-610290D02*
G01*
X3443003Y-614837D01*
X3452093Y-623928D01*
X3456640Y-633018D01*
X3461184Y-646653D01*
X3461184Y-669381D01*
X3456640Y-683018D01*
X3452093Y-692109D01*
X3443003Y-701200D01*
X3433912Y-705746D01*
X3415731Y-705746D01*
X3406640Y-701200D01*
X3397549Y-692109D01*
X3393003Y-683018D01*
X3388456Y-669381D01*
X3388456Y-646653D01*
X3393003Y-633018D01*
X3397549Y-623928D01*
X3406640Y-614837D01*
X3415731Y-610290D01*
X3433912Y-610290D01*
X3358456Y-610290D02*
G01*
X3322093Y-705746D01*
X3285731Y-610290D02*
G01*
X3322093Y-705746D01*
X3255731Y-610290D02*
G01*
X3255731Y-705746D01*
X3255731Y-610290D02*
G01*
X3196640Y-610290D01*
X3255731Y-655746D02*
G01*
X3219366Y-655746D01*
X3255731Y-705746D02*
G01*
X3196640Y-705746D01*
X3166640Y-610290D02*
G01*
X3166640Y-705746D01*
X3166640Y-610290D02*
G01*
X3125731Y-610290D01*
X3112094Y-614837D01*
X3107550Y-619381D01*
X3103003Y-628472D01*
X3103003Y-637562D01*
X3107550Y-646653D01*
X3112094Y-651200D01*
X3125731Y-655746D01*
X3166640Y-655746D01*
X3134822Y-655746D02*
G01*
X3103003Y-705746D01*
X9156700Y-534436D02*
G01*
X9156700Y-677618D01*
X9111701Y-534436D02*
G01*
X9111701Y-677618D01*
X9111701Y-534436D02*
G01*
X9016245Y-677618D01*
X9016245Y-534436D02*
G01*
X9016245Y-677618D01*
X8923517Y-534436D02*
G01*
X8923517Y-677618D01*
X8971246Y-534436D02*
G01*
X8875791Y-534436D01*
X8830792Y-534436D02*
G01*
X8830792Y-677618D01*
X8830792Y-534436D02*
G01*
X8742154Y-534436D01*
X8830792Y-602617D02*
G01*
X8776246Y-602617D01*
X8830792Y-677618D02*
G01*
X8742154Y-677618D01*
X8697155Y-534436D02*
G01*
X8697155Y-677618D01*
X8697155Y-534436D02*
G01*
X8635791Y-534436D01*
X8615337Y-541253D01*
X8608519Y-548073D01*
X8601702Y-561708D01*
X8601702Y-575345D01*
X8608519Y-588982D01*
X8615337Y-595800D01*
X8635791Y-602617D01*
X8697155Y-602617D01*
X8649428Y-602617D02*
G01*
X8601702Y-677618D01*
X8556701Y-534436D02*
G01*
X8556701Y-677618D01*
X8556701Y-534436D02*
G01*
X8461247Y-677618D01*
X8461247Y-534436D02*
G01*
X8461247Y-677618D01*
X8361700Y-534436D02*
G01*
X8416246Y-677618D01*
X8361700Y-534436D02*
G01*
X8307156Y-677618D01*
X8395792Y-629892D02*
G01*
X8327610Y-629892D01*
X8214428Y-534436D02*
G01*
X8214428Y-677618D01*
X8262155Y-534436D02*
G01*
X8166701Y-534436D01*
X8121700Y-534436D02*
G01*
X8121700Y-677618D01*
X8035792Y-534436D02*
G01*
X8049430Y-541253D01*
X8063064Y-554890D01*
X8069884Y-568528D01*
X8076702Y-588982D01*
X8076702Y-623072D01*
X8069884Y-643526D01*
X8063064Y-657164D01*
X8049430Y-670801D01*
X8035792Y-677618D01*
X8008520Y-677618D01*
X7994883Y-670801D01*
X7981248Y-657164D01*
X7974429Y-643526D01*
X7967611Y-623072D01*
X7967611Y-588982D01*
X7974429Y-568528D01*
X7981248Y-554890D01*
X7994883Y-541253D01*
X8008520Y-534436D01*
X8035792Y-534436D01*
X7922610Y-534436D02*
G01*
X7922610Y-677618D01*
X7922610Y-534436D02*
G01*
X7827157Y-677618D01*
X7827157Y-534436D02*
G01*
X7827157Y-677618D01*
X7727612Y-534436D02*
G01*
X7782156Y-677618D01*
X7727612Y-534436D02*
G01*
X7673065Y-677618D01*
X7761701Y-629892D02*
G01*
X7693520Y-629892D01*
X7628067Y-534436D02*
G01*
X7628067Y-677618D01*
X7628067Y-677618D02*
G01*
X7546248Y-677618D01*
X7396248Y-534436D02*
G01*
X7396248Y-677618D01*
X7396248Y-534436D02*
G01*
X7334884Y-534436D01*
X7314430Y-541253D01*
X7307613Y-548073D01*
X7300795Y-561708D01*
X7300795Y-575345D01*
X7307613Y-588982D01*
X7314430Y-595800D01*
X7334884Y-602617D01*
X7396248Y-602617D01*
X7348522Y-602617D02*
G01*
X7300795Y-677618D01*
X7214885Y-534436D02*
G01*
X7228522Y-541253D01*
X7242157Y-554890D01*
X7248977Y-568528D01*
X7255794Y-588982D01*
X7255794Y-623072D01*
X7248977Y-643526D01*
X7242157Y-657164D01*
X7228522Y-670801D01*
X7214885Y-677618D01*
X7187613Y-677618D01*
X7173975Y-670801D01*
X7160341Y-657164D01*
X7153521Y-643526D01*
X7146704Y-623072D01*
X7146704Y-588982D01*
X7153521Y-568528D01*
X7160341Y-554890D01*
X7173975Y-541253D01*
X7187613Y-534436D01*
X7214885Y-534436D01*
X7101702Y-534436D02*
G01*
X7047158Y-677618D01*
X6992612Y-534436D02*
G01*
X7047158Y-677618D01*
X6947613Y-534436D02*
G01*
X6947613Y-677618D01*
X6947613Y-534436D02*
G01*
X6858977Y-534436D01*
X6947613Y-602617D02*
G01*
X6893067Y-602617D01*
X6947613Y-677618D02*
G01*
X6858977Y-677618D01*
X6813976Y-534436D02*
G01*
X6813976Y-677618D01*
X6813976Y-534436D02*
G01*
X6752612Y-534436D01*
X6732158Y-541253D01*
X6725340Y-548073D01*
X6718523Y-561708D01*
X6718523Y-575345D01*
X6725340Y-588982D01*
X6732158Y-595800D01*
X6752612Y-602617D01*
X6813976Y-602617D01*
X6766250Y-602617D02*
G01*
X6718523Y-677618D01*
X6466250Y-568528D02*
G01*
X6473068Y-554890D01*
X6486705Y-541253D01*
X6500342Y-534436D01*
X6527614Y-534436D01*
X6541251Y-541253D01*
X6554886Y-554890D01*
X6561703Y-568528D01*
X6568523Y-588982D01*
X6568523Y-623072D01*
X6561703Y-643526D01*
X6554886Y-657164D01*
X6541251Y-670801D01*
X6527614Y-677618D01*
X6500342Y-677618D01*
X6486705Y-670801D01*
X6473068Y-657164D01*
X6466250Y-643526D01*
X6421252Y-534436D02*
G01*
X6421252Y-677618D01*
X6325796Y-534436D02*
G01*
X6325796Y-677618D01*
X6421252Y-602617D02*
G01*
X6325796Y-602617D01*
X6226251Y-534436D02*
G01*
X6280797Y-677618D01*
X6226251Y-534436D02*
G01*
X6171704Y-677618D01*
X6260343Y-629892D02*
G01*
X6192159Y-629892D01*
X6126706Y-534436D02*
G01*
X6126706Y-677618D01*
X6126706Y-677618D02*
G01*
X6044887Y-677618D01*
X5999888Y-534436D02*
G01*
X5999888Y-677618D01*
X5999888Y-677618D02*
G01*
X5918070Y-677618D01*
X5873069Y-534436D02*
G01*
X5873069Y-677618D01*
X5873069Y-534436D02*
G01*
X5784433Y-534436D01*
X5873069Y-602617D02*
G01*
X5818525Y-602617D01*
X5873069Y-677618D02*
G01*
X5784433Y-677618D01*
X5739434Y-534436D02*
G01*
X5739434Y-677618D01*
X5739434Y-534436D02*
G01*
X5643979Y-677618D01*
X5643979Y-534436D02*
G01*
X5643979Y-677618D01*
X5496707Y-568528D02*
G01*
X5503524Y-554890D01*
X5517161Y-541253D01*
X5530799Y-534436D01*
X5558071Y-534436D01*
X5571705Y-541253D01*
X5585343Y-554890D01*
X5592160Y-568528D01*
X5598980Y-588982D01*
X5598980Y-623072D01*
X5592160Y-643526D01*
X5585343Y-657164D01*
X5571705Y-670801D01*
X5558071Y-677618D01*
X5530799Y-677618D01*
X5517161Y-670801D01*
X5503524Y-657164D01*
X5496707Y-643526D01*
X5496707Y-623072D01*
X5530799Y-623072D02*
G01*
X5496707Y-623072D01*
X5451706Y-534436D02*
G01*
X5451706Y-677618D01*
X5451706Y-534436D02*
G01*
X5363070Y-534436D01*
X5451706Y-602617D02*
G01*
X5397162Y-602617D01*
X5451706Y-677618D02*
G01*
X5363070Y-677618D01*
X8610600Y-813836D02*
G01*
X8610600Y-957018D01*
X8610600Y-813836D02*
G01*
X8549236Y-813836D01*
X8528781Y-820653D01*
X8521964Y-827473D01*
X8515146Y-841108D01*
X8515146Y-854745D01*
X8521964Y-868382D01*
X8528781Y-875200D01*
X8549236Y-882017D01*
X8610600Y-882017D02*
G01*
X8549236Y-882017D01*
X8528781Y-888837D01*
X8521964Y-895654D01*
X8515146Y-909292D01*
X8515146Y-929746D01*
X8521964Y-943381D01*
X8528781Y-950201D01*
X8549236Y-957018D01*
X8610600Y-957018D01*
X8470145Y-813836D02*
G01*
X8470145Y-957018D01*
X8470145Y-813836D02*
G01*
X8381509Y-813836D01*
X8470145Y-882017D02*
G01*
X8415599Y-882017D01*
X8470145Y-957018D02*
G01*
X8381509Y-957018D01*
X8336508Y-813836D02*
G01*
X8336508Y-957018D01*
X8336508Y-813836D02*
G01*
X8241055Y-957018D01*
X8241055Y-813836D02*
G01*
X8241055Y-957018D01*
X8093783Y-847928D02*
G01*
X8100601Y-834290D01*
X8114238Y-820653D01*
X8127872Y-813836D01*
X8155147Y-813836D01*
X8168782Y-820653D01*
X8182419Y-834290D01*
X8189236Y-847928D01*
X8196054Y-868382D01*
X8196054Y-902472D01*
X8189236Y-922926D01*
X8182419Y-936564D01*
X8168782Y-950201D01*
X8155147Y-957018D01*
X8127872Y-957018D01*
X8114238Y-950201D01*
X8100601Y-936564D01*
X8093783Y-922926D01*
X8093783Y-902472D01*
X8127872Y-902472D02*
G01*
X8093783Y-902472D01*
X7994238Y-813836D02*
G01*
X8048782Y-957018D01*
X7994238Y-813836D02*
G01*
X7939692Y-957018D01*
X8028327Y-909292D02*
G01*
X7960146Y-909292D01*
X7894693Y-813836D02*
G01*
X7894693Y-957018D01*
X7894693Y-957018D02*
G01*
X7812874Y-957018D01*
X7767873Y-813836D02*
G01*
X7767873Y-916109D01*
X7761056Y-936564D01*
X7747419Y-950201D01*
X7726964Y-957018D01*
X7713329Y-957018D01*
X7692875Y-950201D01*
X7679237Y-936564D01*
X7672420Y-916109D01*
X7672420Y-813836D01*
X7627419Y-813836D02*
G01*
X7627419Y-957018D01*
X7627419Y-813836D02*
G01*
X7566055Y-813836D01*
X7545600Y-820653D01*
X7538783Y-827473D01*
X7531966Y-841108D01*
X7531966Y-854745D01*
X7538783Y-868382D01*
X7545600Y-875200D01*
X7566055Y-882017D01*
X7627419Y-882017D01*
X7579692Y-882017D02*
G01*
X7531966Y-957018D01*
X7486964Y-813836D02*
G01*
X7486964Y-916109D01*
X7480147Y-936564D01*
X7466510Y-950201D01*
X7446055Y-957018D01*
X7432420Y-957018D01*
X7411966Y-950201D01*
X7398329Y-936564D01*
X7391511Y-916109D01*
X7391511Y-813836D01*
X7241512Y-895654D02*
G01*
X7118784Y-895654D01*
X6961967Y-847928D02*
G01*
X6961967Y-841108D01*
X6955149Y-827473D01*
X6948330Y-820653D01*
X6934695Y-813836D01*
X6907420Y-813836D01*
X6893786Y-820653D01*
X6886966Y-827473D01*
X6880148Y-841108D01*
X6880148Y-854745D01*
X6886966Y-868382D01*
X6900603Y-888837D01*
X6968784Y-957018D01*
X6873331Y-957018D01*
X6828330Y-813836D02*
G01*
X6828330Y-957018D01*
X6732877Y-813836D02*
G01*
X6828330Y-909292D01*
X6794240Y-875200D02*
G01*
X6732877Y-957018D01*
X6681058Y-847928D02*
G01*
X6681058Y-841108D01*
X6674241Y-827473D01*
X6667421Y-820653D01*
X6653786Y-813836D01*
X6626512Y-813836D01*
X6612877Y-820653D01*
X6606057Y-827473D01*
X6599240Y-841108D01*
X6599240Y-854745D01*
X6606057Y-868382D01*
X6619694Y-888837D01*
X6687875Y-957018D01*
X6592422Y-957018D01*
X6533786Y-813836D02*
G01*
X6458785Y-813836D01*
X6499694Y-868382D01*
X6479240Y-868382D01*
X6465603Y-875200D01*
X6458785Y-882017D01*
X6451968Y-902472D01*
X6451968Y-916109D01*
X6458785Y-936564D01*
X6472422Y-950201D01*
X6492877Y-957018D01*
X6513332Y-957018D01*
X6533786Y-950201D01*
X6540604Y-943381D01*
X6547421Y-929746D01*
D11*
X6540500Y-1016000D02*
G01*
X8540495Y-1016000D01*
X5402503Y-736600D02*
G01*
X9202498Y-736600D01*
M02*
