G04 Layer: TopSolderMaskLayer*
G04 EasyEDA v6.5.22, 2022-12-23 11:11:42*
G04 6bc2ae37271549389f3215a5b1e34c8e,48bb6e63cd8b433992a3f5e94ad137e8,10*
G04 Gerber Generator version 0.2*
G04 Scale: 100 percent, Rotated: No, Reflected: No *
G04 Dimensions in millimeters *
G04 leading zeros omitted , absolute positions ,4 integer and 5 decimal *
%FSLAX45Y45*%
%MOMM*%

%AMMACRO1*1,1,$1,$2,$3*1,1,$1,$4,$5*1,1,$1,0-$2,0-$3*1,1,$1,0-$4,0-$5*20,1,$1,$2,$3,$4,$5,0*20,1,$1,$4,$5,0-$2,0-$3,0*20,1,$1,0-$2,0-$3,0-$4,0-$5,0*20,1,$1,0-$4,0-$5,$2,$3,0*4,1,4,$2,$3,$4,$5,0-$2,0-$3,0-$4,0-$5,$2,$3,0*%
%ADD10MACRO1,0.2032X-0.9X-2X-0.9X2*%
%ADD11C,1.6256*%
%ADD12MACRO1,0.1016X-0.85X0.85X0.85X0.85*%
%ADD13MACRO1,0.1016X0.762X0.762X0.762X-0.762*%
%ADD14MACRO1,0.1016X-0.762X0.762X0.762X0.762*%
%ADD15MACRO1,0.1016X0.762X-0.762X-0.762X-0.762*%
%ADD16C,2.1016*%
%ADD17MACRO1,0.1016X1X-1X-1X-1*%
%ADD18O,4.101592X2.1246084*%

%LPD*%
D10*
G01*
X2882917Y-3933433D03*
G01*
X2882917Y-3073389D03*
D11*
G01*
X2794000Y-5080000D03*
G01*
X3048000Y-5080000D03*
G01*
X3302000Y-5080000D03*
G01*
X3556000Y-5080000D03*
G01*
X3810000Y-5080000D03*
D12*
G01*
X4064001Y-5080001D03*
G01*
X4318001Y-5080001D03*
D11*
G01*
X4572000Y-5080000D03*
G01*
X5080000Y-5080000D03*
G01*
X5334000Y-5080000D03*
G01*
X5588000Y-5080000D03*
G01*
X5842000Y-5080000D03*
G01*
X6096000Y-5080000D03*
G01*
X6350000Y-5080000D03*
G01*
X6604000Y-5080000D03*
G01*
X6858000Y-5080000D03*
G01*
X7366000Y-5080000D03*
G01*
X7620000Y-5080000D03*
G01*
X7874000Y-5080000D03*
G01*
X8128000Y-5080000D03*
G01*
X8382000Y-5080000D03*
G01*
X8636000Y-5080000D03*
G01*
X8890000Y-5080000D03*
G01*
X9144000Y-5080000D03*
D12*
G01*
X9398001Y-4572001D03*
D11*
G01*
X9398000Y-4318000D03*
G01*
X9398000Y-4064000D03*
G01*
X9398000Y-3810000D03*
G01*
X9398000Y-3556000D03*
G01*
X9398000Y-3302000D03*
G01*
X9398000Y-3048000D03*
G01*
X9398000Y-2794000D03*
G01*
X9398000Y-2540000D03*
G01*
X9398000Y-2286000D03*
G01*
X9398000Y-2032000D03*
G01*
X9398000Y-1778000D03*
G01*
X9398000Y-1524000D03*
G01*
X9398000Y-1270000D03*
G01*
X9398000Y-1016000D03*
G01*
X9398000Y-762000D03*
G01*
X9398000Y-508000D03*
G01*
X9398000Y-254000D03*
D12*
G01*
X9652001Y-4572001D03*
D11*
G01*
X9652000Y-4318000D03*
G01*
X9652000Y-4064000D03*
G01*
X9652000Y-3810000D03*
G01*
X9652000Y-3556000D03*
G01*
X9652000Y-3302000D03*
G01*
X9652000Y-3048000D03*
G01*
X9652000Y-2794000D03*
G01*
X9652000Y-2540000D03*
G01*
X9652000Y-2286000D03*
G01*
X9652000Y-2032000D03*
G01*
X9652000Y-1778000D03*
G01*
X9652000Y-1524000D03*
G01*
X9652000Y-1270000D03*
G01*
X9652000Y-1016000D03*
G01*
X9652000Y-762000D03*
G01*
X9652000Y-508000D03*
G01*
X9652000Y-254000D03*
G01*
X1879600Y-254000D03*
G01*
X2133600Y-254000D03*
G01*
X2387600Y-254000D03*
D12*
G01*
X2641601Y-254001D03*
D11*
G01*
X2895600Y-254000D03*
G01*
X3149600Y-254000D03*
G01*
X3403600Y-254000D03*
G01*
X3657600Y-254000D03*
G01*
X3911600Y-254000D03*
G01*
X4165600Y-254000D03*
G01*
X4572000Y-254000D03*
G01*
X4826000Y-254000D03*
G01*
X5080000Y-254000D03*
G01*
X5334000Y-254000D03*
G01*
X5588000Y-254000D03*
G01*
X5842000Y-254000D03*
G01*
X6096000Y-254000D03*
G01*
X6350000Y-254000D03*
G01*
X6858000Y-254000D03*
G01*
X7112000Y-254000D03*
G01*
X7366000Y-254000D03*
G01*
X7620000Y-254000D03*
G01*
X7874000Y-254000D03*
G01*
X8140700Y-254000D03*
G01*
X8382000Y-254000D03*
G01*
X8636000Y-254000D03*
D13*
G01*
X5867400Y-1803400D03*
D11*
G01*
X5867400Y-1549400D03*
G01*
X5867400Y-1295400D03*
G01*
X5867400Y-1041400D03*
D13*
G01*
X5473700Y-1803400D03*
D11*
G01*
X5473700Y-1549400D03*
G01*
X5473700Y-1295400D03*
G01*
X5473700Y-1041400D03*
D13*
G01*
X5080000Y-1803400D03*
D11*
G01*
X5080000Y-1549400D03*
G01*
X5080000Y-1295400D03*
G01*
X5080000Y-1041400D03*
D14*
G01*
X5448300Y-4114800D03*
D11*
G01*
X5194300Y-4114800D03*
G01*
X4940300Y-4114800D03*
G01*
X4686300Y-4114800D03*
G01*
X8470900Y-1854200D03*
D15*
G01*
X8216900Y-1854200D03*
D11*
G01*
X7962900Y-1854200D03*
G01*
X7708900Y-1854200D03*
G01*
X6772275Y-4295775D03*
G01*
X6518275Y-4295775D03*
D15*
G01*
X6264275Y-4295775D03*
D11*
G01*
X6010275Y-4295775D03*
G01*
X8402650Y-2492375D03*
D15*
G01*
X8148624Y-2492375D03*
D11*
G01*
X7894650Y-2492375D03*
G01*
X7640650Y-2492375D03*
G01*
X3416300Y-1143000D03*
G01*
X3416300Y-1397000D03*
G01*
X3416300Y-1651000D03*
D13*
G01*
X3416292Y-1904997D03*
D11*
G01*
X3898900Y-1143000D03*
G01*
X4318000Y-1143000D03*
G01*
X4318000Y-1397000D03*
G01*
X3898900Y-1397000D03*
G01*
X3898900Y-1651000D03*
G01*
X4318000Y-1651000D03*
D13*
G01*
X4317992Y-1904997D03*
G01*
X3898892Y-1904997D03*
D11*
G01*
X6016625Y-4530725D03*
D14*
G01*
X6270625Y-4530725D03*
D11*
G01*
X6524625Y-4530725D03*
G01*
X6778625Y-4530725D03*
D16*
G01*
X2235200Y-4140200D03*
D11*
G01*
X3505200Y-4140200D03*
G01*
X3505200Y-2362200D03*
D15*
G01*
X2235200Y-2362200D03*
D11*
G01*
X3505200Y-3886200D03*
G01*
X3505200Y-3632200D03*
G01*
X3505200Y-3378200D03*
G01*
X3505200Y-3124200D03*
G01*
X3505200Y-2870200D03*
G01*
X3505200Y-2616200D03*
D17*
G01*
X2235200Y-3886200D03*
D11*
G01*
X2235200Y-3632200D03*
G01*
X2235200Y-3378200D03*
G01*
X2235200Y-3124200D03*
G01*
X2235200Y-2870200D03*
G01*
X2235200Y-2616200D03*
D18*
G01*
X508000Y-2921000D03*
G01*
X508000Y-3429000D03*
G01*
X508000Y-3937000D03*
G01*
X508000Y-2413000D03*
D11*
G01*
X7035800Y-1270000D03*
G01*
X7035800Y-1524000D03*
G01*
X7035800Y-1778000D03*
G01*
X7035800Y-2032000D03*
G01*
X7035800Y-2286000D03*
G01*
X7035800Y-2540000D03*
M02*
