M48
METRIC,LZ,000.000
;FILE_FORMAT=3:3
;TYPE=PLATED
;Layer: PTH_Through_Via
;EasyEDA v6.5.22, 2022-12-23 11:11:42
;6bc2ae37271549389f3215a5b1e34c8e,48bb6e63cd8b433992a3f5e94ad137e8,10
;Gerber Generator version 0.2
;Holesize 1 = 0.305 mm
T01C0.305
;Holesize 2 = 0.450 mm
T02C0.450
;Holesize 3 = 0.501 mm
T03C0.501
;Holesize 4 = 0.600 mm
T04C0.600
%
G05
G90
T01
X047244Y-006477
X049276Y-006350
X049149Y-011557
X053213Y-008509
X060198Y-006858
X063246Y-016510
X056642Y-021590
X037211Y-006477
X034290Y-006477
X040005Y-006477
X043434Y-006477
X081534Y-027686
T02
X089662Y-009525
X091567Y-004699
X091440Y-001143
X075819Y-034798
X083312Y-044704
X079375Y-036703
X057150Y-046228
X057277Y-037465
X072390Y-039497
T03
X028956Y-008636
X026670Y-016510
X026670Y-013843
X021717Y-013843
T04
X018034Y-020828
M30
